999
dxfrw 0.6.3
  0
SECTION
  2
HEADER
  9
$ACADVER
  1
AC1021
  9
$DWGCODEPAGE
  3
ANSI_1252
  9
$INSBASE
 10
0
 20
0
 30
0
  9
$EXTMIN
 10
-75
 20
-110.5000000000001
 30
0
  9
$EXTMAX
 10
475
 20
314.4999999999999
 30
0
  9
$LIMMIN
 10
0
 20
0
  9
$LIMMAX
 10
420
 20
297
  9
$ORTHOMODE
 70
    0
  9
$REGENMODE
 70
    1
  9
$FILLMODE
 70
    1
  9
$QTEXTMODE
 70
    0
  9
$MIRRTEXT
 70
    0
  9
$LTSCALE
 40
1
  9
$ATTMODE
 70
    0
  9
$TEXTSIZE
 40
2.5
  9
$TRACEWID
 40
15.68
  9
$TEXTSTYLE
  7
STANDARD
  9
$CLAYER
  8
dim
  9
$CELTYPE
  6
BYLAYER
  9
$CECOLOR
 62
  256
  9
$CELTSCALE
 40
1
  9
$DISPSILH
 70
    0
  9
$DIMSCALE
 40
1
  9
$DIMASZ
 40
6.25
  9
$DIMEXO
 40
3.125
  9
$DIMDLI
 40
3.75
  9
$DIMRND
 40
0
  9
$DIMDLE
 40
0
  9
$DIMEXE
 40
3.125
  9
$DIMTP
 40
0
  9
$DIMTM
 40
0
  9
$DIMTXT
 40
6.25
  9
$DIMCEN
 40
2.5
  9
$DIMTSZ
 40
0
  9
$DIMTOL
 70
    0
  9
$DIMLIM
 70
    0
  9
$DIMTIH
 70
    0
  9
$DIMTOH
 70
    0
  9
$DIMSE1
 70
    0
  9
$DIMSE2
 70
    0
  9
$DIMTAD
 70
    1
  9
$DIMZIN
 70
    1
  9
$DIMBLK
  1

  9
$DIMASO
 70
    1
  9
$DIMSHO
 70
    1
  9
$DIMPOST
  1

  9
$DIMAPOST
  1

  9
$DIMALT
 70
    0
  9
$DIMALTD
 70
    3
  9
$DIMALTF
 40
0.03937
  9
$DIMLFAC
 40
1
  9
$DIMTOFL
 70
    1
  9
$DIMTVP
 40
0
  9
$DIMTIX
 70
    0
  9
$DIMSOXD
 70
    0
  9
$DIMSAH
 70
    0
  9
$DIMBLK1
  1

  9
$DIMBLK2
  1

  9
$DIMSTYLE
  2
Standard
  9
$DIMCLRD
 70
    0
  9
$DIMCLRE
 70
    0
  9
$DIMCLRT
 70
    0
  9
$DIMTFAC
 40
1
  9
$DIMGAP
 40
3.125
  9
$DIMJUST
 70
    0
  9
$DIMSD1
 70
    0
  9
$DIMSD2
 70
    0
  9
$DIMTOLJ
 70
    0
  9
$DIMTZIN
 70
    8
  9
$DIMALTZ
 70
    0
  9
$DIMALTTZ
 70
    0
  9
$DIMUPT
 70
    0
  9
$DIMDEC
 70
    2
  9
$DIMTDEC
 70
    2
  9
$DIMALTU
 70
    2
  9
$DIMALTTD
 70
    3
  9
$DIMTXSTY
  7
standard
  9
$DIMAUNIT
 70
    0
  9
$DIMADEC
 70
    0
  9
$DIMALTRND
 40
0
  9
$DIMAZIN
 70
    0
  9
$DIMDSEP
 70
    0
  9
$DIMATFIT
 70
    3
  9
$DIMFRAC
 70
    0
  9
$DIMLDRBLK
  1
STANDARD
  9
$DIMLUNIT
 70
    4
  9
$DIMLWD
 70
   -2
  9
$DIMLWE
 70
   -2
  9
$DIMTMOVE
 70
    0
  9
$DIMFXL
 40
0.04
  9
$DIMFXLON
 70
    0
  9
$DIMJOGANG
 40
0.7854
  9
$DIMTFILL
 70
    0
  9
$DIMTFILLCLR
 70
    0
  9
$DIMARCSYM
 70
    0
  9
$DIMLTYPE
  6

  9
$DIMLTEX1
  6

  9
$DIMLTEX2
  6

  9
$LUNITS
 70
    4
  9
$LUPREC
 70
    4
  9
$SKETCHINC
 40
1
  9
$FILLETRAD
 40
0
  9
$AUNITS
 70
    0
  9
$AUPREC
 70
    2
  9
$MENU
  1
.
  9
$ELEVATION
 40
0
  9
$PELEVATION
 40
0
  9
$THICKNESS
 40
0
  9
$LIMCHECK
 70
    0
  9
$CHAMFERA
 40
0
  9
$CHAMFERB
 40
0
  9
$CHAMFERC
 40
0
  9
$CHAMFERD
 40
0
  9
$SKPOLY
 70
    0
  9
$USRTIMER
 70
    1
  9
$ANGBASE
 50
0
  9
$ANGDIR
 70
    0
  9
$PDMODE
 70
   34
  9
$PDSIZE
 40
0
  9
$PLINEWID
 40
0
  9
$SPLFRAME
 70
    0
  9
$SPLINETYPE
 70
    2
  9
$SPLINESEGS
 70
    8
  9
$HANDSEED
  5
20000
  9
$SURFTAB1
 70
    6
  9
$SURFTAB2
 70
    6
  9
$SURFTYPE
 70
    6
  9
$SURFU
 70
    6
  9
$SURFV
 70
    6
  9
$UCSBASE
  2

  9
$UCSNAME
  2

  9
$UCSORG
 10
0
 20
0
 30
0
  9
$UCSXDIR
 10
1
 20
0
 30
0
  9
$UCSYDIR
 10
0
 20
1
 30
0
  9
$UCSORTHOREF
  2

  9
$UCSORTHOVIEW
 70
    0
  9
$UCSORGTOP
 10
0
 20
0
 30
0
  9
$UCSORGBOTTOM
 10
0
 20
0
 30
0
  9
$UCSORGLEFT
 10
0
 20
0
 30
0
  9
$UCSORGRIGHT
 10
0
 20
0
 30
0
  9
$UCSORGFRONT
 10
0
 20
0
 30
0
  9
$UCSORGBACK
 10
0
 20
0
 30
0
  9
$PUCSBASE
  2

  9
$PUCSNAME
  2

  9
$PUCSORG
 10
0
 20
0
 30
0
  9
$PUCSXDIR
 10
1
 20
0
 30
0
  9
$PUCSYDIR
 10
0
 20
1
 30
0
  9
$PUCSORTHOREF
  2

  9
$PUCSORTHOVIEW
 70
    0
  9
$PUCSORGTOP
 10
0
 20
0
 30
0
  9
$PUCSORGBOTTOM
 10
0
 20
0
 30
0
  9
$PUCSORGLEFT
 10
0
 20
0
 30
0
  9
$PUCSORGRIGHT
 10
0
 20
0
 30
0
  9
$PUCSORGFRONT
 10
0
 20
0
 30
0
  9
$PUCSORGBACK
 10
0
 20
0
 30
0
  9
$USERI1
 70
    0
  9
$USERI2
 70
    0
  9
$USERI3
 70
    0
  9
$USERI4
 70
    0
  9
$USERI5
 70
    0
  9
$USERR1
 40
0
  9
$USERR2
 40
0
  9
$USERR3
 40
0
  9
$USERR4
 40
0
  9
$USERR5
 40
0
  9
$WORLDVIEW
 70
    1
  9
$SHADEDGE
 70
    3
  9
$SHADEDIF
 70
   70
  9
$TILEMODE
 70
    1
  9
$MAXACTVP
 70
   64
  9
$PINSBASE
 10
1.5
 20
2.210000000000002
 30
0
  9
$PLIMCHECK
 70
    0
  9
$PEXTMIN
 10
0
 20
0
 30
0
  9
$PEXTMAX
 10
0
 20
0
 30
0
  9
$GRIDMODE
 70
    1
  9
$SNAPSTYLE
 70
    0
  9
$GRIDUNIT
 10
0
 20
0
  9
$PLIMMIN
 10
0
 20
0
  9
$PLIMMAX
 10
11
 20
8.5
  9
$UNITMODE
 70
    0
  9
$VISRETAIN
 70
    1
  9
$PLINEGEN
 70
    0
  9
$PSLTSCALE
 70
    1
  9
$TREEDEPTH
 70
 3020
  9
$CMLSTYLE
  2
Standard
  9
$CMLJUST
 70
    0
  9
$CMLSCALE
 40
20
  9
$PROXYGRAPHICS
 70
    1
  9
$MEASUREMENT
 70
    1
  9
$CELWEIGHT
370
   -1
  9
$ENDCAPS
280
    0
  9
$JOINSTYLE
280
    0
  9
$LWDISPLAY
290
    0
  9
$INSUNITS
 70
    1
  9
$HYPERLINKBASE
  1

  9
$STYLESHEET
  1

  9
$XEDIT
290
    1
  9
$CEPSNTYPE
380
    0
  9
$PSTYLEMODE
290
    1
  9
$EXTNAMES
290
    1
  9
$PSVPSCALE
 40
0.02
  9
$OLESTARTUP
290
    0
  9
$SORTENTS
280
  127
  9
$INDEXCTL
280
    0
  9
$HIDETEXT
280
    1
  9
$XCLIPFRAME
290
    0
  9
$HALOGAP
280
    0
  9
$OBSCOLOR
 70
  257
  9
$OBSLTYPE
280
    0
  9
$INTERSECTIONDISPLAY
280
    0
  9
$INTERSECTIONCOLOR
 70
  257
  9
$DIMASSOC
280
    1
  9
$PROJECTNAME
  1

  9
$CAMERADISPLAY
290
    0
  9
$LENSLENGTH
 40
50
  9
$CAMERAHEIGHT
 40
0
  9
$STEPSPERSEC
 40
2
  9
$STEPSIZE
 40
50
  9
$3DDWFPREC
 40
2
  9
$PSOLWIDTH
 40
5
  9
$PSOLHEIGHT
 40
80
  9
$LOFTANG1
 40
1.570796326794897
  9
$LOFTANG2
 40
1.570796326794897
  9
$LOFTMAG1
 40
0
  9
$LOFTMAG2
 40
0
  9
$LOFTPARAM
 70
    7
  9
$LOFTNORMALS
280
    1
  9
$LATITUDE
 40
1
  9
$LONGITUDE
 40
1
  9
$NORTHDIRECTION
 40
0
  9
$TIMEZONE
 70
-8000
  9
$LIGHTGLYPHDISPLAY
280
    1
  9
$TILEMODELIGHTSYNCH
280
    1
  9
$SOLIDHIST
280
    1
  9
$SHOWHIST
280
    1
  9
$DWFFRAME
280
    2
  9
$DGNFRAME
280
    0
  9
$REALWORLDSCALE
290
    1
  9
$INTERFERECOLOR
 62
    1
  9
$CSHADOW
280
    0
  9
$SHADOWPLANELOCATION
 40
0
  0
ENDSEC
  0
SECTION
  2
CLASSES
  0
ENDSEC
  0
SECTION
  2
TABLES
  0
TABLE
  2
VPORT
  5
8
330
0
100
AcDbSymbolTable
 70
    1
  0
VPORT
  5
31
330
2
100
AcDbSymbolTableRecord
100
AcDbViewportTableRecord
  2
*ACTIVE
 70
    0
 10
0
 20
0
 11
1
 21
1
 12
178.9341587912727
 22
134.907469607867
 13
0
 23
0
 14
10
 24
10
 15
10
 25
10
 16
0
 26
0
 36
1
 17
0
 27
0
 37
0
 40
321.9199199924251
 41
1.693851944792974
 42
50
 43
0
 44
0
 50
0
 51
0
 71
    0
 72
  100
 73
    1
 74
    3
 75
    0
 76
    1
 77
    0
 78
    0
281
    0
 65
    1
110
0
120
0
130
0
111
1
121
0
131
0
112
0
122
1
132
0
 79
    0
146
0
348
10020
 60
    7
 61
    5
292
1
282
    1
141
0
142
0
 63
  250
421
3358443
  0
ENDTAB
  0
TABLE
  2
LTYPE
  5
5
330
0
100
AcDbSymbolTable
 70
    4
  0
LTYPE
  5
14
330
5
100
AcDbSymbolTableRecord
100
AcDbLinetypeTableRecord
  2
ByBlock
 70
    0
  3

 72
   65
 73
    0
 40
0
  0
LTYPE
  5
15
330
5
100
AcDbSymbolTableRecord
100
AcDbLinetypeTableRecord
  2
ByLayer
 70
    0
  3

 72
   65
 73
    0
 40
0
  0
LTYPE
  5
16
330
5
100
AcDbSymbolTableRecord
100
AcDbLinetypeTableRecord
  2
Continuous
 70
    0
  3
Solid line
 72
   65
 73
    0
 40
0
  0
LTYPE
  5
32
330
5
100
AcDbSymbolTableRecord
100
AcDbLinetypeTableRecord
  2
DOT
 70
    0
  3
Dot . . . . . . . . . . . . . . . . . . . . . .
 72
   65
 73
    2
 40
6.35
 49
0
 74
    0
 49
-6.35
 74
    0
  0
LTYPE
  5
33
330
5
100
AcDbSymbolTableRecord
100
AcDbLinetypeTableRecord
  2
DOTTINY
 70
    0
  3
Dot (.15x) .....................................
 72
   65
 73
    2
 40
0.9525
 49
0
 74
    0
 49
-0.9525
 74
    0
  0
LTYPE
  5
34
330
5
100
AcDbSymbolTableRecord
100
AcDbLinetypeTableRecord
  2
DOT2
 70
    0
  3
Dot (.5x) .....................................
 72
   65
 73
    2
 40
3.175
 49
0
 74
    0
 49
-3.175
 74
    0
  0
LTYPE
  5
35
330
5
100
AcDbSymbolTableRecord
100
AcDbLinetypeTableRecord
  2
DOTX2
 70
    0
  3
Dot (2x) .  .  .  .  .  .  .  .  .  .  .  .  .
 72
   65
 73
    2
 40
12.7
 49
0
 74
    0
 49
-12.7
 74
    0
  0
LTYPE
  5
36
330
5
100
AcDbSymbolTableRecord
100
AcDbLinetypeTableRecord
  2
DASHED
 70
    0
  3
Dashed _ _ _ _ _ _ _ _ _ _ _ _ _ _ _ _ _
 72
   65
 73
    2
 40
19.05
 49
12.7
 74
    0
 49
-6.35
 74
    0
  0
LTYPE
  5
37
330
5
100
AcDbSymbolTableRecord
100
AcDbLinetypeTableRecord
  2
DASHEDTINY
 70
    0
  3
Dashed (.15x) _ _ _ _ _ _ _ _ _ _ _ _ _ _ _ _ _
 72
   65
 73
    2
 40
2.8575
 49
1.905
 74
    0
 49
-0.9525
 74
    0
  0
LTYPE
  5
38
330
5
100
AcDbSymbolTableRecord
100
AcDbLinetypeTableRecord
  2
DASHED2
 70
    0
  3
Dashed (.5x) _ _ _ _ _ _ _ _ _ _ _ _ _ _ _ _ _
 72
   65
 73
    2
 40
9.524999999999999
 49
6.35
 74
    0
 49
-3.175
 74
    0
  0
LTYPE
  5
39
330
5
100
AcDbSymbolTableRecord
100
AcDbLinetypeTableRecord
  2
DASHEDX2
 70
    0
  3
Dashed (2x) ____  ____  ____  ____  ____  ___
 72
   65
 73
    2
 40
38.09999999999999
 49
25.4
 74
    0
 49
-12.7
 74
    0
  0
LTYPE
  5
3A
330
5
100
AcDbSymbolTableRecord
100
AcDbLinetypeTableRecord
  2
DASHDOT
 70
    0
  3
Dash dot __ . __ . __ . __ . __ . __ . __ . __
 72
   65
 73
    4
 40
25.4
 49
12.7
 74
    0
 49
-6.35
 74
    0
 49
0
 74
    0
 49
-6.35
 74
    0
  0
LTYPE
  5
3B
330
5
100
AcDbSymbolTableRecord
100
AcDbLinetypeTableRecord
  2
DASHDOTTINY
 70
    0
  3
Dash dot (.15x) _._._._._._._._._._._._._._._.
 72
   65
 73
    4
 40
3.81
 49
1.905
 74
    0
 49
-0.9525
 74
    0
 49
0
 74
    0
 49
-0.9525
 74
    0
  0
LTYPE
  5
3C
330
5
100
AcDbSymbolTableRecord
100
AcDbLinetypeTableRecord
  2
DASHDOT2
 70
    0
  3
Dash dot (.5x) _._._._._._._._._._._._._._._.
 72
   65
 73
    4
 40
12.7
 49
6.35
 74
    0
 49
-3.175
 74
    0
 49
0
 74
    0
 49
-3.175
 74
    0
  0
LTYPE
  5
3D
330
5
100
AcDbSymbolTableRecord
100
AcDbLinetypeTableRecord
  2
DASHDOTX2
 70
    0
  3
Dash dot (2x) ____  .  ____  .  ____  .  ___
 72
   65
 73
    4
 40
50.8
 49
25.4
 74
    0
 49
-12.7
 74
    0
 49
0
 74
    0
 49
-12.7
 74
    0
  0
LTYPE
  5
3E
330
5
100
AcDbSymbolTableRecord
100
AcDbLinetypeTableRecord
  2
DIVIDE
 70
    0
  3
Divide ____ . . ____ . . ____ . . ____ . . ____
 72
   65
 73
    6
 40
31.75
 49
12.7
 74
    0
 49
-6.35
 74
    0
 49
0
 74
    0
 49
-6.35
 74
    0
 49
0
 74
    0
 49
-6.35
 74
    0
  0
LTYPE
  5
3F
330
5
100
AcDbSymbolTableRecord
100
AcDbLinetypeTableRecord
  2
DIVIDETINY
 70
    0
  3
Divide (.15x) __..__..__..__..__..__..__..__.._
 72
   65
 73
    6
 40
4.7625
 49
1.905
 74
    0
 49
-0.9525
 74
    0
 49
0
 74
    0
 49
-0.9525
 74
    0
 49
0
 74
    0
 49
-0.9525
 74
    0
  0
LTYPE
  5
40
330
5
100
AcDbSymbolTableRecord
100
AcDbLinetypeTableRecord
  2
DIVIDE2
 70
    0
  3
Divide (.5x) __..__..__..__..__..__..__..__.._
 72
   65
 73
    6
 40
15.875
 49
6.35
 74
    0
 49
-3.175
 74
    0
 49
0
 74
    0
 49
-3.175
 74
    0
 49
0
 74
    0
 49
-3.175
 74
    0
  0
LTYPE
  5
41
330
5
100
AcDbSymbolTableRecord
100
AcDbLinetypeTableRecord
  2
DIVIDEX2
 70
    0
  3
Divide (2x) ________  .  .  ________  .  .  _
 72
   65
 73
    6
 40
63.5
 49
25.4
 74
    0
 49
-12.7
 74
    0
 49
0
 74
    0
 49
-12.7
 74
    0
 49
0
 74
    0
 49
-12.7
 74
    0
  0
LTYPE
  5
42
330
5
100
AcDbSymbolTableRecord
100
AcDbLinetypeTableRecord
  2
BORDER
 70
    0
  3
Border __ __ . __ __ . __ __ . __ __ . __ __ .
 72
   65
 73
    6
 40
44.45
 49
12.7
 74
    0
 49
-6.35
 74
    0
 49
12.7
 74
    0
 49
-6.35
 74
    0
 49
0
 74
    0
 49
-6.35
 74
    0
  0
LTYPE
  5
43
330
5
100
AcDbSymbolTableRecord
100
AcDbLinetypeTableRecord
  2
BORDERTINY
 70
    0
  3
Border (.15x) __.__.__.__.__.__.__.__.__.__.__.
 72
   65
 73
    6
 40
6.6675
 49
1.905
 74
    0
 49
-0.9525
 74
    0
 49
1.905
 74
    0
 49
-0.9525
 74
    0
 49
0
 74
    0
 49
-0.9525
 74
    0
  0
LTYPE
  5
44
330
5
100
AcDbSymbolTableRecord
100
AcDbLinetypeTableRecord
  2
BORDER2
 70
    0
  3
Border (.5x) __.__.__.__.__.__.__.__.__.__.__.
 72
   65
 73
    6
 40
22.225
 49
6.35
 74
    0
 49
-3.175
 74
    0
 49
6.35
 74
    0
 49
-3.175
 74
    0
 49
0
 74
    0
 49
-3.175
 74
    0
  0
LTYPE
  5
45
330
5
100
AcDbSymbolTableRecord
100
AcDbLinetypeTableRecord
  2
BORDERX2
 70
    0
  3
Border (2x) ____  ____  .  ____  ____  .  ___
 72
   65
 73
    6
 40
88.89999999999999
 49
25.4
 74
    0
 49
-12.7
 74
    0
 49
25.4
 74
    0
 49
-12.7
 74
    0
 49
0
 74
    0
 49
-12.7
 74
    0
  0
LTYPE
  5
46
330
5
100
AcDbSymbolTableRecord
100
AcDbLinetypeTableRecord
  2
CENTER
 70
    0
  3
Center ____ _ ____ _ ____ _ ____ _ ____ _ ____
 72
   65
 73
    4
 40
50.8
 49
31.75
 74
    0
 49
-6.35
 74
    0
 49
6.35
 74
    0
 49
-6.35
 74
    0
  0
LTYPE
  5
47
330
5
100
AcDbSymbolTableRecord
100
AcDbLinetypeTableRecord
  2
CENTERTINY
 70
    0
  3
Center (.15x) ___ _ ___ _ ___ _ ___ _ ___ _ ___
 72
   65
 73
    4
 40
7.62
 49
4.7625
 74
    0
 49
-0.9525
 74
    0
 49
0.9525
 74
    0
 49
-0.9525
 74
    0
  0
LTYPE
  5
48
330
5
100
AcDbSymbolTableRecord
100
AcDbLinetypeTableRecord
  2
CENTER2
 70
    0
  3
Center (.5x) ___ _ ___ _ ___ _ ___ _ ___ _ ___
 72
   65
 73
    4
 40
28.575
 49
19.05
 74
    0
 49
-3.175
 74
    0
 49
3.175
 74
    0
 49
-3.175
 74
    0
  0
LTYPE
  5
49
330
5
100
AcDbSymbolTableRecord
100
AcDbLinetypeTableRecord
  2
CENTERX2
 70
    0
  3
Center (2x) ________  __  ________  __  _____
 72
   65
 73
    4
 40
101.6
 49
63.5
 74
    0
 49
-12.7
 74
    0
 49
12.7
 74
    0
 49
-12.7
 74
    0
  0
ENDTAB
  0
TABLE
  2
LAYER
  5
2
330
0
100
AcDbSymbolTable
 70
    1
  0
LAYER
  5
10
330
2
100
AcDbSymbolTableRecord
100
AcDbLayerTableRecord
  2
0
 70
    0
 62
    7
  6
CONTINUOUS
370
    0
390
F
  0
LAYER
  5
4A
330
2
100
AcDbSymbolTableRecord
100
AcDbLayerTableRecord
  2
A_noname
 70
    0
 62
    3
  6
CONTINUOUS
290
0
370
    0
390
F
1001
LibreCad
1070
    1
  0
LAYER
  5
4B
330
2
100
AcDbSymbolTableRecord
100
AcDbLayerTableRecord
  2
Actual_Closets
 70
    0
 62
   56
420
8421376
  6
CONTINUOUS
370
    0
390
F
  0
LAYER
  5
4C
330
2
100
AcDbSymbolTableRecord
100
AcDbLayerTableRecord
  2
Actual_Rooms
 70
    0
 62
  216
420
8388736
  6
CONTINUOUS
370
    0
390
F
  0
LAYER
  5
4D
330
2
100
AcDbSymbolTableRecord
100
AcDbLayerTableRecord
  2
Actual_Walls
 70
    0
 62
    7
  6
CONTINUOUS
370
    0
390
F
  0
LAYER
  5
4E
330
2
100
AcDbSymbolTableRecord
100
AcDbLayerTableRecord
  2
Actual_Walls_Fridge
 70
    0
 62
    5
  6
CONTINUOUS
370
    0
390
F
  0
LAYER
  5
4F
330
2
100
AcDbSymbolTableRecord
100
AcDbLayerTableRecord
  2
Actual_Walls_Laundry
 70
    0
 62
    5
  6
CONTINUOUS
370
    0
390
F
  0
LAYER
  5
50
330
2
100
AcDbSymbolTableRecord
100
AcDbLayerTableRecord
  2
Door
 70
    0
 62
    7
  6
CONTINUOUS
370
   -3
390
F
  0
LAYER
  5
51
330
2
100
AcDbSymbolTableRecord
100
AcDbLayerTableRecord
  2
Original_Closets
 70
    5
 62
   56
420
8421376
  6
CONTINUOUS
290
0
370
    0
390
F
  0
LAYER
  5
52
330
2
100
AcDbSymbolTableRecord
100
AcDbLayerTableRecord
  2
Original_Removed
 70
    5
 62
    2
  6
CONTINUOUS
290
0
370
    0
390
F
  0
LAYER
  5
53
330
2
100
AcDbSymbolTableRecord
100
AcDbLayerTableRecord
  2
Original_Rooms
 70
    5
 62
    6
  6
CONTINUOUS
290
0
370
    0
390
F
  0
LAYER
  5
54
330
2
100
AcDbSymbolTableRecord
100
AcDbLayerTableRecord
  2
Original_Walls
 70
    5
 62
    7
  6
CONTINUOUS
290
0
370
    0
390
F
  0
LAYER
  5
55
330
2
100
AcDbSymbolTableRecord
100
AcDbLayerTableRecord
  2
dim
 70
    0
 62
    1
  6
CONTINUOUS
370
    5
390
F
  0
LAYER
  5
56
330
2
100
AcDbSymbolTableRecord
100
AcDbLayerTableRecord
  2
elev
 70
    0
 62
   13
  6
CONTINUOUS
370
   -3
390
F
  0
LAYER
  5
57
330
2
100
AcDbSymbolTableRecord
100
AcDbLayerTableRecord
  2
frame
 70
    0
 62
    3
  6
CONTINUOUS
370
   18
390
F
  0
LAYER
  5
58
330
2
100
AcDbSymbolTableRecord
100
AcDbLayerTableRecord
  2
labels
 70
    0
 62
    4
  6
CONTINUOUS
370
   -3
390
F
  0
LAYER
  5
59
330
2
100
AcDbSymbolTableRecord
100
AcDbLayerTableRecord
  2
ticks
 70
    0
 62
    6
  6
CONTINUOUS
370
    0
390
F
  0
LAYER
  5
5A
330
2
100
AcDbSymbolTableRecord
100
AcDbLayerTableRecord
  2
wood
 70
    0
 62
    9
  6
CONTINUOUS
370
   -3
390
F
  0
ENDTAB
  0
TABLE
  2
STYLE
  5
3
330
0
100
AcDbSymbolTable
 70
    3
  0
STYLE
  5
5B
330
2
100
AcDbSymbolTableRecord
100
AcDbTextStyleTableRecord
  2
standard
 70
    0
 40
0
 41
1
 50
0
 71
    0
 42
1
  3
standard
  4

  0
STYLE
  5
5C
330
2
100
AcDbSymbolTableRecord
100
AcDbTextStyleTableRecord
  2
iso
 70
    0
 40
0
 41
1
 50
0
 71
    0
 42
1
  3
iso
  4

  0
ENDTAB
  0
TABLE
  2
VIEW
  5
6
330
0
100
AcDbSymbolTable
 70
    0
  0
ENDTAB
  0
TABLE
  2
UCS
  5
7
330
0
100
AcDbSymbolTable
 70
    0
  0
ENDTAB
  0
TABLE
  2
APPID
  5
9
330
0
100
AcDbSymbolTable
 70
    1
  0
APPID
  5
12
330
9
100
AcDbSymbolTableRecord
100
AcDbRegAppTableRecord
  2
ACAD
 70
    0
  0
APPID
  5
5D
330
9
100
AcDbSymbolTableRecord
100
AcDbRegAppTableRecord
  2
LibreCad
 70
    0
  0
ENDTAB
  0
TABLE
  2
DIMSTYLE
  5
A
330
0
100
AcDbSymbolTable
 70
    1
100
AcDbDimStyleTable
 71
    1
  0
DIMSTYLE
105
5E
330
A
100
AcDbSymbolTableRecord
100
AcDbDimStyleTableRecord
  2
Standard
 70
    0
 40
1
 41
6.25
 42
3.125
 43
0.38
 44
3.125
 45
0
 46
0
 47
0
 48
0
 49
0.04
140
6.25
141
0.09
142
0
143
25.4
144
1
145
0
146
1
147
3.125
148
0
 71
    0
 72
    0
 73
    0
 74
    1
 75
    0
 76
    0
 77
    0
 78
    1
 79
    0
170
    0
171
    2
172
    0
173
    0
174
    0
175
    0
176
    0
177
    0
178
    0
179
    0
271
    2
272
    4
273
    2
274
    2
275
    0
276
    0
277
    4
278
    0
279
    0
280
    0
281
    0
282
    0
283
    1
284
    0
285
    0
286
    0
288
    0
289
    3
340
standard
341

371
   -2
372
   -2
  0
ENDTAB
  0
TABLE
  2
BLOCK_RECORD
  5
1
330
0
100
AcDbSymbolTable
 70
    2
  0
BLOCK_RECORD
  5
1F
330
1
100
AcDbSymbolTableRecord
100
AcDbBlockTableRecord
  2
*Model_Space
 70
    0
280
    1
281
    0
  0
BLOCK_RECORD
  5
1E
330
1
100
AcDbSymbolTableRecord
100
AcDbBlockTableRecord
  2
*Paper_Space
 70
    0
280
    1
281
    0
  0
BLOCK_RECORD
  5
5F
330
1
100
AcDbSymbolTableRecord
100
AcDbBlockTableRecord
  2
*D3
 70
    0
280
    1
281
    0
  0
BLOCK_RECORD
  5
62
330
1
100
AcDbSymbolTableRecord
100
AcDbBlockTableRecord
  2
*D9
 70
    0
280
    1
281
    0
  0
BLOCK_RECORD
  5
65
330
1
100
AcDbSymbolTableRecord
100
AcDbBlockTableRecord
  2
*D6
 70
    0
280
    1
281
    0
  0
BLOCK_RECORD
  5
68
330
1
100
AcDbSymbolTableRecord
100
AcDbBlockTableRecord
  2
*D4
 70
    0
280
    1
281
    0
  0
BLOCK_RECORD
  5
6B
330
1
100
AcDbSymbolTableRecord
100
AcDbBlockTableRecord
  2
*D10
 70
    0
280
    1
281
    0
  0
BLOCK_RECORD
  5
6E
330
1
100
AcDbSymbolTableRecord
100
AcDbBlockTableRecord
  2
*D18
 70
    0
280
    1
281
    0
  0
BLOCK_RECORD
  5
71
330
1
100
AcDbSymbolTableRecord
100
AcDbBlockTableRecord
  2
*D12
 70
    0
280
    1
281
    0
  0
BLOCK_RECORD
  5
74
330
1
100
AcDbSymbolTableRecord
100
AcDbBlockTableRecord
  2
*D13
 70
    0
280
    1
281
    0
  0
BLOCK_RECORD
  5
77
330
1
100
AcDbSymbolTableRecord
100
AcDbBlockTableRecord
  2
*D5
 70
    0
280
    1
281
    0
  0
BLOCK_RECORD
  5
7A
330
1
100
AcDbSymbolTableRecord
100
AcDbBlockTableRecord
  2
*D15
 70
    0
280
    1
281
    0
  0
BLOCK_RECORD
  5
7D
330
1
100
AcDbSymbolTableRecord
100
AcDbBlockTableRecord
  2
*D14
 70
    0
280
    1
281
    0
  0
BLOCK_RECORD
  5
80
330
1
100
AcDbSymbolTableRecord
100
AcDbBlockTableRecord
  2
*D7
 70
    0
280
    1
281
    0
  0
BLOCK_RECORD
  5
83
330
1
100
AcDbSymbolTableRecord
100
AcDbBlockTableRecord
  2
*D20
 70
    0
280
    1
281
    0
  0
BLOCK_RECORD
  5
86
330
1
100
AcDbSymbolTableRecord
100
AcDbBlockTableRecord
  2
*D16
 70
    0
280
    1
281
    0
  0
BLOCK_RECORD
  5
89
330
1
100
AcDbSymbolTableRecord
100
AcDbBlockTableRecord
  2
*D2
 70
    0
280
    1
281
    0
  0
BLOCK_RECORD
  5
8C
330
1
100
AcDbSymbolTableRecord
100
AcDbBlockTableRecord
  2
*D19
 70
    0
280
    1
281
    0
  0
BLOCK_RECORD
  5
8F
330
1
100
AcDbSymbolTableRecord
100
AcDbBlockTableRecord
  2
*D17
 70
    0
280
    1
281
    0
  0
BLOCK_RECORD
  5
92
330
1
100
AcDbSymbolTableRecord
100
AcDbBlockTableRecord
  2
*D8
 70
    0
280
    1
281
    0
  0
BLOCK_RECORD
  5
95
330
1
100
AcDbSymbolTableRecord
100
AcDbBlockTableRecord
  2
*D11
 70
    0
280
    1
281
    0
  0
BLOCK_RECORD
  5
98
330
1
100
AcDbSymbolTableRecord
100
AcDbBlockTableRecord
  2
*D1
 70
    0
280
    1
281
    0
  0
BLOCK_RECORD
  5
9B
330
1
100
AcDbSymbolTableRecord
100
AcDbBlockTableRecord
  2
*D21
 70
    0
280
    1
281
    0
  0
BLOCK_RECORD
  5
9E
330
1
100
AcDbSymbolTableRecord
100
AcDbBlockTableRecord
  2
US Projection 3rd Angle-0
 70
    0
280
    1
281
    0
  0
BLOCK_RECORD
  5
A1
330
1
100
AcDbSymbolTableRecord
100
AcDbBlockTableRecord
  2
Title_Block-0
 70
    0
280
    1
281
    0
  0
BLOCK_RECORD
  5
A4
330
1
100
AcDbSymbolTableRecord
100
AcDbBlockTableRecord
  2
Door
 70
    0
280
    1
281
    0
  0
BLOCK_RECORD
  5
A7
330
1
100
AcDbSymbolTableRecord
100
AcDbBlockTableRecord
  2
Room_Labels
 70
    0
280
    1
281
    0
  0
ENDTAB
  0
ENDSEC
  0
SECTION
  2
BLOCKS
  0
BLOCK
  5
20
330
1F
100
AcDbEntity
  8
0
100
AcDbBlockBegin
  2
*Model_Space
 70
    0
 10
0
 20
0
 30
0
  3
*Model_Space
  1

  0
ENDBLK
  5
21
330
1F
100
AcDbEntity
  8
0
100
AcDbBlockEnd
  0
BLOCK
  5
1C
330
1B
100
AcDbEntity
  8
0
100
AcDbBlockBegin
  2
*Paper_Space
 70
    0
 10
0
 20
0
 30
0
  3
*Paper_Space
  1

  0
ENDBLK
  5
1D
330
1F
100
AcDbEntity
  8
0
100
AcDbBlockEnd
  0
BLOCK
  5
60
330
5F
100
AcDbEntity
  8
0
100
AcDbBlockBegin
  2
*D3
 70
    1
 10
0
 20
0
  3
*D3
  1

  0
LINE
  5
AA
100
AcDbEntity
  8
dim
  6
ByBlock
 62
    0
370
   -2
100
AcDbLine
 10
288.6875
 20
-6.5
 11
303.125
 21
-6.5
  0
LINE
  5
AB
100
AcDbEntity
  8
dim
  6
ByBlock
 62
    0
370
   -2
100
AcDbLine
 10
288.6875
 20
189.84375
 11
303.125
 21
189.84375
  0
LINE
  5
AC
100
AcDbEntity
  8
dim
  6
ByBlock
 62
    0
370
   -2
100
AcDbLine
 10
300
 20
-6.5
 11
300
 21
189.84375
  0
SOLID
  5
AD
100
AcDbEntity
  8
dim
  6
ByBlock
 62
    0
370
   -2
100
AcDbTrace
 10
300
 20
-6.5
 30
0
 11
298.9592883555679
 21
-0.2499999999999996
 31
0
 12
301.0407116444321
 22
-0.25
 32
0
 13
301.0407116444321
 23
-0.25
 33
0
  0
SOLID
  5
AE
100
AcDbEntity
  8
dim
  6
ByBlock
 62
    0
370
   -2
100
AcDbTrace
 10
300
 20
189.84375
 30
0
 11
301.0407116444321
 21
183.59375
 31
0
 12
298.9592883555679
 22
183.59375
 32
0
 13
298.9592883555679
 23
183.59375
 33
0
  0
MTEXT
  5
AF
100
AcDbEntity
  8
dim
  6
CONTINUOUS
 62
    0
370
   -2
100
AcDbMText
 10
293.75
 20
91.671875
 30
0
 40
6.25
 41
43.22916666666744
 71
    5
 72
    1
  1
16'-4 3/8"
  7
standard
210
0
220
0
230
1
 50
90
 73
    2
 44
1
  0
ENDBLK
  5
61
330
5F
100
AcDbEntity
  8
0
100
AcDbBlockEnd
  0
BLOCK
  5
63
330
62
100
AcDbEntity
  8
0
100
AcDbBlockBegin
  2
*D9
 70
    1
 10
0
 20
0
  3
*D9
  1

  0
LINE
  5
B0
100
AcDbEntity
  8
dim
  6
ByBlock
 62
    0
370
   -2
100
AcDbLine
 10
49.42498913836494
 20
301.0625
 11
49.42498913836494
 21
271.0625
  0
SOLID
  5
B1
100
AcDbEntity
  8
dim
  6
ByBlock
 62
    0
370
   -2
100
AcDbTrace
 10
49.42498913836494
 20
288.5625
 30
0
 11
48.38427749393284
 21
294.8125
 31
0
 12
50.46570078279704
 22
294.8125
 32
0
 13
50.46570078279704
 23
294.8125
 33
0
  0
SOLID
  5
B2
100
AcDbEntity
  8
dim
  6
ByBlock
 62
    0
370
   -2
100
AcDbTrace
 10
49.42498913836494
 20
283.5625
 30
0
 11
50.46570078279704
 21
277.3125
 31
0
 12
48.38427749393284
 22
277.3125
 32
0
 13
48.38427749393284
 23
277.3125
 33
0
  0
MTEXT
  5
B3
100
AcDbEntity
  8
dim
  6
CONTINUOUS
 62
    0
370
   -2
100
AcDbMText
 10
43.17498913836494
 20
301.5833333333335
 30
0
 40
6.25
 41
19.79166666666705
 71
    5
 72
    1
  1
0'-5"
  7
standard
210
0
220
0
230
1
 50
90
 73
    2
 44
1
  0
LINE
  5
B4
100
AcDbEntity
  8
dim
  6
ByBlock
 62
    0
370
   -2
100
AcDbLine
 10
54.07470653091674
 20
288.5625
 11
46.29998913836494
 21
288.5625
  0
LINE
  5
B5
100
AcDbEntity
  8
dim
  6
ByBlock
 62
    0
370
   -2
100
AcDbLine
 10
54.63004348752759
 20
283.5625
 11
46.29998913836494
 21
283.5625
  0
ENDBLK
  5
64
330
62
100
AcDbEntity
  8
0
100
AcDbBlockEnd
  0
BLOCK
  5
66
330
65
100
AcDbEntity
  8
0
100
AcDbBlockBegin
  2
*D6
 70
    1
 10
0
 20
0
  3
*D6
  1

  0
LINE
  5
B6
100
AcDbEntity
  8
dim
  6
ByBlock
 62
    0
370
   -2
100
AcDbLine
 10
327.125
 20
288
 11
327.1250000000001
 21
288
  0
LINE
  5
B7
100
AcDbEntity
  8
dim
  6
ByBlock
 62
    0
370
   -2
100
AcDbLine
 10
-1.875
 20
288.5625
 11
-1.874999999999943
 21
288.5625
  0
LINE
  5
B8
100
AcDbEntity
  8
dim
  6
ByBlock
 62
    0
370
   -2
100
AcDbLine
 10
324.0000000000001
 20
288
 11
-4.999999999999943
 21
288.5625
  0
SOLID
  5
B9
100
AcDbEntity
  8
dim
  6
ByBlock
 62
    0
370
   -2
100
AcDbTrace
 10
324.0000000000001
 20
288
 30
0
 11
317.748229805251
 21
286.9699756513057
 31
0
 12
317.7517884644873
 22
289.0513958980052
 32
0
 13
317.7517884644873
 23
289.0513958980052
 33
0
  0
SOLID
  5
BA
100
AcDbEntity
  8
dim
  6
ByBlock
 62
    0
370
   -2
100
AcDbTrace
 10
-4.999999999999943
 20
288.5625
 30
0
 11
1.251770194749172
 21
289.5925243486943
 31
0
 12
1.248211535512794
 22
287.5111041019948
 32
0
 13
1.248211535512794
 23
287.5111041019948
 33
0
  0
MTEXT
  5
BB
100
AcDbEntity
  8
dim
  6
CONTINUOUS
 62
    0
370
   -2
100
AcDbMText
 10
159.5106857746554
 20
294.5312408651309
 30
0
 40
6.25
 41
24.65277777777816
 71
    5
 72
    1
  1
27'-5"
  7
standard
210
0
220
0
230
1
 50
359.9020399861012
 73
    2
 44
1
  0
ENDBLK
  5
67
330
65
100
AcDbEntity
  8
0
100
AcDbBlockEnd
  0
BLOCK
  5
69
330
68
100
AcDbEntity
  8
0
100
AcDbBlockBegin
  2
*D4
 70
    1
 10
0
 20
0
  3
*D4
  1

  0
LINE
  5
BC
100
AcDbEntity
  8
dim
  6
ByBlock
 62
    0
370
   -2
100
AcDbLine
 10
288.6875
 20
158.3125
 11
328.125
 21
158.3125
  0
LINE
  5
BD
100
AcDbEntity
  8
dim
  6
ByBlock
 62
    0
370
   -2
100
AcDbLine
 10
288.6875
 20
-6.500000000000001
 11
328.125
 21
-6.500000000000011
  0
LINE
  5
BE
100
AcDbEntity
  8
dim
  6
ByBlock
 62
    0
370
   -2
100
AcDbLine
 10
325
 20
158.3125
 11
325
 21
-6.50000000000001
  0
SOLID
  5
BF
100
AcDbEntity
  8
dim
  6
ByBlock
 62
    0
370
   -2
100
AcDbTrace
 10
325
 20
158.3125
 30
0
 11
326.0407116444321
 21
152.0625
 31
0
 12
323.9592883555679
 22
152.0625
 32
0
 13
323.9592883555679
 23
152.0625
 33
0
  0
SOLID
  5
C0
100
AcDbEntity
  8
dim
  6
ByBlock
 62
    0
370
   -2
100
AcDbTrace
 10
325
 20
-6.50000000000001
 30
0
 11
323.9592883555679
 21
-0.2500000000000094
 31
0
 12
326.0407116444321
 22
-0.2500000000000098
 32
0
 13
326.0407116444321
 23
-0.2500000000000098
 33
0
  0
MTEXT
  5
C1
100
AcDbEntity
  8
dim
  6
CONTINUOUS
 62
    0
370
   -2
100
AcDbMText
 10
318.75
 20
75.90625
 30
0
 40
6.25
 41
43.22916666666744
 71
    5
 72
    1
  1
13'-8 3/4"
  7
standard
210
0
220
0
230
1
 50
90
 73
    2
 44
1
  0
ENDBLK
  5
6A
330
68
100
AcDbEntity
  8
0
100
AcDbBlockEnd
  0
BLOCK
  5
6C
330
6B
100
AcDbEntity
  8
0
100
AcDbBlockBegin
  2
*D10
 70
    1
 10
0
 20
0
  3
*D10
  1

  0
LINE
  5
C2
100
AcDbEntity
  8
dim
  6
ByBlock
 62
    0
370
   -2
100
AcDbLine
 10
189.3699022042972
 20
12.5
 11
189.3699022042972
 21
-19
  0
SOLID
  5
C3
100
AcDbEntity
  8
dim
  6
ByBlock
 62
    0
370
   -2
100
AcDbTrace
 10
189.3699022042972
 20
0
 30
0
 11
188.3291905598651
 21
6.25
 31
0
 12
190.4106138487293
 22
6.25
 32
0
 13
190.4106138487293
 23
6.25
 33
0
  0
SOLID
  5
C4
100
AcDbEntity
  8
dim
  6
ByBlock
 62
    0
370
   -2
100
AcDbTrace
 10
189.3699022042972
 20
-6.5
 30
0
 11
190.4106138487293
 21
-12.75
 31
0
 12
188.3291905598651
 22
-12.75
 32
0
 13
188.3291905598651
 23
-12.75
 33
0
  0
MTEXT
  5
C5
100
AcDbEntity
  8
dim
  6
CONTINUOUS
 62
    0
370
   -2
100
AcDbMText
 10
183.1199022042972
 20
21.96180555555575
 30
0
 40
6.25
 41
37.6736111111115
 71
    5
 72
    1
  1
0'-6 1/2"
  7
standard
210
0
220
0
230
1
 50
90
 73
    2
 44
1
  0
LINE
  5
C6
100
AcDbEntity
  8
dim
  6
ByBlock
 62
    0
370
   -2
100
AcDbLine
 10
173.0581087229177
 20
0
 11
192.4949022042972
 21
0
  0
LINE
  5
C7
100
AcDbEntity
  8
dim
  6
ByBlock
 62
    0
370
   -2
100
AcDbLine
 10
175.2794565493611
 20
-6.5
 11
192.4949022042972
 21
-6.5
  0
ENDBLK
  5
6D
330
6B
100
AcDbEntity
  8
0
100
AcDbBlockEnd
  0
BLOCK
  5
6F
330
6E
100
AcDbEntity
  8
0
100
AcDbBlockBegin
  2
*D18
 70
    1
 10
0
 20
0
  3
*D18
  1

  0
LINE
  5
C8
100
AcDbEntity
  8
dim
  6
ByBlock
 62
    0
370
   -2
100
AcDbLine
 10
-17.5
 20
72
 11
12.5
 21
72
  0
SOLID
  5
C9
100
AcDbEntity
  8
dim
  6
ByBlock
 62
    0
370
   -2
100
AcDbTrace
 10
-5
 20
72
 30
0
 11
-11.25
 21
70.95928835556789
 31
0
 12
-11.25
 22
73.04071164443211
 32
0
 13
-11.25
 23
73.04071164443211
 33
0
  0
SOLID
  5
CA
100
AcDbEntity
  8
dim
  6
ByBlock
 62
    0
370
   -2
100
AcDbTrace
 10
0
 20
72
 30
0
 11
6.25
 21
73.04071164443211
 31
0
 12
6.25
 22
70.95928835556789
 32
0
 13
6.25
 23
70.95928835556789
 33
0
  0
MTEXT
  5
CB
100
AcDbEntity
  8
dim
  6
CONTINUOUS
 62
    0
370
   -2
100
AcDbMText
 10
13.02083333333353
 20
78.25
 30
0
 40
6.25
 41
19.79166666666705
 71
    5
 72
    1
  1
0'-5"
  7
standard
210
0
220
0
230
1
 50
0
 73
    2
 44
1
  0
LINE
  5
CC
100
AcDbEntity
  8
dim
  6
ByBlock
 62
    0
370
   -2
100
AcDbLine
 10
-5.000000000000001
 20
69.17570975990476
 11
-5.000000000000001
 21
68.875
  0
LINE
  5
CD
100
AcDbEntity
  8
dim
  6
ByBlock
 62
    0
370
   -2
100
AcDbLine
 10
-5.740342283542393e-016
 20
69.17570975990476
 11
-5.740342283542393e-016
 21
68.875
  0
ENDBLK
  5
70
330
6E
100
AcDbEntity
  8
0
100
AcDbBlockEnd
  0
BLOCK
  5
72
330
71
100
AcDbEntity
  8
0
100
AcDbBlockBegin
  2
*D12
 70
    1
 10
0
 20
0
  3
*D12
  1

  0
LINE
  5
CE
100
AcDbEntity
  8
dim
  6
ByBlock
 62
    0
370
   -2
100
AcDbLine
 10
319.3187500512342
 20
176.0625
 11
319.3187500512342
 21
146.3263695907009
  0
SOLID
  5
CF
100
AcDbEntity
  8
dim
  6
ByBlock
 62
    0
370
   -2
100
AcDbTrace
 10
319.3187500512342
 20
163.5625
 30
0
 11
318.2780384068021
 21
169.8125
 31
0
 12
320.3594616956663
 22
169.8125
 32
0
 13
320.3594616956663
 23
169.8125
 33
0
  0
SOLID
  5
D0
100
AcDbEntity
  8
dim
  6
ByBlock
 62
    0
370
   -2
100
AcDbTrace
 10
319.3187500512342
 20
158.8263695907009
 30
0
 11
320.3594616956663
 21
152.5763695907009
 31
0
 12
318.2780384068021
 22
152.5763695907009
 32
0
 13
318.2780384068021
 23
152.5763695907009
 33
0
  0
MTEXT
  5
D1
100
AcDbEntity
  8
dim
  6
CONTINUOUS
 62
    0
370
   -2
100
AcDbMText
 10
313.0687500512342
 20
186.9131944444446
 30
0
 40
6.25
 41
40.45138888888928
 71
    5
 72
    1
  1
0'-4 3/4"
  7
standard
210
0
220
0
230
1
 50
90
 73
    2
 44
1
  0
LINE
  5
D2
100
AcDbEntity
  8
dim
  6
ByBlock
 62
    0
370
   -2
100
AcDbLine
 10
310.2263370057957
 20
163.5625
 11
322.4437500512342
 21
163.5625
  0
LINE
  5
D3
100
AcDbEntity
  8
dim
  6
ByBlock
 62
    0
370
   -2
100
AcDbLine
 10
310.7816739624066
 20
158.8263695907009
 11
322.4437500512342
 21
158.8263695907009
  0
ENDBLK
  5
73
330
71
100
AcDbEntity
  8
0
100
AcDbBlockEnd
  0
BLOCK
  5
75
330
74
100
AcDbEntity
  8
0
100
AcDbBlockBegin
  2
*D13
 70
    1
 10
0
 20
0
  3
*D13
  1

  0
LINE
  5
D4
100
AcDbEntity
  8
dim
  6
ByBlock
 62
    0
370
   -2
100
AcDbLine
 10
80.125
 20
264
 11
108.5
 21
264
  0
SOLID
  5
D5
100
AcDbEntity
  8
dim
  6
ByBlock
 62
    0
370
   -2
100
AcDbTrace
 10
92.625
 20
264
 30
0
 11
86.375
 21
262.9592883555679
 31
0
 12
86.375
 22
265.0407116444321
 32
0
 13
86.375
 23
265.0407116444321
 33
0
  0
SOLID
  5
D6
100
AcDbEntity
  8
dim
  6
ByBlock
 62
    0
370
   -2
100
AcDbTrace
 10
96
 20
264
 30
0
 11
102.25
 21
265.0407116444321
 31
0
 12
102.25
 22
262.9592883555679
 32
0
 13
102.25
 23
262.9592883555679
 33
0
  0
MTEXT
  5
D7
100
AcDbEntity
  8
dim
  6
CONTINUOUS
 62
    0
370
   -2
100
AcDbMText
 10
118.6562500000004
 20
270.25
 30
0
 40
6.25
 41
39.06250000000077
 71
    5
 72
    1
  1
0'-3 3/8"
  7
standard
210
0
220
0
230
1
 50
0
 73
    2
 44
1
  0
LINE
  5
D8
100
AcDbEntity
  8
dim
  6
ByBlock
 62
    0
370
   -2
100
AcDbLine
 10
92.625
 20
260.4185872461415
 11
92.625
 21
267.125
  0
LINE
  5
D9
100
AcDbEntity
  8
dim
  6
ByBlock
 62
    0
370
   -2
100
AcDbLine
 10
96
 20
260.4185872461415
 11
96
 21
267.125
  0
ENDBLK
  5
76
330
74
100
AcDbEntity
  8
0
100
AcDbBlockEnd
  0
BLOCK
  5
78
330
77
100
AcDbEntity
  8
0
100
AcDbBlockBegin
  2
*D5
 70
    1
 10
0
 20
0
  3
*D5
  1

  0
LINE
  5
DA
100
AcDbEntity
  8
dim
  6
ByBlock
 62
    0
370
   -2
100
AcDbLine
 10
327.4375
 20
158.3125
 11
351.125
 21
158.3125
  0
LINE
  5
DB
100
AcDbEntity
  8
dim
  6
ByBlock
 62
    0
370
   -2
100
AcDbLine
 10
327.4375
 20
288.5625
 11
351.125
 21
288.5625
  0
LINE
  5
DC
100
AcDbEntity
  8
dim
  6
ByBlock
 62
    0
370
   -2
100
AcDbLine
 10
348
 20
158.3125
 11
348
 21
288.5625
  0
SOLID
  5
DD
100
AcDbEntity
  8
dim
  6
ByBlock
 62
    0
370
   -2
100
AcDbTrace
 10
348
 20
158.3125
 30
0
 11
346.9592883555679
 21
164.5625
 31
0
 12
349.0407116444321
 22
164.5625
 32
0
 13
349.0407116444321
 23
164.5625
 33
0
  0
SOLID
  5
DE
100
AcDbEntity
  8
dim
  6
ByBlock
 62
    0
370
   -2
100
AcDbTrace
 10
348
 20
288.5625
 30
0
 11
349.0407116444321
 21
282.3125
 31
0
 12
346.9592883555679
 22
282.3125
 32
0
 13
346.9592883555679
 23
282.3125
 33
0
  0
MTEXT
  5
DF
100
AcDbEntity
  8
dim
  6
CONTINUOUS
 62
    0
370
   -2
100
AcDbMText
 10
341.75
 20
223.4375
 30
0
 40
6.25
 41
45.3125
 71
    5
 72
    1
  1
10'-10 1/4"
  7
standard
210
0
220
0
230
1
 50
90
 73
    2
 44
1
  0
ENDBLK
  5
79
330
77
100
AcDbEntity
  8
0
100
AcDbBlockEnd
  0
BLOCK
  5
7B
330
7A
100
AcDbEntity
  8
0
100
AcDbBlockBegin
  2
*D15
 70
    1
 10
0
 20
0
  3
*D15
  1

  0
LINE
  5
E0
100
AcDbEntity
  8
dim
  6
ByBlock
 62
    0
370
   -2
100
AcDbLine
 10
144
 20
204
 11
144
 21
176.5
  0
SOLID
  5
E1
100
AcDbEntity
  8
dim
  6
ByBlock
 62
    0
370
   -2
100
AcDbTrace
 10
144
 20
191.5
 30
0
 11
142.9592883555679
 21
197.75
 31
0
 12
145.0407116444321
 22
197.75
 32
0
 13
145.0407116444321
 23
197.75
 33
0
  0
SOLID
  5
E2
100
AcDbEntity
  8
dim
  6
ByBlock
 62
    0
370
   -2
100
AcDbTrace
 10
144
 20
189
 30
0
 11
145.0407116444321
 21
182.75
 31
0
 12
142.9592883555679
 22
182.75
 32
0
 13
142.9592883555679
 23
182.75
 33
0
  0
MTEXT
  5
E3
100
AcDbEntity
  8
dim
  6
CONTINUOUS
 62
    0
370
   -2
100
AcDbMText
 10
137.75
 20
213.4618055555555
 30
0
 40
6.25
 41
37.67361111111111
 71
    5
 72
    1
  1
0'-2 1/2"
  7
standard
210
0
220
0
230
1
 50
90
 73
    2
 44
1
  0
LINE
  5
E4
100
AcDbEntity
  8
dim
  6
ByBlock
 62
    0
370
   -2
100
AcDbLine
 10
142.6881632588023
 20
191.5
 11
140.875
 21
191.5
  0
LINE
  5
E5
100
AcDbEntity
  8
dim
  6
ByBlock
 62
    0
370
   -2
100
AcDbLine
 10
143.4959924181309
 20
189
 11
140.875
 21
189
  0
ENDBLK
  5
7C
330
7A
100
AcDbEntity
  8
0
100
AcDbBlockEnd
  0
BLOCK
  5
7E
330
7D
100
AcDbEntity
  8
0
100
AcDbBlockBegin
  2
*D14
 70
    1
 10
0
 20
0
  3
*D14
  1

  0
LINE
  5
E6
100
AcDbEntity
  8
dim
  6
ByBlock
 62
    0
370
   -2
100
AcDbLine
 10
143.125
 20
252
 11
173.375
 21
252
  0
SOLID
  5
E7
100
AcDbEntity
  8
dim
  6
ByBlock
 62
    0
370
   -2
100
AcDbTrace
 10
155.625
 20
252
 30
0
 11
149.375
 21
250.9592883555679
 31
0
 12
149.375
 22
253.0407116444321
 32
0
 13
149.375
 23
253.0407116444321
 33
0
  0
SOLID
  5
E8
100
AcDbEntity
  8
dim
  6
ByBlock
 62
    0
370
   -2
100
AcDbTrace
 10
160.875
 20
252
 30
0
 11
167.125
 21
253.0407116444321
 31
0
 12
167.125
 22
250.9592883555679
 32
0
 13
167.125
 23
250.9592883555679
 33
0
  0
MTEXT
  5
E9
100
AcDbEntity
  8
dim
  6
CONTINUOUS
 62
    0
370
   -2
100
AcDbMText
 10
183.184027777778
 20
258.25
 30
0
 40
6.25
 41
38.36805555555594
 71
    5
 72
    1
  1
0'-5 1/4"
  7
standard
210
0
220
0
230
1
 50
0
 73
    2
 44
1
  0
LINE
  5
EA
100
AcDbEntity
  8
dim
  6
ByBlock
 62
    0
370
   -2
100
AcDbLine
 10
155.625
 20
250.3207227545347
 11
155.625
 21
255.125
  0
LINE
  5
EB
100
AcDbEntity
  8
dim
  6
ByBlock
 62
    0
370
   -2
100
AcDbLine
 10
160.875
 20
251.1285519138632
 11
160.875
 21
255.125
  0
ENDBLK
  5
7F
330
7D
100
AcDbEntity
  8
0
100
AcDbBlockEnd
  0
BLOCK
  5
81
330
80
100
AcDbEntity
  8
0
100
AcDbBlockBegin
  2
*D7
 70
    1
 10
0
 20
0
  3
*D7
  1

  0
LINE
  5
EC
100
AcDbEntity
  8
dim
  6
ByBlock
 62
    0
370
   -2
100
AcDbLine
 10
-17.5
 20
201.5873152497357
 11
12.5
 21
201.5873152497357
  0
SOLID
  5
ED
100
AcDbEntity
  8
dim
  6
ByBlock
 62
    0
370
   -2
100
AcDbTrace
 10
-5
 20
201.5873152497357
 30
0
 11
-11.25
 21
200.5466036053036
 31
0
 12
-11.25
 22
202.6280268941678
 32
0
 13
-11.25
 23
202.6280268941678
 33
0
  0
SOLID
  5
EE
100
AcDbEntity
  8
dim
  6
ByBlock
 62
    0
370
   -2
100
AcDbTrace
 10
0
 20
201.5873152497357
 30
0
 11
6.25
 21
202.6280268941678
 31
0
 12
6.25
 22
200.5466036053036
 32
0
 13
6.25
 23
200.5466036053036
 33
0
  0
MTEXT
  5
EF
100
AcDbEntity
  8
dim
  6
CONTINUOUS
 62
    0
370
   -2
100
AcDbMText
 10
13.02083333333353
 20
207.8373152497357
 30
0
 40
6.25
 41
19.79166666666705
 71
    5
 72
    1
  1
0'-5"
  7
standard
210
0
220
0
230
1
 50
0
 73
    2
 44
1
  0
LINE
  5
F0
100
AcDbEntity
  8
dim
  6
ByBlock
 62
    0
370
   -2
100
AcDbLine
 10
-5
 20
198.6036087270165
 11
-5
 21
204.7123152497357
  0
LINE
  5
F1
100
AcDbEntity
  8
dim
  6
ByBlock
 62
    0
370
   -2
100
AcDbLine
 10
1.913447427847464e-016
 20
198.6036087270165
 11
1.913447427847464e-016
 21
204.7123152497357
  0
ENDBLK
  5
82
330
80
100
AcDbEntity
  8
0
100
AcDbBlockEnd
  0
BLOCK
  5
84
330
83
100
AcDbEntity
  8
0
100
AcDbBlockBegin
  2
*D20
 70
    1
 10
0
 20
0
  3
*D20
  1

  0
LINE
  5
F2
100
AcDbEntity
  8
dim
  6
ByBlock
 62
    0
370
   -2
100
AcDbLine
 10
24
 20
141.1562499999999
 11
24
 21
111.5625
  0
SOLID
  5
F3
100
AcDbEntity
  8
dim
  6
ByBlock
 62
    0
370
   -2
100
AcDbTrace
 10
24
 20
128.6562499999999
 30
0
 11
22.9592883555679
 21
134.9062499999999
 31
0
 12
25.0407116444321
 22
134.9062499999999
 32
0
 13
25.0407116444321
 23
134.9062499999999
 33
0
  0
SOLID
  5
F4
100
AcDbEntity
  8
dim
  6
ByBlock
 62
    0
370
   -2
100
AcDbTrace
 10
24
 20
124.0625
 30
0
 11
25.0407116444321
 21
117.8125
 31
0
 12
22.9592883555679
 22
117.8125
 32
0
 13
22.9592883555679
 23
117.8125
 33
0
  0
MTEXT
  5
F5
100
AcDbEntity
  8
dim
  6
CONTINUOUS
 62
    0
370
   -2
100
AcDbMText
 10
17.75
 20
151.6597222222223
 30
0
 40
6.25
 41
39.75694444444483
 71
    5
 72
    1
  1
0'-4 5/8"
  7
standard
210
0
220
0
230
1
 50
90
 73
    2
 44
1
  0
LINE
  5
F6
100
AcDbEntity
  8
dim
  6
ByBlock
 62
    0
370
   -2
100
AcDbLine
 10
17.66592486791381
 20
128.6562499999999
 11
27.125
 21
128.6562499999999
  0
LINE
  5
F7
100
AcDbEntity
  8
dim
  6
ByBlock
 62
    0
370
   -2
100
AcDbLine
 10
17.66592486791381
 20
124.0625
 11
27.125
 21
124.0625
  0
ENDBLK
  5
85
330
83
100
AcDbEntity
  8
0
100
AcDbBlockEnd
  0
BLOCK
  5
87
330
86
100
AcDbEntity
  8
0
100
AcDbBlockBegin
  2
*D16
 70
    1
 10
0
 20
0
  3
*D16
  1

  0
LINE
  5
F8
100
AcDbEntity
  8
dim
  6
ByBlock
 62
    0
370
   -2
100
AcDbLine
 10
111.625
 20
168
 11
139.375
 21
168
  0
SOLID
  5
F9
100
AcDbEntity
  8
dim
  6
ByBlock
 62
    0
370
   -2
100
AcDbTrace
 10
124.125
 20
168
 30
0
 11
117.875
 21
166.9592883555679
 31
0
 12
117.875
 22
169.0407116444321
 32
0
 13
117.875
 23
169.0407116444321
 33
0
  0
SOLID
  5
FA
100
AcDbEntity
  8
dim
  6
ByBlock
 62
    0
370
   -2
100
AcDbTrace
 10
126.875
 20
168
 30
0
 11
133.125
 21
169.0407116444321
 31
0
 12
133.125
 22
166.9592883555679
 32
0
 13
133.125
 23
166.9592883555679
 33
0
  0
MTEXT
  5
FB
100
AcDbEntity
  8
dim
  6
CONTINUOUS
 62
    0
370
   -2
100
AcDbMText
 10
149.8784722222224
 20
174.25
 30
0
 40
6.25
 41
39.75694444444483
 71
    5
 72
    1
  1
0'-2 3/4"
  7
standard
210
0
220
0
230
1
 50
0
 73
    2
 44
1
  0
LINE
  5
FC
100
AcDbEntity
  8
dim
  6
ByBlock
 62
    0
370
   -2
100
AcDbLine
 10
124.125
 20
170.749550560673
 11
124.125
 21
171.125
  0
LINE
  5
FD
100
AcDbEntity
  8
dim
  6
ByBlock
 62
    0
370
   -2
100
AcDbLine
 10
126.875
 20
164.9034651403373
 11
126.875
 21
164.875
  0
ENDBLK
  5
88
330
86
100
AcDbEntity
  8
0
100
AcDbBlockEnd
  0
BLOCK
  5
8A
330
89
100
AcDbEntity
  8
0
100
AcDbBlockBegin
  2
*D2
 70
    1
 10
0
 20
0
  3
*D2
  1

  0
LINE
  5
FE
100
AcDbEntity
  8
dim
  6
ByBlock
 62
    0
370
   -2
100
AcDbLine
 10
285.5625
 20
-9.625
 11
285.5625
 21
-27.12499999999999
  0
LINE
  5
FF
100
AcDbEntity
  8
dim
  6
ByBlock
 62
    0
370
   -2
100
AcDbLine
 10
-5.000000000000001
 20
-9.625
 11
-5.000000000000004
 21
-27.12499999999999
  0
LINE
  5
100
100
AcDbEntity
  8
dim
  6
ByBlock
 62
    0
370
   -2
100
AcDbLine
 10
285.5625
 20
-23.99999999999999
 11
-5.000000000000004
 21
-23.99999999999999
  0
SOLID
  5
101
100
AcDbEntity
  8
dim
  6
ByBlock
 62
    0
370
   -2
100
AcDbTrace
 10
285.5625
 20
-23.99999999999999
 30
0
 11
279.3125
 21
-25.04071164443209
 31
0
 12
279.3125
 22
-22.95928835556789
 32
0
 13
279.3125
 23
-22.95928835556789
 33
0
  0
SOLID
  5
102
100
AcDbEntity
  8
dim
  6
ByBlock
 62
    0
370
   -2
100
AcDbTrace
 10
-5.000000000000004
 20
-23.99999999999999
 30
0
 11
1.249999999999997
 21
-22.95928835556789
 31
0
 12
1.249999999999996
 22
-25.04071164443209
 32
0
 13
1.249999999999996
 23
-25.04071164443209
 33
0
  0
MTEXT
  5
103
100
AcDbEntity
  8
dim
  6
CONTINUOUS
 62
    0
370
   -2
100
AcDbMText
 10
140.28125
 20
-17.74999999999999
 30
0
 40
6.25
 41
43.22916666666667
 71
    5
 72
    1
  1
24'-2 1/2"
  7
standard
210
0
220
0
230
1
 50
360
 73
    2
 44
1
  0
ENDBLK
  5
8B
330
89
100
AcDbEntity
  8
0
100
AcDbBlockEnd
  0
BLOCK
  5
8D
330
8C
100
AcDbEntity
  8
0
100
AcDbBlockBegin
  2
*D19
 70
    1
 10
0
 20
0
  3
*D19
  1

  0
LINE
  5
104
100
AcDbEntity
  8
dim
  6
ByBlock
 62
    0
370
   -2
100
AcDbLine
 10
60
 20
168.9999999999999
 11
60
 21
140.84375
  0
SOLID
  5
105
100
AcDbEntity
  8
dim
  6
ByBlock
 62
    0
370
   -2
100
AcDbTrace
 10
60
 20
156.4999999999999
 30
0
 11
58.9592883555679
 21
162.7499999999999
 31
0
 12
61.0407116444321
 22
162.7499999999999
 32
0
 13
61.0407116444321
 23
162.7499999999999
 33
0
  0
SOLID
  5
106
100
AcDbEntity
  8
dim
  6
ByBlock
 62
    0
370
   -2
100
AcDbTrace
 10
60
 20
153.34375
 30
0
 11
61.0407116444321
 21
147.09375
 31
0
 12
58.9592883555679
 22
147.09375
 32
0
 13
58.9592883555679
 23
147.09375
 33
0
  0
MTEXT
  5
107
100
AcDbEntity
  8
dim
  6
CONTINUOUS
 62
    0
370
   -2
100
AcDbMText
 10
53.75
 20
178.4618055555556
 30
0
 40
6.25
 41
37.6736111111115
 71
    5
 72
    1
  1
0'-3 1/8"
  7
standard
210
0
220
0
230
1
 50
90
 73
    2
 44
1
  0
LINE
  5
108
100
AcDbEntity
  8
dim
  6
ByBlock
 62
    0
370
   -2
100
AcDbLine
 10
60.48087031232668
 20
156.4999999999999
 11
63.125
 21
156.4999999999999
  0
LINE
  5
109
100
AcDbEntity
  8
dim
  6
ByBlock
 62
    0
370
   -2
100
AcDbLine
 10
60.88478489199095
 20
153.34375
 11
63.125
 21
153.34375
  0
ENDBLK
  5
8E
330
8C
100
AcDbEntity
  8
0
100
AcDbBlockEnd
  0
BLOCK
  5
90
330
8F
100
AcDbEntity
  8
0
100
AcDbBlockBegin
  2
*D17
 70
    1
 10
0
 20
0
  3
*D17
  1

  0
LINE
  5
10A
100
AcDbEntity
  8
dim
  6
ByBlock
 62
    0
370
   -2
100
AcDbLine
 10
80.125
 20
156
 11
108.5
 21
156
  0
SOLID
  5
10B
100
AcDbEntity
  8
dim
  6
ByBlock
 62
    0
370
   -2
100
AcDbTrace
 10
92.625
 20
156
 30
0
 11
86.375
 21
154.9592883555679
 31
0
 12
86.375
 22
157.0407116444321
 32
0
 13
86.375
 23
157.0407116444321
 33
0
  0
SOLID
  5
10C
100
AcDbEntity
  8
dim
  6
ByBlock
 62
    0
370
   -2
100
AcDbTrace
 10
96
 20
156
 30
0
 11
102.25
 21
157.0407116444321
 31
0
 12
102.25
 22
154.9592883555679
 32
0
 13
102.25
 23
154.9592883555679
 33
0
  0
MTEXT
  5
10D
100
AcDbEntity
  8
dim
  6
CONTINUOUS
 62
    0
370
   -2
100
AcDbMText
 10
118.6562500000004
 20
162.25
 30
0
 40
6.25
 41
39.06250000000077
 71
    5
 72
    1
  1
0'-3 3/8"
  7
standard
210
0
220
0
230
1
 50
0
 73
    2
 44
1
  0
LINE
  5
10E
100
AcDbEntity
  8
dim
  6
ByBlock
 62
    0
370
   -2
100
AcDbLine
 10
92.625
 20
160.4604047640303
 11
92.625
 21
152.875
  0
LINE
  5
10F
100
AcDbEntity
  8
dim
  6
ByBlock
 62
    0
370
   -2
100
AcDbLine
 10
96
 20
160.8643193436946
 11
96
 21
152.875
  0
ENDBLK
  5
91
330
8F
100
AcDbEntity
  8
0
100
AcDbBlockEnd
  0
BLOCK
  5
93
330
92
100
AcDbEntity
  8
0
100
AcDbBlockBegin
  2
*D8
 70
    1
 10
0
 20
0
  3
*D8
  1

  0
LINE
  5
110
100
AcDbEntity
  8
dim
  6
ByBlock
 62
    0
370
   -2
100
AcDbLine
 10
267.8125
 20
60.53172827058179
 11
298.0625
 21
60.53172827058179
  0
SOLID
  5
111
100
AcDbEntity
  8
dim
  6
ByBlock
 62
    0
370
   -2
100
AcDbTrace
 10
280.3125
 20
60.53172827058179
 30
0
 11
274.0625
 21
59.49101662614969
 31
0
 12
274.0625
 22
61.57243991501389
 32
0
 13
274.0625
 23
61.57243991501389
 33
0
  0
SOLID
  5
112
100
AcDbEntity
  8
dim
  6
ByBlock
 62
    0
370
   -2
100
AcDbTrace
 10
285.5625
 20
60.53172827058179
 30
0
 11
291.8125
 21
61.57243991501389
 31
0
 12
291.8125
 22
59.49101662614969
 32
0
 13
291.8125
 23
59.49101662614969
 33
0
  0
MTEXT
  5
113
100
AcDbEntity
  8
dim
  6
CONTINUOUS
 62
    0
370
   -2
100
AcDbMText
 10
307.8715277777779
 20
66.78172827058179
 30
0
 40
6.25
 41
38.36805555555594
 71
    5
 72
    1
  1
0'-5 1/4"
  7
standard
210
0
220
0
230
1
 50
0
 73
    2
 44
1
  0
LINE
  5
114
100
AcDbEntity
  8
dim
  6
ByBlock
 62
    0
370
   -2
100
AcDbLine
 10
280.3125
 20
56.43734783464085
 11
280.3125
 21
63.65672827058179
  0
LINE
  5
115
100
AcDbEntity
  8
dim
  6
ByBlock
 62
    0
370
   -2
100
AcDbLine
 10
285.5625
 20
56.99268479125169
 11
285.5625
 21
63.65672827058179
  0
ENDBLK
  5
94
330
92
100
AcDbEntity
  8
0
100
AcDbBlockEnd
  0
BLOCK
  5
96
330
95
100
AcDbEntity
  8
0
100
AcDbBlockBegin
  2
*D11
 70
    1
 10
0
 20
0
  3
*D11
  1

  0
LINE
  5
116
100
AcDbEntity
  8
dim
  6
ByBlock
 62
    0
370
   -2
100
AcDbLine
 10
306.0625
 20
271.004434826091
 11
336.8125
 21
271.004434826091
  0
SOLID
  5
117
100
AcDbEntity
  8
dim
  6
ByBlock
 62
    0
370
   -2
100
AcDbTrace
 10
318.5625
 20
271.004434826091
 30
0
 11
312.3125
 21
269.9637231816589
 31
0
 12
312.3125
 22
272.0451464705232
 32
0
 13
312.3125
 23
272.0451464705232
 33
0
  0
SOLID
  5
118
100
AcDbEntity
  8
dim
  6
ByBlock
 62
    0
370
   -2
100
AcDbTrace
 10
324.3125
 20
271.004434826091
 30
0
 11
330.5625
 21
272.0451464705232
 31
0
 12
330.5625
 22
269.9637231816589
 32
0
 13
330.5625
 23
269.9637231816589
 33
0
  0
MTEXT
  5
119
100
AcDbEntity
  8
dim
  6
CONTINUOUS
 62
    0
370
   -2
100
AcDbMText
 10
347.3159722222226
 20
277.254434826091
 30
0
 40
6.25
 41
39.75694444444522
 71
    5
 72
    1
  1
0'-5 3/4"
  7
standard
210
0
220
0
230
1
 50
0
 73
    2
 44
1
  0
LINE
  5
11A
100
AcDbEntity
  8
dim
  6
ByBlock
 62
    0
370
   -2
100
AcDbLine
 10
318.5625
 20
270.7974130864259
 11
318.5625
 21
274.129434826091
  0
LINE
  5
11B
100
AcDbEntity
  8
dim
  6
ByBlock
 62
    0
370
   -2
100
AcDbLine
 10
324.3125
 20
271.3527500430367
 11
324.3125
 21
274.129434826091
  0
ENDBLK
  5
97
330
95
100
AcDbEntity
  8
0
100
AcDbBlockEnd
  0
BLOCK
  5
99
330
98
100
AcDbEntity
  8
0
100
AcDbBlockBegin
  2
*D1
 70
    1
 10
0
 20
0
  3
*D1
  1

  0
LINE
  5
11C
100
AcDbEntity
  8
dim
  6
ByBlock
 62
    0
370
   -2
100
AcDbLine
 10
-1.875
 20
288.5625
 11
-1.875
 21
288.5625
  0
LINE
  5
11D
100
AcDbEntity
  8
dim
  6
ByBlock
 62
    0
370
   -2
100
AcDbLine
 10
-1.875
 20
-6.5
 11
-1.875
 21
-6.5
  0
LINE
  5
11E
100
AcDbEntity
  8
dim
  6
ByBlock
 62
    0
370
   -2
100
AcDbLine
 10
-5
 20
288.5625
 11
-5
 21
-6.5
  0
SOLID
  5
11F
100
AcDbEntity
  8
dim
  6
ByBlock
 62
    0
370
   -2
100
AcDbTrace
 10
-5
 20
288.5625
 30
0
 11
-3.959288355567899
 21
282.3125
 31
0
 12
-6.040711644432101
 22
282.3125
 32
0
 13
-6.040711644432101
 23
282.3125
 33
0
  0
SOLID
  5
120
100
AcDbEntity
  8
dim
  6
ByBlock
 62
    0
370
   -2
100
AcDbTrace
 10
-5
 20
-6.5
 30
0
 11
-6.0407116444321
 21
-0.2499999999999996
 31
0
 12
-3.959288355567898
 22
-0.25
 32
0
 13
-3.959288355567898
 23
-0.25
 33
0
  0
MTEXT
  5
121
100
AcDbEntity
  8
dim
  6
CONTINUOUS
 62
    0
370
   -2
100
AcDbMText
 10
-11.25
 20
141.03125
 30
0
 40
6.25
 41
25.34722222222222
 71
    5
 72
    1
  1
24'-7"
  7
standard
210
0
220
0
230
1
 50
90
 73
    2
 44
1
  0
ENDBLK
  5
9A
330
98
100
AcDbEntity
  8
0
100
AcDbBlockEnd
  0
BLOCK
  5
9C
330
9B
100
AcDbEntity
  8
0
100
AcDbBlockBegin
  2
*D21
 70
    1
 10
0
 20
0
  3
*D21
  1

  0
LINE
  5
122
100
AcDbEntity
  8
dim
  6
ByBlock
 62
    0
370
   -2
100
AcDbLine
 10
17.34375
 20
132
 11
46.28125
 21
132
  0
SOLID
  5
123
100
AcDbEntity
  8
dim
  6
ByBlock
 62
    0
370
   -2
100
AcDbTrace
 10
29.84375
 20
132
 30
0
 11
23.59375
 21
130.9592883555679
 31
0
 12
23.59375
 22
133.0407116444321
 32
0
 13
23.59375
 23
133.0407116444321
 33
0
  0
SOLID
  5
124
100
AcDbEntity
  8
dim
  6
ByBlock
 62
    0
370
   -2
100
AcDbTrace
 10
33.78125
 20
132
 30
0
 11
40.03125
 21
133.0407116444321
 31
0
 12
40.03125
 22
130.9592883555679
 32
0
 13
40.03125
 23
130.9592883555679
 33
0
  0
MTEXT
  5
125
100
AcDbEntity
  8
dim
  6
CONTINUOUS
 62
    0
370
   -2
100
AcDbMText
 10
47.14930555555556
 20
138.25
 30
0
 40
6.25
 41
20.48611111111111
 71
    5
 72
    1
  1
0'-4"
  7
standard
210
0
220
0
230
1
 50
0
 73
    2
 44
1
  0
LINE
  5
126
100
AcDbEntity
  8
dim
  6
ByBlock
 62
    0
370
   -2
100
AcDbLine
 10
29.84375
 20
132.5902987671955
 11
29.84375
 21
128.875
  0
LINE
  5
127
100
AcDbEntity
  8
dim
  6
ByBlock
 62
    0
370
   -2
100
AcDbLine
 10
33.78125
 20
132.9942133468598
 11
33.78125
 21
128.875
  0
ENDBLK
  5
9D
330
9B
100
AcDbEntity
  8
0
100
AcDbBlockEnd
  0
BLOCK
  5
9F
330
9E
100
AcDbEntity
  8
0
100
AcDbBlockBegin
  2
US Projection 3rd Angle-0
 70
    0
 10
0
 20
0
  3
US Projection 3rd Angle-0
  1

  0
LINE
  5
128
100
AcDbEntity
  8
0
  6
ByLayer
 62
  256
370
   -1
100
AcDbLine
 10
-5
 20
0
 11
0
 21
0
  0
LINE
  5
129
100
AcDbEntity
  8
0
  6
ByLayer
 62
  256
370
   -1
100
AcDbLine
 10
0
 20
2
 11
-5
 21
2
  0
LINE
  5
12A
100
AcDbEntity
  8
0
  6
ByLayer
 62
  256
370
   -1
100
AcDbLine
 10
-5
 20
2
 11
-5
 21
0
  0
LINE
  5
12B
100
AcDbEntity
  8
0
  6
ByLayer
 62
  256
370
   -1
100
AcDbLine
 10
-3
 20
2
 11
-3
 21
-4.89858719659e-016
  0
LINE
  5
12C
100
AcDbEntity
  8
0
  6
ByLayer
 62
  256
370
   -1
100
AcDbLine
 10
-5
 20
0.5
 11
-3
 21
0.5
  0
LINE
  5
12D
100
AcDbEntity
  8
0
  6
ByLayer
 62
  256
370
   -1
100
AcDbLine
 10
-3
 20
0.5
 11
0
 21
0.5
  0
LINE
  5
12E
100
AcDbEntity
  8
0
  6
ByLayer
 62
  256
370
   -1
100
AcDbLine
 10
-3
 20
0.75
 11
0
 21
0.75
  0
LINE
  5
12F
100
AcDbEntity
  8
0
  6
ByLayer
 62
  256
370
   -1
100
AcDbLine
 10
-3
 20
1
 11
0
 21
1
  0
LINE
  5
130
100
AcDbEntity
  8
0
  6
ByLayer
 62
  256
370
   -1
100
AcDbLine
 10
-3
 20
1.25
 11
0
 21
1.25
  0
LINE
  5
131
100
AcDbEntity
  8
0
  6
ByLayer
 62
  256
370
   -1
100
AcDbLine
 10
-3
 20
1.625
 11
0
 21
1.625
  0
LINE
  5
132
100
AcDbEntity
  8
0
  6
ByLayer
 62
  256
370
   -1
100
AcDbLine
 10
0
 20
0
 11
0
 21
0.5
  0
LINE
  5
133
100
AcDbEntity
  8
0
  6
ByLayer
 62
  256
370
   -1
100
AcDbLine
 10
0
 20
0.5
 11
0
 21
2
  0
LINE
  5
134
100
AcDbEntity
  8
0
  6
ByLayer
 62
  256
370
   -1
100
AcDbLine
 10
-0.5
 20
6.12323399574e-017
 11
-0.5
 21
0.5
  0
LINE
  5
135
100
AcDbEntity
  8
0
  6
ByLayer
 62
  256
370
   -1
100
AcDbLine
 10
-1
 20
1.22464679915e-016
 11
-1
 21
1.25
  0
LINE
  5
136
100
AcDbEntity
  8
0
  6
ByLayer
 62
  256
370
   -1
100
AcDbLine
 10
-4
 20
0.5
 11
-4
 21
-2.44929359829e-016
  0
TEXT
  5
137
100
AcDbEntity
  8
0
  6
ByLayer
 62
  256
370
   -1
100
AcDbText
 10
-0.96875
 20
1.15625
 30
0
 40
0.0625
  1
Date Drawn:
 50
0
 41
1
 51
0
  7
standard
 71
    0
 11
-0.96875
 21
1.15625
 31
0
210
0
220
0
230
1
100
AcDbText
 73
    1
  0
TEXT
  5
138
100
AcDbEntity
  8
0
  6
ByLayer
 62
  256
370
   -1
100
AcDbText
 10
-0.96875
 20
0.90625
 30
0
 40
0.0625
  1
Date Checked:
 50
0
 41
1
 51
0
  7
standard
 71
    0
 11
-0.96875
 21
0.90625
 31
0
210
0
220
0
230
1
100
AcDbText
 73
    1
  0
TEXT
  5
139
100
AcDbEntity
  8
0
  6
ByLayer
 62
  256
370
   -1
100
AcDbText
 10
-0.96875
 20
0.65625
 30
0
 40
0.0625
  1
Date Approved:
 50
0
 41
1
 51
0
  7
standard
 71
    0
 11
-0.96875
 21
0.65625
 31
0
210
0
220
0
230
1
100
AcDbText
 73
    1
  0
TEXT
  5
13A
100
AcDbEntity
  8
0
  6
ByLayer
 62
  256
370
   -1
100
AcDbText
 10
-0.96875
 20
0.40625
 30
0
 40
0.0625
  1
Sht:
 50
0
 41
1
 51
0
  7
standard
 71
    0
 11
-0.96875
 21
0.40625
 31
0
210
0
220
0
230
1
100
AcDbText
 73
    1
  0
TEXT
  5
13B
100
AcDbEntity
  8
0
  6
ByLayer
 62
  256
370
   -1
100
AcDbText
 10
-0.46875
 20
0.40625
 30
0
 40
0.0625
  1
Rev:
 50
0
 41
1
 51
0
  7
standard
 71
    0
 11
-0.46875
 21
0.40625
 31
0
210
0
220
0
230
1
100
AcDbText
 73
    1
  0
TEXT
  5
13C
100
AcDbEntity
  8
0
  6
ByLayer
 62
  256
370
   -1
100
AcDbText
 10
-2.96875
 20
0.90625
 30
0
 40
0.0625
  1
Checked By:
 50
0
 41
1
 51
0
  7
standard
 71
    0
 11
-2.96875
 21
0.90625
 31
0
210
0
220
0
230
1
100
AcDbText
 73
    1
  0
TEXT
  5
13D
100
AcDbEntity
  8
0
  6
ByLayer
 62
  256
370
   -1
100
AcDbText
 10
-2.96875
 20
0.65625
 30
0
 40
0.0625
  1
Approved By:
 50
0
 41
1
 51
0
  7
standard
 71
    0
 11
-2.96875
 21
0.65625
 31
0
210
0
220
0
230
1
100
AcDbText
 73
    1
  0
TEXT
  5
13E
100
AcDbEntity
  8
0
  6
ByLayer
 62
  256
370
   -1
100
AcDbText
 10
-2.96875
 20
0.40625
 30
0
 40
0.0625
  1
Drawing No:
 50
0
 41
1
 51
0
  7
standard
 71
    0
 11
-2.96875
 21
0.40625
 31
0
210
0
220
0
230
1
100
AcDbText
 73
    1
  0
TEXT
  5
13F
100
AcDbEntity
  8
0
  6
ByLayer
 62
  256
370
   -1
100
AcDbText
 10
-3.96875
 20
0.40625
 30
0
 40
0.0625
  1
Scale:
 50
0
 41
1
 51
0
  7
standard
 71
    0
 11
-3.96875
 21
0.40625
 31
0
210
0
220
0
230
1
100
AcDbText
 73
    1
  0
TEXT
  5
140
100
AcDbEntity
  8
0
  6
ByLayer
 62
  256
370
   -1
100
AcDbText
 10
-2.96875
 20
1.90625
 30
0
 40
0.0625
  1
Drawing Name:
 50
0
 41
1
 51
0
  7
standard
 71
    0
 11
-2.96875
 21
1.90625
 31
0
210
0
220
0
230
1
100
AcDbText
 73
    1
  0
TEXT
  5
141
100
AcDbEntity
  8
0
  6
ByLayer
 62
  256
370
   -1
100
AcDbText
 10
-2.96875
 20
1.53125
 30
0
 40
0.0625
  1
Project:
 50
0
 41
1
 51
0
  7
standard
 71
    0
 11
-2.96875
 21
1.53125
 31
0
210
0
220
0
230
1
100
AcDbText
 73
    1
  0
TEXT
  5
142
100
AcDbEntity
  8
0
  6
ByLayer
 62
  256
370
   -1
100
AcDbText
 10
-2.96875
 20
1.15625
 30
0
 40
0.0625
  1
Drawn By:
 50
0
 41
1
 51
0
  7
standard
 71
    0
 11
-2.96875
 21
1.15625
 31
0
210
0
220
0
230
1
100
AcDbText
 73
    1
  0
LINE
  5
143
100
AcDbEntity
  8
0
  6
ByLayer
 62
  256
370
   -1
100
AcDbLine
 10
-5
 20
0.5
 11
-5
 21
1.22464679915e-016
  0
CIRCLE
  5
144
100
AcDbEntity
  8
0
  6
ByLayer
 62
  256
370
   -1
100
AcDbCircle
 10
-4.73836406193
 20
0.25
 40
0.174496316519
  0
CIRCLE
  5
145
100
AcDbEntity
  8
0
  6
ByLayer
 62
  256
370
   -1
100
AcDbCircle
 10
-4.73836406193
 20
0.25
 40
0.08713958587450001
  0
LINE
  5
146
100
AcDbEntity
  8
0
  6
ByLayer
 62
  256
370
   -1
100
AcDbLine
 10
-4.08713494295
 20
0.424496316519
 11
-4.08713494295
 21
0.07550368348100001
  0
LINE
  5
147
100
AcDbEntity
  8
0
  6
ByLayer
 62
  256
370
   -1
100
AcDbLine
 10
-4.43612757599
 20
0.337139585875
 11
-4.43612757599
 21
0.162860414125
  0
LINE
  5
148
100
AcDbEntity
  8
0
  6
ByLayer
 62
  256
370
   -1
100
AcDbLine
 10
-4.43612757599
 20
0.337139585875
 11
-4.08713494295
 21
0.424496316519
  0
LINE
  5
149
100
AcDbEntity
  8
0
  6
ByLayer
 62
  256
370
   -1
100
AcDbLine
 10
-4.43612757599
 20
0.162860414125
 11
-4.08713494295
 21
0.07550368348100001
  0
LINE
  5
14A
100
AcDbEntity
  8
0
  6
CONTINUOUS
 62
  256
370
   -1
100
AcDbLine
 10
-4.73836406193
 20
0
 11
-4.73836406193
 21
0.5
  0
LINE
  5
14B
100
AcDbEntity
  8
0
  6
CONTINUOUS
 62
  256
370
   -1
100
AcDbLine
 10
-4
 20
0.25
 11
-5
 21
0.25
  0
ENDBLK
  5
A0
330
9E
100
AcDbEntity
  8
0
100
AcDbBlockEnd
  0
BLOCK
  5
A2
330
A1
100
AcDbEntity
  8
0
100
AcDbBlockBegin
  2
Title_Block-0
 70
    0
 10
0
 20
0
  3
Title_Block-0
  1

  0
INSERT
  5
14C
100
AcDbEntity
  8
0
  6
ByLayer
 62
  256
370
   -1
100
AcDbBlockReference
  2
US Projection 3rd Angle-0
 10
0
 20
0
 30
0
 41
37.5
 42
37.5
 43
0
 50
0
 70
    1
 71
    1
 44
0
 45
0
  0
MTEXT
  5
14D
100
AcDbEntity
  8
0
  6
ByLayer
 62
  256
370
   -1
100
AcDbMText
 10
-136.375
 20
3.687499999999979
 30
0
 40
4.6875
 41
16.66666666666696
 71
    7
 72
    1
  1
1":50"
  7
iso
210
0
220
0
230
1
 50
0
 73
    2
 44
1
  0
MTEXT
  5
14E
100
AcDbEntity
  8
0
  6
ByLayer
 62
  256
370
   -1
100
AcDbMText
 10
-108
 20
39
 30
0
 40
3.6875
 41
35.03125189643502
 71
    7
 72
    1
  1
John D. Fisher
  7
iso
210
0
220
0
230
1
 50
0
 73
    2
 44
1
  0
MTEXT
  5
14F
100
AcDbEntity
  8
0
  6
ByLayer
 62
  256
370
   -1
100
AcDbMText
 10
-28
 20
7
 30
0
 40
4.6875
 41
1.041666666666667
 71
    7
 72
    1
  1
1
  7
iso
210
0
220
0
230
1
 50
0
 73
    2
 44
1
  0
MTEXT
  5
150
100
AcDbEntity
  8
0
  6
ByLayer
 62
  256
370
   -1
100
AcDbMText
 10
-10
 20
7
 30
0
 40
4.6875
 41
2.083333333333334
 71
    7
 72
    1
  1
0
  7
iso
210
0
220
0
230
1
 50
0
 73
    2
 44
1
  0
MTEXT
  5
151
100
AcDbEntity
  8
0
  6
ByLayer
 62
  256
370
   -1
100
AcDbMText
 10
-100
 20
7
 30
0
 40
4.6875
 41
47.91666907738835
 71
    7
 72
    1
  1
House_Plan-01
  7
iso
210
0
220
0
230
1
 50
0
 73
    2
 44
1
  0
MTEXT
  5
152
100
AcDbEntity
  8
0
  6
ByLayer
 62
  256
370
   -1
100
AcDbMText
 10
-108
 20
49.75
 30
0
 40
3.6875
 41
68.11631866268726
 71
    7
 72
    1
  1
1329 Sanford Ave. Remodel
  7
standard
210
0
220
0
230
1
 50
0
 73
    2
 44
1
  0
MTEXT
  5
153
100
AcDbEntity
  8
0
  6
ByLayer
 62
  256
370
   -1
100
AcDbMText
 10
-108
 20
65
 30
0
 40
3.6875
 41
91.57291625694565
 71
    7
 72
    1
  1
Richland Pre-fab, 2 BR (Plan, EL 7')
  7
iso
210
0
220
0
230
1
 50
0
 73
    2
 44
1
  0
MTEXT
  5
154
100
AcDbEntity
  8
0
  6
ByLayer
 62
  256
370
   -1
100
AcDbMText
 10
-34
 20
39
 30
0
 40
3.6875
 41
25.8125
 71
    7
 72
    1
  1
2018-01-28
  7
iso
210
0
220
0
230
1
 50
0
 73
    2
 44
1
  0
ENDBLK
  5
A3
330
A1
100
AcDbEntity
  8
0
100
AcDbBlockEnd
  0
BLOCK
  5
A5
330
A4
100
AcDbEntity
  8
0
100
AcDbBlockBegin
  2
Door
 70
    0
 10
0
 20
0
  3
Door
  1

  0
LINE
  5
155
100
AcDbEntity
  8
wood
  6
CONTINUOUS
 62
    9
370
   -1
100
AcDbLine
 10
1.476377952755906
 20
0
 11
1.476377952755906
 21
3.937007874015747
  0
LINE
  5
156
100
AcDbEntity
  8
wood
  6
CONTINUOUS
 62
    9
370
   -1
100
AcDbLine
 10
1.476377952755906
 20
3.937007874015747
 11
0
 21
3.937007874015747
  0
LINE
  5
157
100
AcDbEntity
  8
wood
  6
CONTINUOUS
 62
    9
370
   -1
100
AcDbLine
 10
0
 20
3.937007874015747
 11
0
 21
0
  0
LINE
  5
158
100
AcDbEntity
  8
wood
  6
CONTINUOUS
 62
    9
370
   -1
100
AcDbLine
 10
0
 20
0
 11
1.476377952755906
 21
0
  0
LINE
  5
159
100
AcDbEntity
  8
wood
  6
CONTINUOUS
 62
    9
370
   -1
100
AcDbLine
 10
0
 20
0
 11
-1.5748031496063
 21
0
  0
LINE
  5
15A
100
AcDbEntity
  8
wood
  6
CONTINUOUS
 62
    9
370
   -1
100
AcDbLine
 10
0
 20
-35.875
 11
0
 21
0
  0
LINE
  5
15B
100
AcDbEntity
  8
wood
  6
CONTINUOUS
 62
    9
370
   -1
100
AcDbLine
 10
-1.5748031496063
 20
0
 11
-1.5748031496063
 21
-35.875
  0
LINE
  5
15C
100
AcDbEntity
  8
wood
  6
CONTINUOUS
 62
    9
370
   -1
100
AcDbLine
 10
-1.574803149606301
 20
-35.92101891722564
 11
-1.332267629550188e-015
 21
-35.92101891722564
  0
LINE
  5
15D
100
AcDbEntity
  8
wood
  6
CONTINUOUS
 62
    9
370
   -1
100
AcDbLine
 10
-35.875
 20
3.937007874015749
 11
-35.875
 21
1.332267629550188e-015
  0
LINE
  5
15E
100
AcDbEntity
  8
wood
  6
CONTINUOUS
 62
    9
370
   -1
100
AcDbLine
 10
-35.875
 20
1.332267629550188e-015
 11
-37.3513779527559
 21
1.332267629550188e-015
  0
LINE
  5
15F
100
AcDbEntity
  8
wood
  6
CONTINUOUS
 62
    9
370
   -1
100
AcDbLine
 10
-37.3513779527559
 20
1.332267629550188e-015
 11
-37.3513779527559
 21
3.937007874015749
  0
LINE
  5
160
100
AcDbEntity
  8
wood
  6
CONTINUOUS
 62
    9
370
   -1
100
AcDbLine
 10
-37.3513779527559
 20
3.937007874015749
 11
-35.875
 21
3.937007874015749
  0
LINE
  5
161
100
AcDbEntity
  8
elev
  6
CONTINUOUS
 62
   13
370
   -1
100
AcDbLine
 10
0
 20
1.574803149606298
 11
-35.875
 21
1.574803149606298
  0
ARC
  5
162
100
AcDbEntity
  8
elev
  6
ByLayer
 62
  256
370
   -1
100
AcDbCircle
 10
0
 20
4.440892098500626e-016
 40
35.875
100
AcDbArc
 50
180
 51
270
  0
ENDBLK
  5
A6
330
A4
100
AcDbEntity
  8
0
100
AcDbBlockEnd
  0
BLOCK
  5
A8
330
A7
100
AcDbEntity
  8
0
100
AcDbBlockBegin
  2
Room_Labels
 70
    0
 10
0
 20
0
  3
Room_Labels
  1

  0
MTEXT
  5
163
100
AcDbEntity
  8
labels
  6
ByLayer
 62
  256
370
   -1
100
AcDbMText
 10
50
 20
60
 30
0
 40
9.375
 41
28.125
 71
    7
 72
    1
  1
BR#1
  7
iso
210
0
220
0
230
1
 50
0
 73
    2
 44
1
  0
MTEXT
  5
164
100
AcDbEntity
  8
labels
  6
ByLayer
 62
  256
370
   -1
100
AcDbMText
 10
40
 20
230
 30
0
 40
9.375
 41
30.20833333333334
 71
    7
 72
    1
  1
BR#2
  7
iso
210
0
220
0
230
1
 50
0
 73
    2
 44
1
  0
MTEXT
  5
165
100
AcDbEntity
  8
labels
  6
ByLayer
 62
  256
370
   -1
100
AcDbMText
 10
110
 20
240
 30
0
 40
9.375
 41
26.04166666666754
 71
    7
 72
    1
  1
Bath
  7
iso
210
0
220
0
230
1
 50
0
 73
    2
 44
1
  0
MTEXT
  5
166
100
AcDbEntity
  8
labels
  6
ByLayer
 62
  256
370
   -1
100
AcDbMText
 10
210
 20
240
 30
0
 40
9.375
 41
42.7083333333342
 71
    7
 72
    1
  1
Kitchen
  7
iso
210
0
220
0
230
1
 50
0
 73
    2
 44
1
  0
MTEXT
  5
167
100
AcDbEntity
  8
labels
  6
ByLayer
 62
  256
370
   -1
100
AcDbMText
 10
190
 20
70
 30
0
 40
9.375
 41
32.29166666666754
 71
    7
 72
    1
  1
Living\PRoom
  7
iso
210
0
220
0
230
1
 50
0
 73
    2
 44
1
  0
MTEXT
  5
168
100
AcDbEntity
  8
labels
  6
ByLayer
 62
  256
370
   -1
100
AcDbMText
 10
310
 20
200
 30
0
 40
9.375
 41
46.87500000000087
 71
    7
 72
    1
  1
Laundry
  7
iso
210
0
220
0
230
1
 50
90
 73
    2
 44
1
  0
ENDBLK
  5
A9
330
A7
100
AcDbEntity
  8
0
100
AcDbBlockEnd
  0
ENDSEC
  0
SECTION
  2
ENTITIES
  0
LINE
  5
169
100
AcDbEntity
  8
ticks
  6
ByLayer
 62
  256
370
   -1
100
AcDbLine
 10
475
 20
-110.5000000000001
 11
450
 21
-110.5000000000001
  0
LINE
  5
16A
100
AcDbEntity
  8
ticks
  6
ByLayer
 62
  256
370
   -1
100
AcDbLine
 10
475
 20
-110.5000000000001
 11
475
 21
-85.50000000000009
  0
LINE
  5
16B
100
AcDbEntity
  8
ticks
  6
ByLayer
 62
  256
370
   -1
100
AcDbLine
 10
-75
 20
-110.5
 11
-75
 21
-85.50000000000009
  0
LINE
  5
16C
100
AcDbEntity
  8
ticks
  6
ByLayer
 62
  256
370
   -1
100
AcDbLine
 10
-50
 20
-110.5
 11
-75
 21
-110.5
  0
LINE
  5
16D
100
AcDbEntity
  8
ticks
  6
ByLayer
 62
  256
370
   -1
100
AcDbLine
 10
475
 20
314.4999999999999
 11
450
 21
314.4999999999999
  0
LINE
  5
16E
100
AcDbEntity
  8
ticks
  6
ByLayer
 62
  256
370
   -1
100
AcDbLine
 10
-75
 20
289.5000000000001
 11
-75
 21
314.4999999999999
  0
LINE
  5
16F
100
AcDbEntity
  8
ticks
  6
ByLayer
 62
  256
370
   -1
100
AcDbLine
 10
-50
 20
314.4999999999999
 11
-75
 21
314.4999999999999
  0
LINE
  5
170
100
AcDbEntity
  8
ticks
  6
ByLayer
 62
  256
370
   -1
100
AcDbLine
 10
475
 20
289.4999999999999
 11
475
 21
314.4999999999999
  0
LINE
  5
171
100
AcDbEntity
  8
frame
  6
ByLayer
 62
  256
370
   25
100
AcDbLine
 10
437.5
 20
-91.75000000000009
 11
-37.5
 21
-91.75
  0
LINE
  5
172
100
AcDbEntity
  8
frame
  6
ByLayer
 62
  256
370
   25
100
AcDbLine
 10
-37.5
 20
-91.75
 11
-37.50000000000009
 21
295.7499999999997
  0
LINE
  5
173
100
AcDbEntity
  8
frame
  6
ByLayer
 62
  256
370
   25
100
AcDbLine
 10
437.5
 20
-91.75000000000009
 11
437.4999999999999
 21
295.7499999999999
  0
LINE
  5
174
100
AcDbEntity
  8
frame
  6
ByLayer
 62
  256
370
   25
100
AcDbLine
 10
437.4999999999999
 20
295.7499999999999
 11
-37.50000000000009
 21
295.7499999999997
  0
LWPOLYLINE
  5
175
100
AcDbEntity
  8
Original_Walls
  6
ByLayer
 62
  256
370
   -1
100
AcDbPolyline
 90
    4
 70
    1
 43
0
 10
93
 20
289.4999999999999
 10
96
 20
289.4999999999999
 10
96
 20
132.5
 10
93
 20
132.5
  0
LWPOLYLINE
  5
176
100
AcDbEntity
  8
Original_Walls
  6
ByLayer
 62
  256
370
   -1
100
AcDbPolyline
 90
    4
 70
    1
 43
0
 10
156
 20
197.5
 10
159
 20
197.5
 10
159
 20
289.5
 10
156
 20
289.5
  0
LWPOLYLINE
  5
177
100
AcDbEntity
  8
Original_Walls
  6
ByLayer
 62
  256
370
   -1
100
AcDbPolyline
 90
    4
 70
    1
 43
0
 10
96
 20
199.5
 10
156
 20
199.5
 10
156
 20
197.5
 10
96
 20
197.5
  0
LWPOLYLINE
  5
178
100
AcDbEntity
  8
Original_Walls
  6
ByLayer
 62
  256
370
   -1
100
AcDbPolyline
 90
    4
 70
    1
 43
0
 10
0
 20
134.4999999999999
 10
93
 20
134.4999999999999
 10
93
 20
132.5
 10
0
 20
132.5
  0
LINE
  5
179
100
AcDbEntity
  8
Original_Walls
  6
ByLayer
 62
  256
370
   -1
100
AcDbLine
 10
284
 20
7.5
 11
0
 21
7.5
  0
LINE
  5
17A
100
AcDbEntity
  8
Original_Walls
  6
ByLayer
 62
  256
370
   -1
100
AcDbLine
 10
0
 20
7.5
 11
0
 21
289.4999999999999
  0
LWPOLYLINE
  5
17B
100
AcDbEntity
  8
Original_Walls
  6
ByLayer
 62
  256
370
   -1
100
AcDbPolyline
 90
    4
 70
    1
 43
0
 10
125
 20
197.5
 10
128
 20
197.5
 10
128
 20
7.5
 10
125
 20
7.5
  0
LWPOLYLINE
  5
17C
100
AcDbEntity
  8
Original_Walls
  6
ByLayer
 62
  256
370
   -1
100
AcDbPolyline
 90
    4
 70
    1
 43
0
 10
0
 20
164.4999999999999
 10
93
 20
164.4999999999999
 10
93
 20
162.5
 10
0
 20
162.5
  0
LWPOLYLINE
  5
17D
100
AcDbEntity
  8
Original_Walls
  6
ByLayer
 62
  256
370
   -1
100
AcDbPolyline
 90
    4
 70
    1
 43
0
 10
96
 20
134.5
 10
125
 20
134.5
 10
125
 20
132.5
 10
96
 20
132.5
  0
LWPOLYLINE
  5
17E
100
AcDbEntity
  8
Original_Removed
  6
ByLayer
 62
  256
370
   -1
100
AcDbPolyline
 90
    4
 70
    1
 43
0
 10
320
 20
193.5
 10
287
 20
193.5
 10
287
 20
166.5
 10
320
 20
166.5
  0
LWPOLYLINE
  5
17F
100
AcDbEntity
  8
Original_Removed
  6
ByLayer
 62
  256
370
   -1
100
AcDbPolyline
 90
    4
 70
    1
 43
0
 10
284
 20
197.5
 10
254
 20
197.5
 10
254
 20
173.5
 10
284
 20
173.5
  0
LWPOLYLINE
  5
180
100
AcDbEntity
  8
Original_Removed
  6
ByLayer
 62
  256
370
   -1
100
AcDbPolyline
 90
    4
 70
    1
 43
0
 10
93
 20
162.5
 10
69
 20
162.5
 10
69
 20
132.5
 10
93
 20
132.5
  0
LWPOLYLINE
  5
181
100
AcDbEntity
  8
Original_Removed
  6
ByLayer
 62
  256
370
   -1
100
AcDbPolyline
 90
    4
 70
    1
 43
0
 10
287
 20
289.5
 10
320
 20
289.5
 10
320
 20
195.5
 10
287
 20
195.5
  0
LWPOLYLINE
  5
182
100
AcDbEntity
  8
Original_Removed
  6
ByLayer
 62
  256
370
   -1
100
AcDbPolyline
 90
    4
 70
    1
 43
0
 10
32
 20
164.4999999999999
 10
67
 20
164.4999999999999
 10
67
 20
149.5
 10
32
 20
149.5
  0
LWPOLYLINE
  5
183
100
AcDbEntity
  8
Original_Removed
  6
ByLayer
 62
  256
370
   -1
100
AcDbPolyline
 90
    4
 70
    1
 43
0
 10
67
 20
147.5
 10
32
 20
147.5
 10
32
 20
132.5
 10
67
 20
132.5
  0
LWPOLYLINE
  5
184
100
AcDbEntity
  8
Original_Removed
  6
ByLayer
 62
    7
370
   -1
100
AcDbPolyline
 90
    4
 70
    1
 43
0
 10
67
 20
162.5
 10
69
 20
162.5
 10
69
 20
132.5
 10
67
 20
132.5
  0
LWPOLYLINE
  5
185
100
AcDbEntity
  8
Original_Rooms
  6
ByLayer
 62
  256
370
   -1
100
AcDbPolyline
 90
    4
 70
    1
 43
0
 10
96
 20
199.5
 10
156
 20
199.5
 10
156
 20
289.5
 10
96
 20
289.5
  0
LWPOLYLINE
  5
186
100
AcDbEntity
  8
Original_Rooms
  6
ByLayer
 62
  256
370
   -1
100
AcDbPolyline
 90
    4
 70
    1
 43
0
 10
159
 20
199.5
 10
285
 20
199.5
 10
285
 20
289.5
 10
159
 20
289.5
  0
LWPOLYLINE
  5
187
100
AcDbEntity
  8
Original_Rooms
  6
ByLayer
 62
  256
370
   -1
100
AcDbPolyline
 90
    4
 70
    1
 43
0
 10
159
 20
132.5
 10
267
 20
132.5
 10
267
 20
198.5
 10
159
 20
198.5
  0
LWPOLYLINE
  5
188
100
AcDbEntity
  8
Original_Rooms
  6
ByLayer
 62
  256
370
   -1
100
AcDbPolyline
 90
    4
 70
    1
 43
0
 10
128
 20
7.5
 10
284
 20
7.5
 10
284
 20
132.5
 10
128
 20
132.5
  0
LWPOLYLINE
  5
189
100
AcDbEntity
  8
Original_Rooms
  6
ByLayer
 62
  256
370
   -1
100
AcDbPolyline
 90
    4
 70
    1
 43
0
 10
93
 20
164.4999999999999
 10
93
 20
289.4999999999999
 10
0
 20
289.4999999999999
 10
-1.4210854715202e-014
 20
164.4999999999999
  0
LWPOLYLINE
  5
18A
100
AcDbEntity
  8
Original_Rooms
  6
ByLayer
 62
  256
370
   -1
100
AcDbPolyline
 90
    4
 70
    1
 43
0
 10
-1.4210854715202e-014
 20
7.5
 10
125
 20
7.5
 10
125
 20
132.5
 10
-1.4210854715202e-014
 20
132.5
  0
LWPOLYLINE
  5
18B
100
AcDbEntity
  8
Original_Closets
  6
ByLayer
 62
  256
370
   -1
100
AcDbPolyline
 90
    4
 70
    1
 43
0
 10
-1.4210854715202e-014
 20
164.4999999999999
 10
30
 20
164.4999999999999
 10
30
 20
134.4999999999999
 10
-1.4210854715202e-014
 20
134.4999999999999
  0
LWPOLYLINE
  5
18C
100
AcDbEntity
  8
Original_Closets
  6
ByLayer
 62
  256
370
   -1
100
AcDbPolyline
 90
    4
 70
    1
 43
0
 10
320
 20
289.5
 10
287
 20
289.5
 10
287
 20
169.5
 10
320
 20
169.5
  0
LWPOLYLINE
  5
18D
100
AcDbEntity
  8
Original_Closets
  6
ByLayer
 62
  256
370
   -1
100
AcDbPolyline
 90
    4
 70
    1
 43
0
 10
32
 20
162.5
 10
93
 20
162.5
 10
93
 20
132.5
 10
32
 20
132.5
  0
LWPOLYLINE
  5
18E
100
AcDbEntity
  8
Original_Closets
  6
ByLayer
 62
  256
370
   -1
100
AcDbPolyline
 90
    4
 70
    1
 43
0
 10
32
 20
162.5
 10
93
 20
162.5
 10
93
 20
132.5
 10
32
 20
132.5
  0
LWPOLYLINE
  5
18F
100
AcDbEntity
  8
Original_Rooms
  6
ByLayer
 62
  256
370
   -1
100
AcDbPolyline
 90
    4
 70
    1
 43
0
 10
96
 20
197.5
 10
125
 20
197.5
 10
125
 20
134.5
 10
96
 20
134.5
  0
LWPOLYLINE
  5
190
100
AcDbEntity
  8
Original_Removed
  6
ByLayer
 62
  256
370
   -1
100
AcDbPolyline
 90
    4
 70
    1
 43
0
 10
155
 20
197.5
 10
125
 20
197.5
 10
125
 20
173.5
 10
155
 20
173.5
  0
INSERT
  5
191
100
AcDbEntity
  8
0
  6
ByLayer
 62
  256
370
   -1
100
AcDbBlockReference
  2
Title_Block-0
 10
437.5
 20
-91.75000000000009
 30
0
 41
1
 42
1
 43
0
 50
0
 70
    1
 71
    1
 44
1
 45
1
  0
LINE
  5
192
100
AcDbEntity
  8
Original_Walls
  6
ByLayer
 62
  256
370
   -1
100
AcDbLine
 10
-5
 20
294.4999999999999
 11
326
 21
294.4999999999999
  0
LINE
  5
193
100
AcDbEntity
  8
Original_Walls
  6
ByLayer
 62
  256
370
   -1
100
AcDbLine
 10
326
 20
294.4999999999999
 11
326
 21
166.5
  0
LINE
  5
194
100
AcDbEntity
  8
Original_Walls
  6
ByLayer
 62
  256
370
   -1
100
AcDbLine
 10
290
 20
1.5
 11
-5
 21
1.5
  0
LINE
  5
195
100
AcDbEntity
  8
Original_Walls
  6
ByLayer
 62
  256
370
   -1
100
AcDbLine
 10
-5
 20
1.5
 11
-5
 21
294.4999999999999
  0
LINE
  5
196
100
AcDbEntity
  8
Original_Walls
  6
ByLayer
 62
  256
370
   -1
100
AcDbLine
 10
290
 20
289.4999999999999
 11
290
 21
1.5
  0
LINE
  5
197
100
AcDbEntity
  8
Original_Walls
  6
ByLayer
 62
  256
370
   -1
100
AcDbLine
 10
0
 20
289.4999999999999
 11
290
 21
289.4999999999999
  0
LINE
  5
198
100
AcDbEntity
  8
Original_Walls
  6
ByLayer
 62
  256
370
   -1
100
AcDbLine
 10
326
 20
166.5
 11
290
 21
166.5
  0
LINE
  5
199
100
AcDbEntity
  8
Original_Walls
  6
ByLayer
 62
  256
370
   -1
100
AcDbLine
 10
285
 20
190.3436499999999
 11
290
 21
190.3436499999999
  0
LINE
  5
19A
100
AcDbEntity
  8
Original_Walls
  6
ByLayer
 62
  256
370
   -1
100
AcDbLine
 10
284
 20
190.3436499999999
 11
284
 21
7.5
  0
LINE
  5
19B
100
AcDbEntity
  8
Original_Walls
  6
ByLayer
 62
  256
370
   -1
100
AcDbLine
 10
288
 20
190.3436499999999
 11
288
 21
289.4999999999999
  0
LWPOLYLINE
  5
19C
100
AcDbEntity
  8
Actual_Closets
  6
ByLayer
 62
  256
370
   -1
100
AcDbPolyline
 90
    4
 70
    1
 43
0
 10
0
 20
156.4999999999999
 10
29.84375
 20
156.4999999999999
 10
29.84375
 20
128.6562499999999
 10
0
 20
128.6562499999999
  0
LWPOLYLINE
  5
19D
100
AcDbEntity
  8
Actual_Closets
  6
ByLayer
 62
  256
370
   -1
100
AcDbPolyline
 90
    4
 70
    1
 43
0
 10
318.5625
 20
283.5625
 10
285.5625
 20
283.5625
 10
285.5625
 20
163.5625
 10
318.5625
 20
163.5625
  0
LWPOLYLINE
  5
19E
100
AcDbEntity
  8
Actual_Rooms
  6
ByLayer
 62
  256
370
   -1
100
AcDbPolyline
 90
    4
 70
    1
 43
0
 10
0
 20
124.0625
 10
123.375
 20
124.0625
 10
123.375
 20
0
 10
0
 20
0
  0
LWPOLYLINE
  5
19F
100
AcDbEntity
  8
Actual_Rooms
  6
ByLayer
 62
  256
370
   -1
100
AcDbPolyline
 90
    4
 70
    1
 43
0
 10
126.875
 20
189
 10
279.5625
 20
189
 10
279.5625
 20
0
 10
126.875
 20
0
  0
LWPOLYLINE
  5
1A0
100
AcDbEntity
  8
Actual_Rooms
  6
ByLayer
 62
  256
370
   -1
100
AcDbPolyline
 90
    4
 70
    1
 43
0
 10
160.875
 20
283.5625
 10
283.21875
 20
283.5625
 10
283.21875
 20
189
 10
160.875
 20
189
  0
LWPOLYLINE
  5
1A1
100
AcDbEntity
  8
Actual_Rooms
  6
ByLayer
 62
  256
370
   -1
100
AcDbPolyline
 90
    4
 70
    1
 43
0
 10
-1.4210854715202e-014
 20
156.4999999999999
 10
92.625
 20
156.4999999999999
 10
92.625
 20
283.5625
 10
-1.4210854715202e-014
 20
283.5625
  0
LINE
  5
1A2
100
AcDbEntity
  8
Actual_Walls
  6
ByLayer
 62
  256
370
   -1
100
AcDbLine
 10
285.5625
 20
-6.5
 11
-5
 21
-6.5
  0
LINE
  5
1A3
100
AcDbEntity
  8
Actual_Walls
  6
ByLayer
 62
  256
370
   -1
100
AcDbLine
 10
-5
 20
-6.5
 11
-5
 21
288.5625
  0
LWPOLYLINE
  5
1A4
100
AcDbEntity
  8
Actual_Rooms
  6
ByLayer
 62
  256
370
   -1
100
AcDbPolyline
 90
    4
 70
    1
 43
0
 10
96
 20
191.5
 10
155.625
 20
191.5
 10
155.625
 20
283.5625
 10
96
 20
283.5625
  0
LWPOLYLINE
  5
1A5
100
AcDbEntity
  8
Actual_Walls
  6
ByLayer
 62
  256
370
   -1
100
AcDbPolyline
 90
    4
 70
    1
 43
0
 10
92.625
 20
283.5625
 10
96
 20
283.5625
 10
96
 20
124.0625
 10
92.625
 20
124.0625
  0
LWPOLYLINE
  5
1A6
100
AcDbEntity
  8
Actual_Walls
  6
ByLayer
 62
  256
370
   -1
100
AcDbPolyline
 90
    4
 70
    1
 43
0
 10
155.625
 20
283.5625
 10
160.875
 20
283.5625
 10
160.875
 20
189
 10
155.625
 20
189
  0
LWPOLYLINE
  5
1A7
100
AcDbEntity
  8
Actual_Walls
  6
ByLayer
 62
  256
370
   -1
100
AcDbPolyline
 90
    4
 70
    1
 43
0
 10
96
 20
191.5
 10
155.625
 20
191.5
 10
155.625
 20
189
 10
96
 20
189
  0
LINE
  5
1A8
100
AcDbEntity
  8
Actual_Closets
  6
ByLayer
 62
  256
370
   -1
100
AcDbLine
 10
285.5625
 20
163.5625
 11
318.5625
 21
163.5625
  0
LINE
  5
1A9
100
AcDbEntity
  8
Actual_Walls
  6
ByLayer
 62
  256
370
   -1
100
AcDbLine
 10
285.5625
 20
163.5625
 11
318.5625
 21
163.5625
  0
LINE
  5
1AA
100
AcDbEntity
  8
Actual_Walls
  6
ByLayer
 62
  256
370
   -1
100
AcDbLine
 10
318.5625
 20
163.5625
 11
318.5625
 21
283.5625
  0
LINE
  5
1AB
100
AcDbEntity
  8
Actual_Walls
  6
ByLayer
 62
  256
370
   -1
100
AcDbLine
 10
318.5625
 20
283.5625
 11
0
 21
283.5625
  0
LINE
  5
1AC
100
AcDbEntity
  8
Actual_Walls
  6
ByLayer
 62
  256
370
   -1
100
AcDbLine
 10
-5
 20
288.5625
 11
324.3125
 21
288.5625
  0
LINE
  5
1AD
100
AcDbEntity
  8
Actual_Walls
  6
ByLayer
 62
  256
370
   -1
100
AcDbLine
 10
285.5625
 20
158.3125
 11
324.3125
 21
158.3125
  0
LINE
  5
1AE
100
AcDbEntity
  8
Actual_Walls
  6
ByLayer
 62
  256
370
   -1
100
AcDbLine
 10
324.3125
 20
158.3125
 11
324.3125
 21
288.5625
  0
LWPOLYLINE
  5
1AF
100
AcDbEntity
  8
Actual_Walls
  6
ByLayer
 62
  256
370
   -1
100
AcDbPolyline
 90
    4
 70
    1
 43
0
 10
96
 20
126.125
 10
123.375
 20
126.125
 10
123.375
 20
124.0625
 10
96
 20
124.0625
  0
LINE
  5
1B0
100
AcDbEntity
  8
Actual_Walls
  6
ByLayer
 62
  256
370
   -1
100
AcDbLine
 10
126.875
 20
0
 11
123.375
 21
0
  0
LINE
  5
1B1
100
AcDbEntity
  8
Actual_Walls
  6
ByLayer
 62
  256
370
   -1
100
AcDbLine
 10
126.875
 20
189
 11
124.125
 21
189
  0
LINE
  5
1B2
100
AcDbEntity
  8
Actual_Walls
  6
ByLayer
 62
  256
370
   -1
100
AcDbLine
 10
126.875
 20
126.125
 11
126.875
 21
0
  0
LINE
  5
1B3
100
AcDbEntity
  8
Actual_Walls
  6
ByLayer
 62
  256
370
   -1
100
AcDbLine
 10
123.375
 20
0
 11
123.375
 21
126.125
  0
LINE
  5
1B4
100
AcDbEntity
  8
Actual_Walls
  6
ByLayer
 62
  256
370
   -1
100
AcDbLine
 10
124.125
 20
189
 11
124.125
 21
126.125
  0
LINE
  5
1B5
100
AcDbEntity
  8
Actual_Walls
  6
ByLayer
 62
  256
370
   -1
100
AcDbLine
 10
126.875
 20
126.125
 11
126.875
 21
189
  0
LINE
  5
1B6
100
AcDbEntity
  8
Actual_Walls
  6
ByLayer
 62
  256
370
   -1
100
AcDbLine
 10
123.375
 20
126.125
 11
126.875
 21
126.125
  0
LWPOLYLINE
  5
1B7
100
AcDbEntity
  8
Actual_Closets
  6
ByLayer
 62
  256
370
   -1
100
AcDbPolyline
 90
    4
 70
    1
 43
0
 10
92.125
 20
124.0625
 10
33.78125
 20
124.0625
 10
33.78125
 20
153.34375
 10
92.125
 20
153.34375
  0
LINE
  5
1B8
100
AcDbEntity
  8
Actual_Walls
  6
ByLayer
 62
  256
370
   -1
100
AcDbLine
 10
92.125
 20
153.34375
 11
33.78125
 21
153.34375
  0
LINE
  5
1B9
100
AcDbEntity
  8
Actual_Walls
  6
ByLayer
 62
  256
370
   -1
100
AcDbLine
 10
33.78125
 20
153.34375
 11
33.78125
 21
124.0625
  0
LWPOLYLINE
  5
1BA
100
AcDbEntity
  8
Actual_Walls
  6
ByLayer
 62
  256
370
   -1
100
AcDbPolyline
 90
    4
 70
    1
 43
0
 10
29.84375
 20
156.4999999999999
 10
92.625
 20
156.4999999999999
 10
92.625
 20
153.34375
 10
29.84375
 20
153.34375
  0
LWPOLYLINE
  5
1BB
100
AcDbEntity
  8
Actual_Walls
  6
ByLayer
 62
  256
370
   -1
100
AcDbPolyline
 90
    4
 70
    1
 43
0
 10
29.84375
 20
128.6562499999999
 10
0
 20
128.6562499999999
 10
0
 20
124.0625
 10
29.84375
 20
124.0625
  0
LWPOLYLINE
  5
1BC
100
AcDbEntity
  8
Actual_Walls
  6
ByLayer
 62
  256
370
   -1
100
AcDbPolyline
 90
    4
 70
    1
 43
0
 10
33.78125
 20
124.0625
 10
29.84375
 20
124.0625
 10
29.84375
 20
153.34375
 10
33.78125
 20
153.34375
  0
LWPOLYLINE
  5
1BD
100
AcDbEntity
  8
Actual_Walls
  6
ByLayer
 62
  256
370
   -1
100
AcDbPolyline
 90
    4
 70
    1
 43
0
 10
-1.4210854715202e-014
 20
156.4999999999999
 10
29.84375
 20
156.4999999999999
 10
29.84375
 20
154.4999999999999
 10
-1.4210854715202e-014
 20
154.4999999999999
  0
LINE
  5
1BE
100
AcDbEntity
  8
Actual_Walls_Laundry
  6
ByLayer
 62
  256
370
   -1
100
AcDbLine
 10
283.21875
 20
189.84375
 11
285.46875
 21
189.84375
  0
LINE
  5
1BF
100
AcDbEntity
  8
Actual_Walls_Laundry
  6
ByLayer
 62
  256
370
   -1
100
AcDbLine
 10
285.46875
 20
189.84375
 11
285.46875
 21
283.5625
  0
LINE
  5
1C0
100
AcDbEntity
  8
Actual_Walls_Laundry
  6
ByLayer
 62
  256
370
   -1
100
AcDbLine
 10
283.21875
 20
283.5625
 11
283.21875
 21
189.84375
  0
LINE
  5
1C1
100
AcDbEntity
  8
Actual_Walls_Laundry
  6
ByLayer
 62
  256
370
   -1
100
AcDbLine
 10
285.46875
 20
283.5625
 11
283.21875
 21
283.5625
  0
LWPOLYLINE
  5
1C2
100
AcDbEntity
  8
Actual_Walls_Fridge
  6
ByLayer
 62
  256
370
   -1
100
AcDbPolyline
 90
    4
 70
    1
 43
0
 10
241.84375
 20
189.84375
 10
246.59375
 20
189.84375
 10
246.59375
 20
179.15625
 10
241.84375
 20
179.15625
  0
LWPOLYLINE
  5
1C3
100
AcDbEntity
  8
Actual_Walls_Fridge
  6
ByLayer
 62
  256
370
   -1
100
AcDbPolyline
 90
    4
 70
    1
 43
0
 10
246.59375
 20
184.4375
 10
246.59375
 20
184.4375
 10
246.59375
 20
184.4375
 10
246.59375
 20
184.4375
  0
LWPOLYLINE
  5
1C4
100
AcDbEntity
  8
Actual_Walls_Fridge
  6
ByLayer
 62
  256
370
   -1
100
AcDbPolyline
 90
    4
 70
    1
 43
0
 10
246.59375
 20
184.4375
 10
280.3125
 20
184.4375
 10
280.3125
 20
179.15625
 10
246.59375
 20
179.15625
  0
LINE
  5
1C5
100
AcDbEntity
  8
Actual_Walls
  6
ByLayer
 62
  256
370
   -1
100
AcDbLine
 10
280.3125
 20
189.84375
 11
285.5625
 21
189.84375
  0
LINE
  5
1C6
100
AcDbEntity
  8
Actual_Walls
  6
ByLayer
 62
  256
370
   -1
100
AcDbLine
 10
285.5625
 20
189.84375
 11
285.5625
 21
-6.5
  0
LINE
  5
1C7
100
AcDbEntity
  8
Actual_Walls
  6
ByLayer
 62
  256
370
   -1
100
AcDbLine
 10
0
 20
0
 11
280.3125
 21
0
  0
LINE
  5
1C8
100
AcDbEntity
  8
Actual_Walls
  6
ByLayer
 62
  256
370
   -1
100
AcDbLine
 10
0
 20
0
 11
0
 21
283.5625
  0
LINE
  5
1C9
100
AcDbEntity
  8
Actual_Walls
  6
ByLayer
 62
  256
370
   -1
100
AcDbLine
 10
280.3125
 20
0
 11
280.3125
 21
189.84375
  0
LWPOLYLINE
  5
1CA
100
AcDbEntity
  8
Actual_Walls
  6
ByLayer
 62
  256
370
   -1
100
AcDbPolyline
 90
    4
 70
    1
 43
0
 10
33.78125
 20
124.4375
 10
92.625
 20
124.4375
 10
92.625
 20
124.0625
 10
33.78125
 20
124.0625
  0
LINE
  5
1CB
100
AcDbEntity
  8
Actual_Walls
  6
ByLayer
 62
  256
370
   -1
100
AcDbLine
 10
92.125
 20
124.4375
 11
92.125
 21
153.34375
  0
LINE
  5
1CC
100
AcDbEntity
  8
Actual_Walls
  6
ByLayer
 62
  256
370
   -1
100
AcDbLine
 10
280.3125
 20
0
 11
279.5625
 21
0
  0
LINE
  5
1CD
100
AcDbEntity
  8
Actual_Walls
  6
ByLayer
 62
  256
370
   -1
100
AcDbLine
 10
279.5625
 20
179.15625
 11
280.3125
 21
179.15625
  0
LINE
  5
1CE
100
AcDbEntity
  8
Actual_Walls
  6
ByLayer
 62
  256
370
   -1
100
AcDbLine
 10
279.5625
 20
0
 11
279.5625
 21
179.15625
  0
LINE
  5
1CF
100
AcDbEntity
  8
Actual_Walls
  6
ByLayer
 62
  256
370
   -1
100
AcDbLine
 10
280.3125
 20
179.15625
 11
280.3125
 21
0
  0
INSERT
  5
1D0
100
AcDbEntity
  8
Door
  6
ByLayer
 62
  256
370
   -1
100
AcDbBlockReference
  2
Door
 10
279.5625
 20
155.094
 30
0
 41
-1
 42
1
 43
0
 50
270
 70
    1
 71
    1
 44
1
 45
1
  0
INSERT
  5
1D1
100
AcDbEntity
  8
0
  6
ByLayer
 62
  256
370
   -1
100
AcDbBlockReference
  2
Room_Labels
 10
0
 20
0
 30
0
 41
1
 42
1
 43
0
 50
0
 70
    1
 71
    1
 44
0
 45
0
  0
DIMENSION
  5
1D2
100
AcDbEntity
  8
dim
  6
ByLayer
 62
  256
370
   -1
100
AcDbDimension
  2
*D1
 10
-5
 20
-6.5
 30
0
 11
-11.25
 21
141.03125
 31
0
 70
   33
 71
    5
 72
    0
  3
Standard
 53
0
210
0
220
0
230
1
100
AcDbAlignedDimension
 13
-5
 23
288.5625
 33
0
 14
-5
 24
-6.5
 34
0
  0
DIMENSION
  5
1D3
100
AcDbEntity
  8
dim
  6
ByLayer
 62
  256
370
   -1
100
AcDbDimension
  2
*D2
 10
-5.000000000000004
 20
-23.99999999999999
 30
0
 11
140.28125
 21
-17.74999999999999
 31
0
 70
   33
 71
    5
 72
    0
  3
Standard
 53
0
210
0
220
0
230
1
100
AcDbAlignedDimension
 13
285.5625
 23
-6.5
 33
0
 14
-5
 24
-6.5
 34
0
  0
DIMENSION
  5
1D4
100
AcDbEntity
  8
dim
  6
ByLayer
 62
  256
370
   -1
100
AcDbDimension
  2
*D3
 10
300
 20
189.84375
 30
0
 11
293.75
 21
91.671875
 31
0
 70
   33
 71
    5
 72
    0
  3
Standard
 53
0
210
0
220
0
230
1
100
AcDbAlignedDimension
 13
285.5625
 23
-6.5
 33
0
 14
285.5625
 24
189.84375
 34
0
  0
DIMENSION
  5
1D5
100
AcDbEntity
  8
dim
  6
ByLayer
 62
  256
370
   -1
100
AcDbDimension
  2
*D4
 10
325
 20
-6.50000000000001
 30
0
 11
318.75
 21
75.90625
 31
0
 70
   33
 71
    5
 72
    0
  3
Standard
 53
0
210
0
220
0
230
1
100
AcDbAlignedDimension
 13
285.5625
 23
158.3125
 33
0
 14
285.5625
 24
-6.5
 34
0
  0
DIMENSION
  5
1D6
100
AcDbEntity
  8
dim
  6
ByLayer
 62
  256
370
   -1
100
AcDbDimension
  2
*D5
 10
348
 20
288.5625
 30
0
 11
341.75
 21
223.4375
 31
0
 70
   33
 71
    5
 72
    0
  3
Standard
 53
0
210
0
220
0
230
1
100
AcDbAlignedDimension
 13
324.3125
 23
158.3125
 33
0
 14
324.3125
 24
288.5625
 34
0
  0
DIMENSION
  5
1D7
100
AcDbEntity
  8
dim
  6
ByLayer
 62
  256
370
   -1
100
AcDbDimension
  2
*D6
 10
-4.999999999999943
 20
288.5625
 30
0
 11
159.5106857746554
 21
294.5312408651309
 31
0
 70
   33
 71
    5
 72
    0
  3
Standard
 53
0
210
0
220
0
230
1
100
AcDbAlignedDimension
 13
324
 23
288
 33
0
 14
-5
 24
288.5625
 34
0
  0
DIMENSION
  5
1D8
100
AcDbEntity
  8
dim
  6
ByLayer
 62
  256
370
   -1
100
AcDbDimension
  2
*D7
 10
3.740380410679095e-016
 20
201.5873152497357
 30
0
 11
-2.5
 21
207.8373152497357
 31
0
 70
   32
 71
    5
 72
    0
  3
Standard
 53
0
210
0
220
0
230
1
100
AcDbAlignedDimension
 13
-5
 23
195.4786087270165
 33
0
 14
0
 24
195.4786087270165
 34
0
100
AcDbRotatedDimension
  0
DIMENSION
  5
1D9
100
AcDbEntity
  8
dim
  6
ByLayer
 62
  256
370
   -1
100
AcDbDimension
  2
*D8
 10
285.5625
 20
60.53172827058179
 30
0
 11
282.9375
 21
66.78172827058179
 31
0
 70
   32
 71
    5
 72
    0
  3
Standard
 53
0
210
0
220
0
230
1
100
AcDbAlignedDimension
 13
280.3125
 23
53.31234783464085
 33
0
 14
285.5625
 24
53.86768479125169
 34
0
100
AcDbRotatedDimension
  0
DIMENSION
  5
1DA
100
AcDbEntity
  8
dim
  6
ByLayer
 62
  256
370
   -1
100
AcDbDimension
  2
*D9
 10
49.42498913836494
 20
283.5625
 30
0
 11
43.17498913836494
 21
286.0625
 31
0
 70
   32
 71
    5
 72
    0
  3
Standard
 53
0
210
0
220
0
230
1
100
AcDbAlignedDimension
 13
57.19970653091674
 23
288.5625
 33
0
 14
57.75504348752759
 24
283.5625
 34
0
 50
90
100
AcDbRotatedDimension
  0
DIMENSION
  5
1DB
100
AcDbEntity
  8
dim
  6
ByLayer
 62
  256
370
   -1
100
AcDbDimension
  2
*D10
 10
189.3699022042972
 20
-6.500000000000002
 30
0
 11
183.1199022042972
 21
-3.249999999999999
 31
0
 70
   32
 71
    5
 72
    0
  3
Standard
 53
0
210
0
220
0
230
1
100
AcDbAlignedDimension
 13
169.9331087229177
 23
0
 33
0
 14
172.1544565493611
 24
-6.5
 34
0
 50
90
100
AcDbRotatedDimension
  0
DIMENSION
  5
1DC
100
AcDbEntity
  8
dim
  6
ByLayer
 62
  256
370
   -1
100
AcDbDimension
  2
*D11
 10
324.3125
 20
271.004434826091
 30
0
 11
321.4375
 21
277.254434826091
 31
0
 70
   32
 71
    5
 72
    0
  3
Standard
 53
0
210
0
220
0
230
1
100
AcDbAlignedDimension
 13
318.5625
 23
267.6724130864259
 33
0
 14
324.3125
 24
268.2277500430367
 34
0
100
AcDbRotatedDimension
  0
DIMENSION
  5
1DD
100
AcDbEntity
  8
dim
  6
ByLayer
 62
  256
370
   -1
100
AcDbDimension
  2
*D12
 10
319.3187500512342
 20
158.8263695907009
 30
0
 11
313.0687500512342
 21
161.1944347953504
 31
0
 70
   32
 71
    5
 72
    0
  3
Standard
 53
0
210
0
220
0
230
1
100
AcDbAlignedDimension
 13
307.1013370057957
 23
163.5625
 33
0
 14
307.6566739624066
 24
158.8263695907009
 34
0
 50
90
100
AcDbRotatedDimension
  0
DIMENSION
  5
1DE
100
AcDbEntity
  8
dim
  6
ByLayer
 62
  256
370
   -1
100
AcDbDimension
  2
*D13
 10
96
 20
264
 30
0
 11
94.3125
 21
270.25
 31
0
 70
   32
 71
    5
  3
Standard
 53
0
210
0
220
0
230
1
100
AcDbAlignedDimension
 13
92.625
 23
257.2935872461415
 33
0
 14
96
 24
257.2935872461415
 34
0
100
AcDbRotatedDimension
  0
DIMENSION
  5
1DF
100
AcDbEntity
  8
dim
  6
ByLayer
 62
  256
370
   -1
100
AcDbDimension
  2
*D14
 10
160.875
 20
252
 30
0
 11
158.25
 21
258.25
 31
0
 70
   32
 71
    5
  3
Standard
 53
0
210
0
220
0
230
1
100
AcDbAlignedDimension
 13
155.625
 23
247.1957227545347
 33
0
 14
160.875
 24
248.0035519138632
 34
0
100
AcDbRotatedDimension
  0
DIMENSION
  5
1E0
100
AcDbEntity
  8
dim
  6
ByLayer
 62
  256
370
   -1
100
AcDbDimension
  2
*D15
 10
144
 20
189
 30
0
 11
137.75
 21
190.25
 31
0
 70
   32
 71
    5
  3
Standard
 53
0
210
0
220
0
230
1
100
AcDbAlignedDimension
 13
145.8131632588023
 23
191.5
 33
0
 14
146.6209924181309
 24
189
 34
0
 50
90
100
AcDbRotatedDimension
  0
DIMENSION
  5
1E1
100
AcDbEntity
  8
dim
  6
ByLayer
 62
  256
370
   -1
100
AcDbDimension
  2
*D16
 10
126.875
 20
168
 30
0
 11
125.5
 21
174.25
 31
0
 70
   32
 71
    5
  3
Standard
 53
0
210
0
220
0
230
1
100
AcDbAlignedDimension
 13
124.125
 23
167.624550560673
 33
0
 14
126.875
 24
168.0284651403373
 34
0
100
AcDbRotatedDimension
  0
DIMENSION
  5
1E2
100
AcDbEntity
  8
dim
  6
ByLayer
 62
  256
370
   -1
100
AcDbDimension
  2
*D17
 10
96
 20
156
 30
0
 11
94.3125
 21
162.25
 31
0
 70
   32
 71
    5
  3
Standard
 53
0
210
0
220
0
230
1
100
AcDbAlignedDimension
 13
92.625
 23
163.5854047640303
 33
0
 14
96
 24
163.9893193436946
 34
0
100
AcDbRotatedDimension
  0
DIMENSION
  5
1E3
100
AcDbEntity
  8
dim
  6
ByLayer
 62
  256
370
   -1
100
AcDbDimension
  2
*D18
 10
-1.841255413178847e-017
 20
72
 30
0
 11
-2.5
 21
78.25
 31
0
 70
   32
 71
    5
  3
Standard
 53
0
210
0
220
0
230
1
100
AcDbAlignedDimension
 13
-5
 23
72.30070975990476
 33
0
 14
0
 24
72.30070975990476
 34
0
100
AcDbRotatedDimension
  0
DIMENSION
  5
1E4
100
AcDbEntity
  8
dim
  6
ByLayer
 62
  256
370
   -1
100
AcDbDimension
  2
*D19
 10
60
 20
153.34375
 30
0
 11
53.75
 21
154.9218749999999
 31
0
 70
   32
 71
    5
  3
Standard
 53
0
210
0
220
0
230
1
100
AcDbAlignedDimension
 13
57.35587031232668
 23
156.4999999999999
 33
0
 14
57.75978489199095
 24
153.34375
 34
0
 50
90
100
AcDbRotatedDimension
  0
DIMENSION
  5
1E5
100
AcDbEntity
  8
dim
  6
ByLayer
 62
  256
370
   -1
100
AcDbDimension
  2
*D20
 10
24
 20
124.0625
 30
0
 11
17.75
 21
126.3593749999999
 31
0
 70
   32
 71
    5
  3
Standard
 53
0
210
0
220
0
230
1
100
AcDbAlignedDimension
 13
14.54092486791381
 23
128.6562499999999
 33
0
 14
14.54092486791381
 24
124.0625
 34
0
 50
90
100
AcDbRotatedDimension
  0
DIMENSION
  5
1E6
100
AcDbEntity
  8
dim
  6
ByLayer
 62
  256
370
   -1
100
AcDbDimension
  2
*D21
 10
33.78125
 20
132
 30
0
 11
31.8125
 21
138.25
 31
0
 70
   32
 71
    5
  3
Standard
 53
0
210
0
220
0
230
1
100
AcDbAlignedDimension
 13
29.84375
 23
135.7152987671955
 33
0
 14
33.78125
 24
136.1192133468598
 34
0
100
AcDbRotatedDimension
  0
ENDSEC
  0
SECTION
  2
OBJECTS
  0
DICTIONARY
  5
C
330
0
100
AcDbDictionary
281
    1
  3
ACAD_GROUP
350
D
  0
DICTIONARY
  5
D
330
C
100
AcDbDictionary
281
    1
  0
ENDSEC
  0
EOF
