999
dxfrw 0.6.3
  0
SECTION
  2
HEADER
  9
$ACADVER
  1
AC1021
  9
$DWGCODEPAGE
  3
ANSI_1252
  9
$INSBASE
 10
0
 20
0
 30
0
  9
$EXTMIN
 10
-203.9370078740158
 20
-110.5000000000001
 30
0
  9
$EXTMAX
 10
475
 20
314.4999999999999
 30
0
  9
$LIMMIN
 10
0
 20
0
  9
$LIMMAX
 10
420
 20
297
  9
$ORTHOMODE
 70
    0
  9
$REGENMODE
 70
    1
  9
$FILLMODE
 70
    1
  9
$QTEXTMODE
 70
    0
  9
$MIRRTEXT
 70
    0
  9
$LTSCALE
 40
1
  9
$ATTMODE
 70
    0
  9
$TEXTSIZE
 40
2.5
  9
$TRACEWID
 40
15.68
  9
$TEXTSTYLE
  7
STANDARD
  9
$CLAYER
  8
0
  9
$CELTYPE
  6
BYLAYER
  9
$CECOLOR
 62
  256
  9
$CELTSCALE
 40
1
  9
$DISPSILH
 70
    0
  9
$DIMSCALE
 40
1
  9
$DIMASZ
 40
6.25
  9
$DIMEXO
 40
3.125
  9
$DIMDLI
 40
3.75
  9
$DIMRND
 40
0
  9
$DIMDLE
 40
0
  9
$DIMEXE
 40
3.125
  9
$DIMTP
 40
0
  9
$DIMTM
 40
0
  9
$DIMTXT
 40
6.25
  9
$DIMCEN
 40
2.5
  9
$DIMTSZ
 40
0
  9
$DIMTOL
 70
    0
  9
$DIMLIM
 70
    0
  9
$DIMTIH
 70
    0
  9
$DIMTOH
 70
    0
  9
$DIMSE1
 70
    0
  9
$DIMSE2
 70
    0
  9
$DIMTAD
 70
    1
  9
$DIMZIN
 70
    1
  9
$DIMBLK
  1

  9
$DIMASO
 70
    1
  9
$DIMSHO
 70
    1
  9
$DIMPOST
  1

  9
$DIMAPOST
  1

  9
$DIMALT
 70
    0
  9
$DIMALTD
 70
    3
  9
$DIMALTF
 40
0.03937
  9
$DIMLFAC
 40
1
  9
$DIMTOFL
 70
    1
  9
$DIMTVP
 40
0
  9
$DIMTIX
 70
    0
  9
$DIMSOXD
 70
    0
  9
$DIMSAH
 70
    0
  9
$DIMBLK1
  1

  9
$DIMBLK2
  1

  9
$DIMSTYLE
  2
Standard
  9
$DIMCLRD
 70
    0
  9
$DIMCLRE
 70
    0
  9
$DIMCLRT
 70
    0
  9
$DIMTFAC
 40
1
  9
$DIMGAP
 40
3.125
  9
$DIMJUST
 70
    0
  9
$DIMSD1
 70
    0
  9
$DIMSD2
 70
    0
  9
$DIMTOLJ
 70
    0
  9
$DIMTZIN
 70
    8
  9
$DIMALTZ
 70
    0
  9
$DIMALTTZ
 70
    0
  9
$DIMUPT
 70
    0
  9
$DIMDEC
 70
    2
  9
$DIMTDEC
 70
    2
  9
$DIMALTU
 70
    2
  9
$DIMALTTD
 70
    3
  9
$DIMTXSTY
  7
standard
  9
$DIMAUNIT
 70
    0
  9
$DIMADEC
 70
    0
  9
$DIMALTRND
 40
0
  9
$DIMAZIN
 70
    0
  9
$DIMDSEP
 70
    0
  9
$DIMATFIT
 70
    3
  9
$DIMFRAC
 70
    0
  9
$DIMLDRBLK
  1
STANDARD
  9
$DIMLUNIT
 70
    4
  9
$DIMLWD
 70
   -2
  9
$DIMLWE
 70
   -2
  9
$DIMTMOVE
 70
    0
  9
$DIMFXL
 40
0.04
  9
$DIMFXLON
 70
    0
  9
$DIMJOGANG
 40
0.7854
  9
$DIMTFILL
 70
    0
  9
$DIMTFILLCLR
 70
    0
  9
$DIMARCSYM
 70
    0
  9
$DIMLTYPE
  6

  9
$DIMLTEX1
  6

  9
$DIMLTEX2
  6

  9
$LUNITS
 70
    2
  9
$LUPREC
 70
    4
  9
$SKETCHINC
 40
1
  9
$FILLETRAD
 40
0
  9
$AUNITS
 70
    0
  9
$AUPREC
 70
    2
  9
$MENU
  1
.
  9
$ELEVATION
 40
0
  9
$PELEVATION
 40
0
  9
$THICKNESS
 40
0
  9
$LIMCHECK
 70
    0
  9
$CHAMFERA
 40
0
  9
$CHAMFERB
 40
0
  9
$CHAMFERC
 40
0
  9
$CHAMFERD
 40
0
  9
$SKPOLY
 70
    0
  9
$USRTIMER
 70
    1
  9
$ANGBASE
 50
0
  9
$ANGDIR
 70
    0
  9
$PDMODE
 70
   34
  9
$PDSIZE
 40
0
  9
$PLINEWID
 40
0
  9
$SPLFRAME
 70
    0
  9
$SPLINETYPE
 70
    2
  9
$SPLINESEGS
 70
    8
  9
$HANDSEED
  5
20000
  9
$SURFTAB1
 70
    6
  9
$SURFTAB2
 70
    6
  9
$SURFTYPE
 70
    6
  9
$SURFU
 70
    6
  9
$SURFV
 70
    6
  9
$UCSBASE
  2

  9
$UCSNAME
  2

  9
$UCSORG
 10
0
 20
0
 30
0
  9
$UCSXDIR
 10
1
 20
0
 30
0
  9
$UCSYDIR
 10
0
 20
1
 30
0
  9
$UCSORTHOREF
  2

  9
$UCSORTHOVIEW
 70
    0
  9
$UCSORGTOP
 10
0
 20
0
 30
0
  9
$UCSORGBOTTOM
 10
0
 20
0
 30
0
  9
$UCSORGLEFT
 10
0
 20
0
 30
0
  9
$UCSORGRIGHT
 10
0
 20
0
 30
0
  9
$UCSORGFRONT
 10
0
 20
0
 30
0
  9
$UCSORGBACK
 10
0
 20
0
 30
0
  9
$PUCSBASE
  2

  9
$PUCSNAME
  2

  9
$PUCSORG
 10
0
 20
0
 30
0
  9
$PUCSXDIR
 10
1
 20
0
 30
0
  9
$PUCSYDIR
 10
0
 20
1
 30
0
  9
$PUCSORTHOREF
  2

  9
$PUCSORTHOVIEW
 70
    0
  9
$PUCSORGTOP
 10
0
 20
0
 30
0
  9
$PUCSORGBOTTOM
 10
0
 20
0
 30
0
  9
$PUCSORGLEFT
 10
0
 20
0
 30
0
  9
$PUCSORGRIGHT
 10
0
 20
0
 30
0
  9
$PUCSORGFRONT
 10
0
 20
0
 30
0
  9
$PUCSORGBACK
 10
0
 20
0
 30
0
  9
$USERI1
 70
    0
  9
$USERI2
 70
    0
  9
$USERI3
 70
    0
  9
$USERI4
 70
    0
  9
$USERI5
 70
    0
  9
$USERR1
 40
0
  9
$USERR2
 40
0
  9
$USERR3
 40
0
  9
$USERR4
 40
0
  9
$USERR5
 40
0
  9
$WORLDVIEW
 70
    1
  9
$SHADEDGE
 70
    3
  9
$SHADEDIF
 70
   70
  9
$TILEMODE
 70
    1
  9
$MAXACTVP
 70
   64
  9
$PINSBASE
 10
1.5
 20
2.210000000000002
 30
0
  9
$PLIMCHECK
 70
    0
  9
$PEXTMIN
 10
0
 20
0
 30
0
  9
$PEXTMAX
 10
0
 20
0
 30
0
  9
$GRIDMODE
 70
    1
  9
$SNAPSTYLE
 70
    0
  9
$GRIDUNIT
 10
0
 20
0
  9
$PLIMMIN
 10
0
 20
0
  9
$PLIMMAX
 10
11
 20
8.5
  9
$UNITMODE
 70
    0
  9
$VISRETAIN
 70
    1
  9
$PLINEGEN
 70
    0
  9
$PSLTSCALE
 70
    1
  9
$TREEDEPTH
 70
 3020
  9
$CMLSTYLE
  2
Standard
  9
$CMLJUST
 70
    0
  9
$CMLSCALE
 40
20
  9
$PROXYGRAPHICS
 70
    1
  9
$MEASUREMENT
 70
    1
  9
$CELWEIGHT
370
   -1
  9
$ENDCAPS
280
    0
  9
$JOINSTYLE
280
    0
  9
$LWDISPLAY
290
    0
  9
$INSUNITS
 70
    1
  9
$HYPERLINKBASE
  1

  9
$STYLESHEET
  1

  9
$XEDIT
290
    1
  9
$CEPSNTYPE
380
    0
  9
$PSTYLEMODE
290
    1
  9
$EXTNAMES
290
    1
  9
$PSVPSCALE
 40
0.02
  9
$OLESTARTUP
290
    0
  9
$SORTENTS
280
  127
  9
$INDEXCTL
280
    0
  9
$HIDETEXT
280
    1
  9
$XCLIPFRAME
290
    0
  9
$HALOGAP
280
    0
  9
$OBSCOLOR
 70
  257
  9
$OBSLTYPE
280
    0
  9
$INTERSECTIONDISPLAY
280
    0
  9
$INTERSECTIONCOLOR
 70
  257
  9
$DIMASSOC
280
    1
  9
$PROJECTNAME
  1

  9
$CAMERADISPLAY
290
    0
  9
$LENSLENGTH
 40
50
  9
$CAMERAHEIGHT
 40
0
  9
$STEPSPERSEC
 40
2
  9
$STEPSIZE
 40
50
  9
$3DDWFPREC
 40
2
  9
$PSOLWIDTH
 40
5
  9
$PSOLHEIGHT
 40
80
  9
$LOFTANG1
 40
1.570796326794897
  9
$LOFTANG2
 40
1.570796326794897
  9
$LOFTMAG1
 40
0
  9
$LOFTMAG2
 40
0
  9
$LOFTPARAM
 70
    7
  9
$LOFTNORMALS
280
    1
  9
$LATITUDE
 40
1
  9
$LONGITUDE
 40
1
  9
$NORTHDIRECTION
 40
0
  9
$TIMEZONE
 70
-8000
  9
$LIGHTGLYPHDISPLAY
280
    1
  9
$TILEMODELIGHTSYNCH
280
    1
  9
$SOLIDHIST
280
    1
  9
$SHOWHIST
280
    1
  9
$DWFFRAME
280
    2
  9
$DGNFRAME
280
    0
  9
$REALWORLDSCALE
290
    1
  9
$INTERFERECOLOR
 62
    1
  9
$CSHADOW
280
    0
  9
$SHADOWPLANELOCATION
 40
0
  0
ENDSEC
  0
SECTION
  2
CLASSES
  0
ENDSEC
  0
SECTION
  2
TABLES
  0
TABLE
  2
VPORT
  5
8
330
0
100
AcDbSymbolTable
 70
    1
  0
VPORT
  5
31
330
2
100
AcDbSymbolTableRecord
100
AcDbViewportTableRecord
  2
*ACTIVE
 70
    0
 10
0
 20
0
 11
1
 21
1
 12
284.7007722007723
 22
159.9903474903475
 13
0
 23
0
 14
10
 24
10
 15
10
 25
10
 16
0
 26
0
 36
1
 17
0
 27
0
 37
0
 40
435.9395109395111
 41
1.693851944792974
 42
50
 43
0
 44
0
 50
0
 51
0
 71
    0
 72
  100
 73
    1
 74
    3
 75
    0
 76
    1
 77
    0
 78
    0
281
    0
 65
    1
110
0
120
0
130
0
111
1
121
0
131
0
112
0
122
1
132
0
 79
    0
146
0
348
10020
 60
    7
 61
    5
292
1
282
    1
141
0
142
0
 63
  250
421
3358443
  0
ENDTAB
  0
TABLE
  2
LTYPE
  5
5
330
0
100
AcDbSymbolTable
 70
    4
  0
LTYPE
  5
14
330
5
100
AcDbSymbolTableRecord
100
AcDbLinetypeTableRecord
  2
ByBlock
 70
    0
  3

 72
   65
 73
    0
 40
0
  0
LTYPE
  5
15
330
5
100
AcDbSymbolTableRecord
100
AcDbLinetypeTableRecord
  2
ByLayer
 70
    0
  3

 72
   65
 73
    0
 40
0
  0
LTYPE
  5
16
330
5
100
AcDbSymbolTableRecord
100
AcDbLinetypeTableRecord
  2
Continuous
 70
    0
  3
Solid line
 72
   65
 73
    0
 40
0
  0
LTYPE
  5
32
330
5
100
AcDbSymbolTableRecord
100
AcDbLinetypeTableRecord
  2
DOT
 70
    0
  3
Dot . . . . . . . . . . . . . . . . . . . . . .
 72
   65
 73
    2
 40
6.35
 49
0
 74
    0
 49
-6.35
 74
    0
  0
LTYPE
  5
33
330
5
100
AcDbSymbolTableRecord
100
AcDbLinetypeTableRecord
  2
DOTTINY
 70
    0
  3
Dot (.15x) .....................................
 72
   65
 73
    2
 40
0.9525
 49
0
 74
    0
 49
-0.9525
 74
    0
  0
LTYPE
  5
34
330
5
100
AcDbSymbolTableRecord
100
AcDbLinetypeTableRecord
  2
DOT2
 70
    0
  3
Dot (.5x) .....................................
 72
   65
 73
    2
 40
3.175
 49
0
 74
    0
 49
-3.175
 74
    0
  0
LTYPE
  5
35
330
5
100
AcDbSymbolTableRecord
100
AcDbLinetypeTableRecord
  2
DOTX2
 70
    0
  3
Dot (2x) .  .  .  .  .  .  .  .  .  .  .  .  .
 72
   65
 73
    2
 40
12.7
 49
0
 74
    0
 49
-12.7
 74
    0
  0
LTYPE
  5
36
330
5
100
AcDbSymbolTableRecord
100
AcDbLinetypeTableRecord
  2
DASHED
 70
    0
  3
Dashed _ _ _ _ _ _ _ _ _ _ _ _ _ _ _ _ _
 72
   65
 73
    2
 40
19.05
 49
12.7
 74
    0
 49
-6.35
 74
    0
  0
LTYPE
  5
37
330
5
100
AcDbSymbolTableRecord
100
AcDbLinetypeTableRecord
  2
DASHEDTINY
 70
    0
  3
Dashed (.15x) _ _ _ _ _ _ _ _ _ _ _ _ _ _ _ _ _
 72
   65
 73
    2
 40
2.8575
 49
1.905
 74
    0
 49
-0.9525
 74
    0
  0
LTYPE
  5
38
330
5
100
AcDbSymbolTableRecord
100
AcDbLinetypeTableRecord
  2
DASHED2
 70
    0
  3
Dashed (.5x) _ _ _ _ _ _ _ _ _ _ _ _ _ _ _ _ _
 72
   65
 73
    2
 40
9.524999999999999
 49
6.35
 74
    0
 49
-3.175
 74
    0
  0
LTYPE
  5
39
330
5
100
AcDbSymbolTableRecord
100
AcDbLinetypeTableRecord
  2
DASHEDX2
 70
    0
  3
Dashed (2x) ____  ____  ____  ____  ____  ___
 72
   65
 73
    2
 40
38.09999999999999
 49
25.4
 74
    0
 49
-12.7
 74
    0
  0
LTYPE
  5
3A
330
5
100
AcDbSymbolTableRecord
100
AcDbLinetypeTableRecord
  2
DASHDOT
 70
    0
  3
Dash dot __ . __ . __ . __ . __ . __ . __ . __
 72
   65
 73
    4
 40
25.4
 49
12.7
 74
    0
 49
-6.35
 74
    0
 49
0
 74
    0
 49
-6.35
 74
    0
  0
LTYPE
  5
3B
330
5
100
AcDbSymbolTableRecord
100
AcDbLinetypeTableRecord
  2
DASHDOTTINY
 70
    0
  3
Dash dot (.15x) _._._._._._._._._._._._._._._.
 72
   65
 73
    4
 40
3.81
 49
1.905
 74
    0
 49
-0.9525
 74
    0
 49
0
 74
    0
 49
-0.9525
 74
    0
  0
LTYPE
  5
3C
330
5
100
AcDbSymbolTableRecord
100
AcDbLinetypeTableRecord
  2
DASHDOT2
 70
    0
  3
Dash dot (.5x) _._._._._._._._._._._._._._._.
 72
   65
 73
    4
 40
12.7
 49
6.35
 74
    0
 49
-3.175
 74
    0
 49
0
 74
    0
 49
-3.175
 74
    0
  0
LTYPE
  5
3D
330
5
100
AcDbSymbolTableRecord
100
AcDbLinetypeTableRecord
  2
DASHDOTX2
 70
    0
  3
Dash dot (2x) ____  .  ____  .  ____  .  ___
 72
   65
 73
    4
 40
50.8
 49
25.4
 74
    0
 49
-12.7
 74
    0
 49
0
 74
    0
 49
-12.7
 74
    0
  0
LTYPE
  5
3E
330
5
100
AcDbSymbolTableRecord
100
AcDbLinetypeTableRecord
  2
DIVIDE
 70
    0
  3
Divide ____ . . ____ . . ____ . . ____ . . ____
 72
   65
 73
    6
 40
31.75
 49
12.7
 74
    0
 49
-6.35
 74
    0
 49
0
 74
    0
 49
-6.35
 74
    0
 49
0
 74
    0
 49
-6.35
 74
    0
  0
LTYPE
  5
3F
330
5
100
AcDbSymbolTableRecord
100
AcDbLinetypeTableRecord
  2
DIVIDETINY
 70
    0
  3
Divide (.15x) __..__..__..__..__..__..__..__.._
 72
   65
 73
    6
 40
4.7625
 49
1.905
 74
    0
 49
-0.9525
 74
    0
 49
0
 74
    0
 49
-0.9525
 74
    0
 49
0
 74
    0
 49
-0.9525
 74
    0
  0
LTYPE
  5
40
330
5
100
AcDbSymbolTableRecord
100
AcDbLinetypeTableRecord
  2
DIVIDE2
 70
    0
  3
Divide (.5x) __..__..__..__..__..__..__..__.._
 72
   65
 73
    6
 40
15.875
 49
6.35
 74
    0
 49
-3.175
 74
    0
 49
0
 74
    0
 49
-3.175
 74
    0
 49
0
 74
    0
 49
-3.175
 74
    0
  0
LTYPE
  5
41
330
5
100
AcDbSymbolTableRecord
100
AcDbLinetypeTableRecord
  2
DIVIDEX2
 70
    0
  3
Divide (2x) ________  .  .  ________  .  .  _
 72
   65
 73
    6
 40
63.5
 49
25.4
 74
    0
 49
-12.7
 74
    0
 49
0
 74
    0
 49
-12.7
 74
    0
 49
0
 74
    0
 49
-12.7
 74
    0
  0
LTYPE
  5
42
330
5
100
AcDbSymbolTableRecord
100
AcDbLinetypeTableRecord
  2
BORDER
 70
    0
  3
Border __ __ . __ __ . __ __ . __ __ . __ __ .
 72
   65
 73
    6
 40
44.45
 49
12.7
 74
    0
 49
-6.35
 74
    0
 49
12.7
 74
    0
 49
-6.35
 74
    0
 49
0
 74
    0
 49
-6.35
 74
    0
  0
LTYPE
  5
43
330
5
100
AcDbSymbolTableRecord
100
AcDbLinetypeTableRecord
  2
BORDERTINY
 70
    0
  3
Border (.15x) __.__.__.__.__.__.__.__.__.__.__.
 72
   65
 73
    6
 40
6.6675
 49
1.905
 74
    0
 49
-0.9525
 74
    0
 49
1.905
 74
    0
 49
-0.9525
 74
    0
 49
0
 74
    0
 49
-0.9525
 74
    0
  0
LTYPE
  5
44
330
5
100
AcDbSymbolTableRecord
100
AcDbLinetypeTableRecord
  2
BORDER2
 70
    0
  3
Border (.5x) __.__.__.__.__.__.__.__.__.__.__.
 72
   65
 73
    6
 40
22.225
 49
6.35
 74
    0
 49
-3.175
 74
    0
 49
6.35
 74
    0
 49
-3.175
 74
    0
 49
0
 74
    0
 49
-3.175
 74
    0
  0
LTYPE
  5
45
330
5
100
AcDbSymbolTableRecord
100
AcDbLinetypeTableRecord
  2
BORDERX2
 70
    0
  3
Border (2x) ____  ____  .  ____  ____  .  ___
 72
   65
 73
    6
 40
88.89999999999999
 49
25.4
 74
    0
 49
-12.7
 74
    0
 49
25.4
 74
    0
 49
-12.7
 74
    0
 49
0
 74
    0
 49
-12.7
 74
    0
  0
LTYPE
  5
46
330
5
100
AcDbSymbolTableRecord
100
AcDbLinetypeTableRecord
  2
CENTER
 70
    0
  3
Center ____ _ ____ _ ____ _ ____ _ ____ _ ____
 72
   65
 73
    4
 40
50.8
 49
31.75
 74
    0
 49
-6.35
 74
    0
 49
6.35
 74
    0
 49
-6.35
 74
    0
  0
LTYPE
  5
47
330
5
100
AcDbSymbolTableRecord
100
AcDbLinetypeTableRecord
  2
CENTERTINY
 70
    0
  3
Center (.15x) ___ _ ___ _ ___ _ ___ _ ___ _ ___
 72
   65
 73
    4
 40
7.62
 49
4.7625
 74
    0
 49
-0.9525
 74
    0
 49
0.9525
 74
    0
 49
-0.9525
 74
    0
  0
LTYPE
  5
48
330
5
100
AcDbSymbolTableRecord
100
AcDbLinetypeTableRecord
  2
CENTER2
 70
    0
  3
Center (.5x) ___ _ ___ _ ___ _ ___ _ ___ _ ___
 72
   65
 73
    4
 40
28.575
 49
19.05
 74
    0
 49
-3.175
 74
    0
 49
3.175
 74
    0
 49
-3.175
 74
    0
  0
LTYPE
  5
49
330
5
100
AcDbSymbolTableRecord
100
AcDbLinetypeTableRecord
  2
CENTERX2
 70
    0
  3
Center (2x) ________  __  ________  __  _____
 72
   65
 73
    4
 40
101.6
 49
63.5
 74
    0
 49
-12.7
 74
    0
 49
12.7
 74
    0
 49
-12.7
 74
    0
  0
ENDTAB
  0
TABLE
  2
LAYER
  5
2
330
0
100
AcDbSymbolTable
 70
    1
  0
LAYER
  5
10
330
2
100
AcDbSymbolTableRecord
100
AcDbLayerTableRecord
  2
0
 70
    0
 62
    7
  6
CONTINUOUS
370
    0
390
F
  0
LAYER
  5
4A
330
2
100
AcDbSymbolTableRecord
100
AcDbLayerTableRecord
  2
A_noname
 70
    0
 62
    3
  6
CONTINUOUS
290
0
370
    0
390
F
1001
LibreCad
1070
    1
  0
LAYER
  5
4B
330
2
100
AcDbSymbolTableRecord
100
AcDbLayerTableRecord
  2
Actual_Closets
 70
    0
 62
   56
420
8421376
  6
CONTINUOUS
370
    0
390
F
  0
LAYER
  5
4C
330
2
100
AcDbSymbolTableRecord
100
AcDbLayerTableRecord
  2
Actual_Rooms
 70
    0
 62
  216
420
8388736
  6
CONTINUOUS
370
    0
390
F
  0
LAYER
  5
4D
330
2
100
AcDbSymbolTableRecord
100
AcDbLayerTableRecord
  2
Actual_Walls
 70
    0
 62
    7
  6
CONTINUOUS
370
    0
390
F
  0
LAYER
  5
4E
330
2
100
AcDbSymbolTableRecord
100
AcDbLayerTableRecord
  2
Actual_Walls_Fridge
 70
    0
 62
    5
  6
CONTINUOUS
370
    0
390
F
  0
LAYER
  5
4F
330
2
100
AcDbSymbolTableRecord
100
AcDbLayerTableRecord
  2
Actual_Walls_Laundry
 70
    0
 62
    5
  6
CONTINUOUS
370
    0
390
F
  0
LAYER
  5
50
330
2
100
AcDbSymbolTableRecord
100
AcDbLayerTableRecord
  2
Door
 70
    0
 62
    7
  6
CONTINUOUS
370
   -3
390
F
  0
LAYER
  5
51
330
2
100
AcDbSymbolTableRecord
100
AcDbLayerTableRecord
  2
dim
 70
    0
 62
    1
  6
CONTINUOUS
370
    5
390
F
  0
LAYER
  5
52
330
2
100
AcDbSymbolTableRecord
100
AcDbLayerTableRecord
  2
elev
 70
    0
 62
   13
  6
CONTINUOUS
370
   -3
390
F
  0
LAYER
  5
53
330
2
100
AcDbSymbolTableRecord
100
AcDbLayerTableRecord
  2
frame
 70
    0
 62
    3
  6
CONTINUOUS
370
   18
390
F
  0
LAYER
  5
54
330
2
100
AcDbSymbolTableRecord
100
AcDbLayerTableRecord
  2
labels
 70
    0
 62
    4
  6
CONTINUOUS
370
    0
390
F
  0
LAYER
  5
55
330
2
100
AcDbSymbolTableRecord
100
AcDbLayerTableRecord
  2
ticks
 70
    0
 62
    6
  6
CONTINUOUS
370
    0
390
F
  0
LAYER
  5
56
330
2
100
AcDbSymbolTableRecord
100
AcDbLayerTableRecord
  2
wood
 70
    0
 62
    9
  6
CONTINUOUS
370
   -3
390
F
  0
ENDTAB
  0
TABLE
  2
STYLE
  5
3
330
0
100
AcDbSymbolTable
 70
    3
  0
STYLE
  5
57
330
2
100
AcDbSymbolTableRecord
100
AcDbTextStyleTableRecord
  2
iso
 70
    0
 40
0
 41
1
 50
0
 71
    0
 42
1
  3
iso
  4

  0
STYLE
  5
58
330
2
100
AcDbSymbolTableRecord
100
AcDbTextStyleTableRecord
  2
standard
 70
    0
 40
0
 41
1
 50
0
 71
    0
 42
1
  3
standard
  4

  0
ENDTAB
  0
TABLE
  2
VIEW
  5
6
330
0
100
AcDbSymbolTable
 70
    0
  0
ENDTAB
  0
TABLE
  2
UCS
  5
7
330
0
100
AcDbSymbolTable
 70
    0
  0
ENDTAB
  0
TABLE
  2
APPID
  5
9
330
0
100
AcDbSymbolTable
 70
    1
  0
APPID
  5
12
330
9
100
AcDbSymbolTableRecord
100
AcDbRegAppTableRecord
  2
ACAD
 70
    0
  0
APPID
  5
59
330
9
100
AcDbSymbolTableRecord
100
AcDbRegAppTableRecord
  2
LibreCad
 70
    0
  0
ENDTAB
  0
TABLE
  2
DIMSTYLE
  5
A
330
0
100
AcDbSymbolTable
 70
    1
100
AcDbDimStyleTable
 71
    1
  0
DIMSTYLE
105
5A
330
A
100
AcDbSymbolTableRecord
100
AcDbDimStyleTableRecord
  2
Standard
 70
    0
 40
1
 41
6.25
 42
3.125
 43
0.38
 44
3.125
 45
0
 46
0
 47
0
 48
0
 49
0.04
140
6.25
141
0.09
142
0
143
25.4
144
1
145
0
146
1
147
3.125
148
0
 71
    0
 72
    0
 73
    0
 74
    1
 75
    0
 76
    0
 77
    0
 78
    1
 79
    0
170
    0
171
    2
172
    0
173
    0
174
    0
175
    0
176
    0
177
    0
178
    0
179
    0
271
    2
272
    4
273
    2
274
    2
275
    0
276
    0
277
    4
278
    0
279
    0
280
    0
281
    0
282
    0
283
    1
284
    0
285
    0
286
    0
288
    0
289
    3
340
standard
341

371
   -2
372
   -2
  0
ENDTAB
  0
TABLE
  2
BLOCK_RECORD
  5
1
330
0
100
AcDbSymbolTable
 70
    2
  0
BLOCK_RECORD
  5
1F
330
1
100
AcDbSymbolTableRecord
100
AcDbBlockTableRecord
  2
*Model_Space
 70
    0
280
    1
281
    0
  0
BLOCK_RECORD
  5
1E
330
1
100
AcDbSymbolTableRecord
100
AcDbBlockTableRecord
  2
*Paper_Space
 70
    0
280
    1
281
    0
  0
BLOCK_RECORD
  5
5B
330
1
100
AcDbSymbolTableRecord
100
AcDbBlockTableRecord
  2
*D1
 70
    0
280
    1
281
    0
  0
BLOCK_RECORD
  5
5E
330
1
100
AcDbSymbolTableRecord
100
AcDbBlockTableRecord
  2
*D4
 70
    0
280
    1
281
    0
  0
BLOCK_RECORD
  5
61
330
1
100
AcDbSymbolTableRecord
100
AcDbBlockTableRecord
  2
*D9
 70
    0
280
    1
281
    0
  0
BLOCK_RECORD
  5
64
330
1
100
AcDbSymbolTableRecord
100
AcDbBlockTableRecord
  2
*D11
 70
    0
280
    1
281
    0
  0
BLOCK_RECORD
  5
67
330
1
100
AcDbSymbolTableRecord
100
AcDbBlockTableRecord
  2
*D3
 70
    0
280
    1
281
    0
  0
BLOCK_RECORD
  5
6A
330
1
100
AcDbSymbolTableRecord
100
AcDbBlockTableRecord
  2
*D7
 70
    0
280
    1
281
    0
  0
BLOCK_RECORD
  5
6D
330
1
100
AcDbSymbolTableRecord
100
AcDbBlockTableRecord
  2
*D6
 70
    0
280
    1
281
    0
  0
BLOCK_RECORD
  5
70
330
1
100
AcDbSymbolTableRecord
100
AcDbBlockTableRecord
  2
*D2
 70
    0
280
    1
281
    0
  0
BLOCK_RECORD
  5
73
330
1
100
AcDbSymbolTableRecord
100
AcDbBlockTableRecord
  2
*D8
 70
    0
280
    1
281
    0
  0
BLOCK_RECORD
  5
76
330
1
100
AcDbSymbolTableRecord
100
AcDbBlockTableRecord
  2
*D10
 70
    0
280
    1
281
    0
  0
BLOCK_RECORD
  5
79
330
1
100
AcDbSymbolTableRecord
100
AcDbBlockTableRecord
  2
*D12
 70
    0
280
    1
281
    0
  0
BLOCK_RECORD
  5
7C
330
1
100
AcDbSymbolTableRecord
100
AcDbBlockTableRecord
  2
*D5
 70
    0
280
    1
281
    0
  0
BLOCK_RECORD
  5
7F
330
1
100
AcDbSymbolTableRecord
100
AcDbBlockTableRecord
  2
US Projection 3rd Angle-0
 70
    0
280
    1
281
    0
  0
BLOCK_RECORD
  5
82
330
1
100
AcDbSymbolTableRecord
100
AcDbBlockTableRecord
  2
Title_Block-0
 70
    0
280
    1
281
    0
  0
BLOCK_RECORD
  5
85
330
1
100
AcDbSymbolTableRecord
100
AcDbBlockTableRecord
  2
Door
 70
    0
280
    1
281
    0
  0
BLOCK_RECORD
  5
88
330
1
100
AcDbSymbolTableRecord
100
AcDbBlockTableRecord
  2
Room_Labels
 70
    0
280
    1
281
    0
  0
BLOCK_RECORD
  5
8B
330
1
100
AcDbSymbolTableRecord
100
AcDbBlockTableRecord
  2
Floor_Plan
 70
    0
280
    1
281
    0
  0
ENDTAB
  0
ENDSEC
  0
SECTION
  2
BLOCKS
  0
BLOCK
  5
20
330
1F
100
AcDbEntity
  8
0
100
AcDbBlockBegin
  2
*Model_Space
 70
    0
 10
0
 20
0
 30
0
  3
*Model_Space
  1

  0
ENDBLK
  5
21
330
1F
100
AcDbEntity
  8
0
100
AcDbBlockEnd
  0
BLOCK
  5
1C
330
1B
100
AcDbEntity
  8
0
100
AcDbBlockBegin
  2
*Paper_Space
 70
    0
 10
0
 20
0
 30
0
  3
*Paper_Space
  1

  0
ENDBLK
  5
1D
330
1F
100
AcDbEntity
  8
0
100
AcDbBlockEnd
  0
BLOCK
  5
5C
330
5B
100
AcDbEntity
  8
0
100
AcDbBlockBegin
  2
*D1
 70
    1
 10
0
 20
0
  3
*D1
  1

  0
LINE
  5
8E
100
AcDbEntity
  8
dim
  6
CONTINUOUS
 62
    7
370
    0
100
AcDbLine
 10
285.5625
 20
173.1011987520772
 11
300
 21
173
  0
SOLID
  5
8F
100
AcDbEntity
  8
dim
  6
CONTINUOUS
 62
    7
370
    0
100
AcDbTrace
 10
285.5625
 20
173.1011987520772
 30
0
 11
291.8196410913911
 21
174.0980769238119
 31
0
 12
291.8050518435971
 22
172.0167047655291
 32
0
 13
291.8050518435971
 23
172.0167047655291
 33
0
  0
ENDBLK
  5
5D
330
5B
100
AcDbEntity
  8
0
100
AcDbBlockEnd
  0
BLOCK
  5
5F
330
5E
100
AcDbEntity
  8
0
100
AcDbBlockBegin
  2
*D4
 70
    1
 10
0
 20
0
  3
*D4
  1

  0
LINE
  5
90
100
AcDbEntity
  8
dim
  6
CONTINUOUS
 62
    7
370
    0
100
AcDbLine
 10
160.875
 20
239.9993564993565
 11
170
 21
240
  0
SOLID
  5
91
100
AcDbEntity
  8
dim
  6
CONTINUOUS
 62
    7
370
    0
100
AcDbTrace
 10
160.875
 20
239.9993564993565
 30
0
 11
167.1249265928303
 21
241.0405088950651
 31
0
 12
167.1250733760875
 22
238.9590856113765
 32
0
 13
167.1250733760875
 23
238.9590856113765
 33
0
  0
ENDBLK
  5
60
330
5E
100
AcDbEntity
  8
0
100
AcDbBlockEnd
  0
BLOCK
  5
62
330
61
100
AcDbEntity
  8
0
100
AcDbBlockBegin
  2
*D9
 70
    1
 10
0
 20
0
  3
*D9
  1

  0
LINE
  5
92
100
AcDbEntity
  8
dim
  6
CONTINUOUS
 62
    7
370
    0
100
AcDbLine
 10
126.875
 20
164.4594594594595
 11
140
 21
164.4594594594595
  0
LINE
  5
93
100
AcDbEntity
  8
dim
  6
CONTINUOUS
 62
    7
370
    0
100
AcDbLine
 10
140
 20
164.4594594594595
 11
150
 21
150
  0
SOLID
  5
94
100
AcDbEntity
  8
dim
  6
CONTINUOUS
 62
    7
370
    0
100
AcDbTrace
 10
126.875
 20
164.4594594594595
 30
0
 11
133.125
 21
165.5001711038916
 31
0
 12
133.125
 22
163.4187478150274
 32
0
 13
133.125
 23
163.4187478150274
 33
0
  0
ENDBLK
  5
63
330
61
100
AcDbEntity
  8
0
100
AcDbBlockEnd
  0
BLOCK
  5
65
330
64
100
AcDbEntity
  8
0
100
AcDbBlockBegin
  2
*D11
 70
    1
 10
0
 20
0
  3
*D11
  1

  0
LINE
  5
95
100
AcDbEntity
  8
dim
  6
CONTINUOUS
 62
    7
370
    0
100
AcDbLine
 10
279.5625
 20
160.0542953667954
 11
270
 21
160.0542953667954
  0
LINE
  5
96
100
AcDbEntity
  8
dim
  6
CONTINUOUS
 62
    7
370
    0
100
AcDbLine
 10
270
 20
160.0542953667954
 11
260
 21
170
  0
SOLID
  5
97
100
AcDbEntity
  8
dim
  6
CONTINUOUS
 62
    7
370
    0
100
AcDbTrace
 10
279.5625
 20
160.0542953667954
 30
0
 11
273.3125
 21
159.0135837223633
 31
0
 12
273.3125
 22
161.0950070112275
 32
0
 13
273.3125
 23
161.0950070112275
 33
0
  0
ENDBLK
  5
66
330
64
100
AcDbEntity
  8
0
100
AcDbBlockEnd
  0
BLOCK
  5
68
330
67
100
AcDbEntity
  8
0
100
AcDbBlockBegin
  2
*D3
 70
    1
 10
0
 20
0
  3
*D3
  1

  0
LINE
  5
98
100
AcDbEntity
  8
dim
  6
CONTINUOUS
 62
    7
370
    0
100
AcDbLine
 10
228.2272361647362
 20
283.5625
 11
230
 21
270
  0
SOLID
  5
99
100
AcDbEntity
  8
dim
  6
CONTINUOUS
 62
    7
370
    0
100
AcDbTrace
 10
228.2272361647362
 20
283.5625
 30
0
 11
230.069220893307
 21
277.5001017133012
 31
0
 12
228.0053538139391
 22
277.2303322077458
 32
0
 13
228.0053538139391
 23
277.2303322077458
 33
0
  0
ENDBLK
  5
69
330
67
100
AcDbEntity
  8
0
100
AcDbBlockEnd
  0
BLOCK
  5
6B
330
6A
100
AcDbEntity
  8
0
100
AcDbBlockBegin
  2
*D7
 70
    1
 10
0
 20
0
  3
*D7
  1

  0
LINE
  5
9A
100
AcDbEntity
  8
dim
  6
CONTINUOUS
 62
    7
370
    0
100
AcDbLine
 10
309.9313518367802
 20
283.5625
 11
310
 21
270
  0
SOLID
  5
9B
100
AcDbEntity
  8
dim
  6
CONTINUOUS
 62
    7
370
    0
100
AcDbTrace
 10
309.9313518367802
 20
283.5625
 30
0
 11
311.0036848429972
 21
277.3178476757602
 31
0
 12
308.9222882166049
 22
277.3073124458738
 32
0
 13
308.9222882166049
 23
277.3073124458738
 33
0
  0
ENDBLK
  5
6C
330
6A
100
AcDbEntity
  8
0
100
AcDbBlockEnd
  0
BLOCK
  5
6E
330
6D
100
AcDbEntity
  8
0
100
AcDbBlockBegin
  2
*D6
 70
    1
 10
0
 20
0
  3
*D6
  1

  0
LINE
  5
9C
100
AcDbEntity
  8
dim
  6
CONTINUOUS
 62
    7
370
    0
100
AcDbLine
 10
310.3857966341948
 20
163.5625
 11
310
 21
180
  0
SOLID
  5
9D
100
AcDbEntity
  8
dim
  6
CONTINUOUS
 62
    7
370
    0
100
AcDbTrace
 10
310.3857966341948
 20
163.5625
 30
0
 11
309.1987211685939
 21
169.7863599410514
 31
0
 12
311.2795714023765
 22
169.8351985732313
 32
0
 13
311.2795714023765
 23
169.8351985732313
 33
0
  0
ENDBLK
  5
6F
330
6D
100
AcDbEntity
  8
0
100
AcDbBlockEnd
  0
BLOCK
  5
71
330
70
100
AcDbEntity
  8
0
100
AcDbBlockBegin
  2
*D2
 70
    1
 10
0
 20
0
  3
*D2
  1

  0
LINE
  5
9E
100
AcDbEntity
  8
dim
  6
CONTINUOUS
 62
    7
370
    0
100
AcDbLine
 10
285.46875
 20
266.9760800637525
 11
299.90625
 21
266.8748813116754
  0
SOLID
  5
9F
100
AcDbEntity
  8
dim
  6
CONTINUOUS
 62
    7
370
    0
100
AcDbTrace
 10
285.46875
 20
266.9760800637525
 30
0
 11
291.7258910913911
 21
267.9729582354872
 31
0
 12
291.7113018435971
 22
265.8915860772044
 32
0
 13
291.7113018435971
 23
265.8915860772044
 33
0
  0
ENDBLK
  5
72
330
70
100
AcDbEntity
  8
0
100
AcDbBlockEnd
  0
BLOCK
  5
74
330
73
100
AcDbEntity
  8
0
100
AcDbBlockBegin
  2
*D8
 70
    1
 10
0
 20
0
  3
*D8
  1

  0
LINE
  5
A0
100
AcDbEntity
  8
dim
  6
CONTINUOUS
 62
    7
370
    0
100
AcDbLine
 10
318.5625
 20
239.9468530349266
 11
295
 21
240
  0
SOLID
  5
A1
100
AcDbEntity
  8
dim
  6
CONTINUOUS
 62
    7
370
    0
100
AcDbTrace
 10
318.5625
 20
239.9468530349266
 30
0
 11
312.3101685024604
 21
238.9202413402093
 31
0
 12
312.3148632950094
 22
241.0016593343539
 32
0
 13
312.3148632950094
 23
241.0016593343539
 33
0
  0
ENDBLK
  5
75
330
73
100
AcDbEntity
  8
0
100
AcDbBlockEnd
  0
BLOCK
  5
77
330
76
100
AcDbEntity
  8
0
100
AcDbBlockBegin
  2
*D10
 70
    1
 10
0
 20
0
  3
*D10
  1

  0
LINE
  5
A2
100
AcDbEntity
  8
dim
  6
CONTINUOUS
 62
    7
370
    0
100
AcDbLine
 10
145.8598777348778
 20
189
 11
145.8598777348778
 21
180
  0
LINE
  5
A3
100
AcDbEntity
  8
dim
  6
CONTINUOUS
 62
    7
370
    0
100
AcDbLine
 10
145.8598777348778
 20
180
 11
160
 21
170
  0
SOLID
  5
A4
100
AcDbEntity
  8
dim
  6
CONTINUOUS
 62
    7
370
    0
100
AcDbTrace
 10
145.8598777348778
 20
189
 30
0
 11
146.9005893793099
 21
182.75
 31
0
 12
144.8191660904457
 22
182.75
 32
0
 13
144.8191660904457
 23
182.75
 33
0
  0
ENDBLK
  5
78
330
76
100
AcDbEntity
  8
0
100
AcDbBlockEnd
  0
BLOCK
  5
7A
330
79
100
AcDbEntity
  8
0
100
AcDbBlockBegin
  2
*D12
 70
    1
 10
0
 20
0
  3
*D12
  1

  0
LINE
  5
A5
100
AcDbEntity
  8
dim
  6
CONTINUOUS
 62
    7
370
    0
100
AcDbLine
 10
201.658622908623
 20
0
 11
201.658622908623
 21
10
  0
LINE
  5
A6
100
AcDbEntity
  8
dim
  6
CONTINUOUS
 62
    7
370
    0
100
AcDbLine
 10
201.658622908623
 20
10
 11
210
 21
20
  0
SOLID
  5
A7
100
AcDbEntity
  8
dim
  6
CONTINUOUS
 62
    7
370
    0
100
AcDbTrace
 10
201.658622908623
 20
0
 30
0
 11
200.6179112641909
 21
6.25
 31
0
 12
202.6993345530551
 22
6.25
 32
0
 13
202.6993345530551
 23
6.25
 33
0
  0
ENDBLK
  5
7B
330
79
100
AcDbEntity
  8
0
100
AcDbBlockEnd
  0
BLOCK
  5
7D
330
7C
100
AcDbEntity
  8
0
100
AcDbBlockBegin
  2
*D5
 70
    1
 10
0
 20
0
  3
*D5
  1

  0
LINE
  5
A8
100
AcDbEntity
  8
dim
  6
CONTINUOUS
 62
    7
370
    0
100
AcDbLine
 10
241.8980855855856
 20
189.84375
 11
240
 21
200
  0
SOLID
  5
A9
100
AcDbEntity
  8
dim
  6
CONTINUOUS
 62
    7
370
    0
100
AcDbTrace
 10
241.8980855855856
 20
189.84375
 30
0
 11
239.726912441509
 21
195.796193859903
 31
0
 12
241.7729117908709
 22
196.17856745972
 32
0
 13
241.7729117908709
 23
196.17856745972
 33
0
  0
ENDBLK
  5
7E
330
7C
100
AcDbEntity
  8
0
100
AcDbBlockEnd
  0
BLOCK
  5
80
330
7F
100
AcDbEntity
  8
0
100
AcDbBlockBegin
  2
US Projection 3rd Angle-0
 70
    0
 10
0
 20
0
  3
US Projection 3rd Angle-0
  1

  0
LINE
  5
AA
100
AcDbEntity
  8
0
  6
ByLayer
 62
  256
370
   -1
100
AcDbLine
 10
-5
 20
0
 11
0
 21
0
  0
LINE
  5
AB
100
AcDbEntity
  8
0
  6
ByLayer
 62
  256
370
   -1
100
AcDbLine
 10
0
 20
2
 11
-5
 21
2
  0
LINE
  5
AC
100
AcDbEntity
  8
0
  6
ByLayer
 62
  256
370
   -1
100
AcDbLine
 10
-5
 20
2
 11
-5
 21
0
  0
LINE
  5
AD
100
AcDbEntity
  8
0
  6
ByLayer
 62
  256
370
   -1
100
AcDbLine
 10
-3
 20
2
 11
-3
 21
-4.89858719659e-016
  0
LINE
  5
AE
100
AcDbEntity
  8
0
  6
ByLayer
 62
  256
370
   -1
100
AcDbLine
 10
-5
 20
0.5
 11
-3
 21
0.5
  0
LINE
  5
AF
100
AcDbEntity
  8
0
  6
ByLayer
 62
  256
370
   -1
100
AcDbLine
 10
-3
 20
0.5
 11
0
 21
0.5
  0
LINE
  5
B0
100
AcDbEntity
  8
0
  6
ByLayer
 62
  256
370
   -1
100
AcDbLine
 10
-3
 20
0.75
 11
0
 21
0.75
  0
LINE
  5
B1
100
AcDbEntity
  8
0
  6
ByLayer
 62
  256
370
   -1
100
AcDbLine
 10
-3
 20
1
 11
0
 21
1
  0
LINE
  5
B2
100
AcDbEntity
  8
0
  6
ByLayer
 62
  256
370
   -1
100
AcDbLine
 10
-3
 20
1.25
 11
0
 21
1.25
  0
LINE
  5
B3
100
AcDbEntity
  8
0
  6
ByLayer
 62
  256
370
   -1
100
AcDbLine
 10
-3
 20
1.625
 11
0
 21
1.625
  0
LINE
  5
B4
100
AcDbEntity
  8
0
  6
ByLayer
 62
  256
370
   -1
100
AcDbLine
 10
0
 20
0
 11
0
 21
0.5
  0
LINE
  5
B5
100
AcDbEntity
  8
0
  6
ByLayer
 62
  256
370
   -1
100
AcDbLine
 10
0
 20
0.5
 11
0
 21
2
  0
LINE
  5
B6
100
AcDbEntity
  8
0
  6
ByLayer
 62
  256
370
   -1
100
AcDbLine
 10
-0.5
 20
6.12323399574e-017
 11
-0.5
 21
0.5
  0
LINE
  5
B7
100
AcDbEntity
  8
0
  6
ByLayer
 62
  256
370
   -1
100
AcDbLine
 10
-1
 20
1.22464679915e-016
 11
-1
 21
1.25
  0
LINE
  5
B8
100
AcDbEntity
  8
0
  6
ByLayer
 62
  256
370
   -1
100
AcDbLine
 10
-4
 20
0.5
 11
-4
 21
-2.44929359829e-016
  0
TEXT
  5
B9
100
AcDbEntity
  8
0
  6
ByLayer
 62
  256
370
   -1
100
AcDbText
 10
-0.96875
 20
1.15625
 30
0
 40
0.0625
  1
Date Drawn:
 50
0
 41
1
 51
0
  7
standard
 71
    0
 11
-0.96875
 21
1.15625
 31
0
210
0
220
0
230
1
100
AcDbText
 73
    1
  0
TEXT
  5
BA
100
AcDbEntity
  8
0
  6
ByLayer
 62
  256
370
   -1
100
AcDbText
 10
-0.96875
 20
0.90625
 30
0
 40
0.0625
  1
Date Checked:
 50
0
 41
1
 51
0
  7
standard
 71
    0
 11
-0.96875
 21
0.90625
 31
0
210
0
220
0
230
1
100
AcDbText
 73
    1
  0
TEXT
  5
BB
100
AcDbEntity
  8
0
  6
ByLayer
 62
  256
370
   -1
100
AcDbText
 10
-0.96875
 20
0.65625
 30
0
 40
0.0625
  1
Date Approved:
 50
0
 41
1
 51
0
  7
standard
 71
    0
 11
-0.96875
 21
0.65625
 31
0
210
0
220
0
230
1
100
AcDbText
 73
    1
  0
TEXT
  5
BC
100
AcDbEntity
  8
0
  6
ByLayer
 62
  256
370
   -1
100
AcDbText
 10
-0.96875
 20
0.40625
 30
0
 40
0.0625
  1
Sht:
 50
0
 41
1
 51
0
  7
standard
 71
    0
 11
-0.96875
 21
0.40625
 31
0
210
0
220
0
230
1
100
AcDbText
 73
    1
  0
TEXT
  5
BD
100
AcDbEntity
  8
0
  6
ByLayer
 62
  256
370
   -1
100
AcDbText
 10
-0.46875
 20
0.40625
 30
0
 40
0.0625
  1
Rev:
 50
0
 41
1
 51
0
  7
standard
 71
    0
 11
-0.46875
 21
0.40625
 31
0
210
0
220
0
230
1
100
AcDbText
 73
    1
  0
TEXT
  5
BE
100
AcDbEntity
  8
0
  6
ByLayer
 62
  256
370
   -1
100
AcDbText
 10
-2.96875
 20
0.90625
 30
0
 40
0.0625
  1
Checked By:
 50
0
 41
1
 51
0
  7
standard
 71
    0
 11
-2.96875
 21
0.90625
 31
0
210
0
220
0
230
1
100
AcDbText
 73
    1
  0
TEXT
  5
BF
100
AcDbEntity
  8
0
  6
ByLayer
 62
  256
370
   -1
100
AcDbText
 10
-2.96875
 20
0.65625
 30
0
 40
0.0625
  1
Approved By:
 50
0
 41
1
 51
0
  7
standard
 71
    0
 11
-2.96875
 21
0.65625
 31
0
210
0
220
0
230
1
100
AcDbText
 73
    1
  0
TEXT
  5
C0
100
AcDbEntity
  8
0
  6
ByLayer
 62
  256
370
   -1
100
AcDbText
 10
-2.96875
 20
0.40625
 30
0
 40
0.0625
  1
Drawing No:
 50
0
 41
1
 51
0
  7
standard
 71
    0
 11
-2.96875
 21
0.40625
 31
0
210
0
220
0
230
1
100
AcDbText
 73
    1
  0
TEXT
  5
C1
100
AcDbEntity
  8
0
  6
ByLayer
 62
  256
370
   -1
100
AcDbText
 10
-3.96875
 20
0.40625
 30
0
 40
0.0625
  1
Scale:
 50
0
 41
1
 51
0
  7
standard
 71
    0
 11
-3.96875
 21
0.40625
 31
0
210
0
220
0
230
1
100
AcDbText
 73
    1
  0
TEXT
  5
C2
100
AcDbEntity
  8
0
  6
ByLayer
 62
  256
370
   -1
100
AcDbText
 10
-2.96875
 20
1.90625
 30
0
 40
0.0625
  1
Drawing Name:
 50
0
 41
1
 51
0
  7
standard
 71
    0
 11
-2.96875
 21
1.90625
 31
0
210
0
220
0
230
1
100
AcDbText
 73
    1
  0
TEXT
  5
C3
100
AcDbEntity
  8
0
  6
ByLayer
 62
  256
370
   -1
100
AcDbText
 10
-2.96875
 20
1.53125
 30
0
 40
0.0625
  1
Project:
 50
0
 41
1
 51
0
  7
standard
 71
    0
 11
-2.96875
 21
1.53125
 31
0
210
0
220
0
230
1
100
AcDbText
 73
    1
  0
TEXT
  5
C4
100
AcDbEntity
  8
0
  6
ByLayer
 62
  256
370
   -1
100
AcDbText
 10
-2.96875
 20
1.15625
 30
0
 40
0.0625
  1
Drawn By:
 50
0
 41
1
 51
0
  7
standard
 71
    0
 11
-2.96875
 21
1.15625
 31
0
210
0
220
0
230
1
100
AcDbText
 73
    1
  0
LINE
  5
C5
100
AcDbEntity
  8
0
  6
ByLayer
 62
  256
370
   -1
100
AcDbLine
 10
-5
 20
0.5
 11
-5
 21
1.22464679915e-016
  0
CIRCLE
  5
C6
100
AcDbEntity
  8
0
  6
ByLayer
 62
  256
370
   -1
100
AcDbCircle
 10
-4.73836406193
 20
0.25
 40
0.174496316519
  0
CIRCLE
  5
C7
100
AcDbEntity
  8
0
  6
ByLayer
 62
  256
370
   -1
100
AcDbCircle
 10
-4.73836406193
 20
0.25
 40
0.08713958587450001
  0
LINE
  5
C8
100
AcDbEntity
  8
0
  6
ByLayer
 62
  256
370
   -1
100
AcDbLine
 10
-4.08713494295
 20
0.424496316519
 11
-4.08713494295
 21
0.07550368348100001
  0
LINE
  5
C9
100
AcDbEntity
  8
0
  6
ByLayer
 62
  256
370
   -1
100
AcDbLine
 10
-4.43612757599
 20
0.337139585875
 11
-4.43612757599
 21
0.162860414125
  0
LINE
  5
CA
100
AcDbEntity
  8
0
  6
ByLayer
 62
  256
370
   -1
100
AcDbLine
 10
-4.43612757599
 20
0.337139585875
 11
-4.08713494295
 21
0.424496316519
  0
LINE
  5
CB
100
AcDbEntity
  8
0
  6
ByLayer
 62
  256
370
   -1
100
AcDbLine
 10
-4.43612757599
 20
0.162860414125
 11
-4.08713494295
 21
0.07550368348100001
  0
LINE
  5
CC
100
AcDbEntity
  8
0
  6
CONTINUOUS
 62
  256
370
   -1
100
AcDbLine
 10
-4.73836406193
 20
0
 11
-4.73836406193
 21
0.5
  0
LINE
  5
CD
100
AcDbEntity
  8
0
  6
CONTINUOUS
 62
  256
370
   -1
100
AcDbLine
 10
-4
 20
0.25
 11
-5
 21
0.25
  0
ENDBLK
  5
81
330
7F
100
AcDbEntity
  8
0
100
AcDbBlockEnd
  0
BLOCK
  5
83
330
82
100
AcDbEntity
  8
0
100
AcDbBlockBegin
  2
Title_Block-0
 70
    0
 10
0
 20
0
  3
Title_Block-0
  1

  0
INSERT
  5
CE
100
AcDbEntity
  8
0
  6
ByLayer
 62
  256
370
   -1
100
AcDbBlockReference
  2
US Projection 3rd Angle-0
 10
0
 20
0
 30
0
 41
37.5
 42
37.5
 43
0
 50
0
 70
    1
 71
    1
 44
0
 45
0
  0
MTEXT
  5
CF
100
AcDbEntity
  8
0
  6
ByLayer
 62
  256
370
   -1
100
AcDbMText
 10
-136.375
 20
3.687499999999979
 30
0
 40
4.6875
 41
16.66666666666696
 71
    7
 72
    1
  1
1":50"
  7
iso
210
0
220
0
230
1
 50
0
 73
    2
 44
1
  0
MTEXT
  5
D0
100
AcDbEntity
  8
0
  6
ByLayer
 62
  256
370
   -1
100
AcDbMText
 10
-108
 20
39
 30
0
 40
3.6875
 41
35.03125189643502
 71
    7
 72
    1
  1
John D. Fisher
  7
iso
210
0
220
0
230
1
 50
0
 73
    2
 44
1
  0
MTEXT
  5
D1
100
AcDbEntity
  8
0
  6
ByLayer
 62
  256
370
   -1
100
AcDbMText
 10
-28
 20
7
 30
0
 40
4.6875
 41
1.041666666666667
 71
    7
 72
    1
  1
1
  7
iso
210
0
220
0
230
1
 50
0
 73
    2
 44
1
  0
MTEXT
  5
D2
100
AcDbEntity
  8
0
  6
ByLayer
 62
  256
370
   -1
100
AcDbMText
 10
-10
 20
7
 30
0
 40
4.6875
 41
2.083333333333334
 71
    7
 72
    1
  1
0
  7
iso
210
0
220
0
230
1
 50
0
 73
    2
 44
1
  0
MTEXT
  5
D3
100
AcDbEntity
  8
0
  6
ByLayer
 62
  256
370
   -1
100
AcDbMText
 10
-108
 20
49.75
 30
0
 40
3.6875
 41
68.11631866268726
 71
    7
 72
    1
  1
1329 Sanford Ave. Remodel
  7
standard
210
0
220
0
230
1
 50
0
 73
    2
 44
1
  0
MTEXT
  5
D4
100
AcDbEntity
  8
0
  6
ByLayer
 62
  256
370
   -1
100
AcDbMText
 10
-108
 20
65
 30
0
 40
3.6875
 41
91.98263847916787
 71
    7
 72
    1
  1
Richland Pre-fab, 2 BR (Plan, EL 4')
  7
iso
210
0
220
0
230
1
 50
0
 73
    2
 44
1
  0
MTEXT
  5
D5
100
AcDbEntity
  8
0
  6
ByLayer
 62
  256
370
   -1
100
AcDbMText
 10
-100
 20
7
 30
0
 40
4.6875
 41
48.95833574405502
 71
    7
 72
    1
  1
House_Plan-02
  7
iso
210
0
220
0
230
1
 50
0
 73
    2
 44
1
  0
MTEXT
  5
D6
100
AcDbEntity
  8
0
  6
ByLayer
 62
  256
370
   -1
100
AcDbMText
 10
-34
 20
39
 30
0
 40
3.6875
 41
24.99305555555555
 71
    7
 72
    1
  1
2018-02-11
  7
iso
210
0
220
0
230
1
 50
0
 73
    2
 44
1
  0
ENDBLK
  5
84
330
82
100
AcDbEntity
  8
0
100
AcDbBlockEnd
  0
BLOCK
  5
86
330
85
100
AcDbEntity
  8
0
100
AcDbBlockBegin
  2
Door
 70
    0
 10
0
 20
0
  3
Door
  1

  0
LINE
  5
D7
100
AcDbEntity
  8
wood
  6
CONTINUOUS
 62
    9
370
   -1
100
AcDbLine
 10
1.476377952755906
 20
0
 11
1.476377952755906
 21
3.937007874015747
  0
LINE
  5
D8
100
AcDbEntity
  8
wood
  6
CONTINUOUS
 62
    9
370
   -1
100
AcDbLine
 10
1.476377952755906
 20
3.937007874015747
 11
0
 21
3.937007874015747
  0
LINE
  5
D9
100
AcDbEntity
  8
wood
  6
CONTINUOUS
 62
    9
370
   -1
100
AcDbLine
 10
0
 20
3.937007874015747
 11
0
 21
0
  0
LINE
  5
DA
100
AcDbEntity
  8
wood
  6
CONTINUOUS
 62
    9
370
   -1
100
AcDbLine
 10
0
 20
0
 11
1.476377952755906
 21
0
  0
LINE
  5
DB
100
AcDbEntity
  8
wood
  6
CONTINUOUS
 62
    9
370
   -1
100
AcDbLine
 10
0
 20
0
 11
-1.5748031496063
 21
0
  0
LINE
  5
DC
100
AcDbEntity
  8
wood
  6
CONTINUOUS
 62
    9
370
   -1
100
AcDbLine
 10
0
 20
-35.875
 11
0
 21
0
  0
LINE
  5
DD
100
AcDbEntity
  8
wood
  6
CONTINUOUS
 62
    9
370
   -1
100
AcDbLine
 10
-1.5748031496063
 20
0
 11
-1.5748031496063
 21
-35.875
  0
LINE
  5
DE
100
AcDbEntity
  8
wood
  6
CONTINUOUS
 62
    9
370
   -1
100
AcDbLine
 10
-1.574803149606301
 20
-35.92101891722564
 11
-1.332267629550188e-015
 21
-35.92101891722564
  0
LINE
  5
DF
100
AcDbEntity
  8
wood
  6
CONTINUOUS
 62
    9
370
   -1
100
AcDbLine
 10
-35.875
 20
3.937007874015749
 11
-35.875
 21
1.332267629550188e-015
  0
LINE
  5
E0
100
AcDbEntity
  8
wood
  6
CONTINUOUS
 62
    9
370
   -1
100
AcDbLine
 10
-35.875
 20
1.332267629550188e-015
 11
-37.3513779527559
 21
1.332267629550188e-015
  0
LINE
  5
E1
100
AcDbEntity
  8
wood
  6
CONTINUOUS
 62
    9
370
   -1
100
AcDbLine
 10
-37.3513779527559
 20
1.332267629550188e-015
 11
-37.3513779527559
 21
3.937007874015749
  0
LINE
  5
E2
100
AcDbEntity
  8
wood
  6
CONTINUOUS
 62
    9
370
   -1
100
AcDbLine
 10
-37.3513779527559
 20
3.937007874015749
 11
-35.875
 21
3.937007874015749
  0
LINE
  5
E3
100
AcDbEntity
  8
elev
  6
CONTINUOUS
 62
   13
370
   -1
100
AcDbLine
 10
0
 20
1.574803149606298
 11
-35.875
 21
1.574803149606298
  0
ARC
  5
E4
100
AcDbEntity
  8
elev
  6
ByLayer
 62
  256
370
   -1
100
AcDbCircle
 10
0
 20
4.440892098500626e-016
 40
35.875
100
AcDbArc
 50
180
 51
270
  0
ENDBLK
  5
87
330
85
100
AcDbEntity
  8
0
100
AcDbBlockEnd
  0
BLOCK
  5
89
330
88
100
AcDbEntity
  8
0
100
AcDbBlockBegin
  2
Room_Labels
 70
    0
 10
0
 20
0
  3
Room_Labels
  1

  0
MTEXT
  5
E5
100
AcDbEntity
  8
labels
  6
ByLayer
 62
  256
370
   -1
100
AcDbMText
 10
50
 20
60
 30
0
 40
9.375
 41
28.125
 71
    7
 72
    1
  1
BR#1
  7
iso
210
0
220
0
230
1
 50
0
 73
    2
 44
1
  0
MTEXT
  5
E6
100
AcDbEntity
  8
labels
  6
ByLayer
 62
  256
370
   -1
100
AcDbMText
 10
40
 20
230
 30
0
 40
9.375
 41
30.20833333333334
 71
    7
 72
    1
  1
BR#2
  7
iso
210
0
220
0
230
1
 50
0
 73
    2
 44
1
  0
MTEXT
  5
E7
100
AcDbEntity
  8
labels
  6
ByLayer
 62
  256
370
   -1
100
AcDbMText
 10
110
 20
240
 30
0
 40
9.375
 41
26.04166666666754
 71
    7
 72
    1
  1
Bath
  7
iso
210
0
220
0
230
1
 50
0
 73
    2
 44
1
  0
MTEXT
  5
E8
100
AcDbEntity
  8
labels
  6
ByLayer
 62
  256
370
   -1
100
AcDbMText
 10
210
 20
240
 30
0
 40
9.375
 41
42.7083333333342
 71
    7
 72
    1
  1
Kitchen
  7
iso
210
0
220
0
230
1
 50
0
 73
    2
 44
1
  0
MTEXT
  5
E9
100
AcDbEntity
  8
labels
  6
ByLayer
 62
  256
370
   -1
100
AcDbMText
 10
190
 20
70
 30
0
 40
9.375
 41
32.29166666666754
 71
    7
 72
    1
  1
Living\PRoom
  7
iso
210
0
220
0
230
1
 50
0
 73
    2
 44
1
  0
MTEXT
  5
EA
100
AcDbEntity
  8
labels
  6
ByLayer
 62
  256
370
   -1
100
AcDbMText
 10
310
 20
200
 30
0
 40
9.375
 41
46.87500000000087
 71
    7
 72
    1
  1
Laundry
  7
iso
210
0
220
0
230
1
 50
90
 73
    2
 44
1
  0
ENDBLK
  5
8A
330
88
100
AcDbEntity
  8
0
100
AcDbBlockEnd
  0
BLOCK
  5
8C
330
8B
100
AcDbEntity
  8
0
100
AcDbBlockBegin
  2
Floor_Plan
 70
    0
 10
0
 20
0
  3
Floor_Plan
  1

  0
LINE
  5
EB
100
AcDbEntity
  8
Actual_Walls_Laundry
  6
ByLayer
 62
  256
370
   -1
100
AcDbLine
 10
55.37425869421875
 20
55.2968121785625
 11
54.94532414596875
 21
55.2968121785625
  0
LWPOLYLINE
  5
EC
100
AcDbEntity
  8
Actual_Walls_Fridge
  6
ByLayer
 62
  256
370
   -1
100
AcDbPolyline
 90
    4
 70
    1
 43
0
 10
47.05769439759375
 20
37.43049675909375
 10
47.96322288834375
 20
37.43049675909375
 10
47.96322288834375
 20
35.39305765490625
 10
47.05769439759375
 20
35.39305765490625
  0
LWPOLYLINE
  5
ED
100
AcDbEntity
  8
Actual_Walls_Fridge
  6
ByLayer
 62
  256
370
   -1
100
AcDbPolyline
 90
    4
 70
    1
 43
0
 10
47.96322288834375
 20
36.3998623584375
 10
47.96322288834375
 20
36.3998623584375
 10
47.96322288834375
 20
36.3998623584375
 10
47.96322288834375
 20
36.3998623584375
  0
LWPOLYLINE
  5
EE
100
AcDbEntity
  8
Actual_Walls_Fridge
  6
ByLayer
 62
  256
370
   -1
100
AcDbPolyline
 90
    4
 70
    1
 43
0
 10
47.96322288834375
 20
36.3998623584375
 10
54.3912836878125
 20
36.3998623584375
 10
54.3912836878125
 20
35.39305765490625
 10
47.96322288834375
 20
35.39305765490625
  0
LWPOLYLINE
  5
EF
100
AcDbEntity
  8
Actual_Walls_Fridge
  6
ByLayer
 62
  256
370
   -1
100
AcDbPolyline
 90
    4
 70
    1
 43
0
 10
37.79985706453125
 20
37.43049675909375
 10
47.05769439759375
 20
37.43049675909375
 10
47.05769439759375
 20
36.7096484210625
 10
37.79985706453125
 20
36.7096484210625
  0
INSERT
  5
F0
100
AcDbEntity
  8
labels
  6
ByLayer
 62
  256
370
   -1
100
AcDbBlockReference
  2
Room_Labels
 10
0.953187885
 20
1.2391442505
 30
0
 41
0.190637577
 42
0.190637577
 43
0
 50
0
 70
    1
 71
    1
 44
0
 45
0
  0
LINE
  5
F1
100
AcDbEntity
  8
Actual_Walls_Laundry
  6
ByLayer
 62
  256
370
   -1
100
AcDbLine
 10
54.94532414596875
 20
55.2968121785625
 11
54.94532414596875
 21
49.3155582001875
  0
LINE
  5
F2
100
AcDbEntity
  8
Actual_Walls_Laundry
  6
ByLayer
 62
  256
370
   -1
100
AcDbLine
 10
55.37425869421875
 20
49.3155582001875
 11
55.37425869421875
 21
55.2968121785625
  0
LINE
  5
F3
100
AcDbEntity
  8
Actual_Walls_Laundry
  6
ByLayer
 62
  256
370
   -1
100
AcDbLine
 10
54.94532414596875
 20
49.3155582001875
 11
55.37425869421875
 21
49.3155582001875
  0
LINE
  5
F4
100
AcDbEntity
  8
Actual_Walls
  6
ByLayer
 62
  256
370
   -1
100
AcDbLine
 10
55.3921309670625
 20
0
 11
0
 21
0
  0
LWPOLYLINE
  5
F5
100
AcDbEntity
  8
Actual_Walls
  6
ByLayer
 62
  256
370
   -1
100
AcDbPolyline
 90
    4
 70
    1
 43
0
 10
30.621160805625
 20
55.2968121785625
 10
31.622008084875
 20
55.2968121785625
 10
31.622008084875
 20
37.2696463035
 10
30.621160805625
 20
37.2696463035
  0
LINE
  5
F6
100
AcDbEntity
  8
Actual_Walls
  6
ByLayer
 62
  256
370
   -1
100
AcDbLine
 10
55.3921309670625
 20
32.4203029385625
 11
61.6831710080625
 21
32.4203029385625
  0
LINE
  5
F7
100
AcDbEntity
  8
Actual_Walls
  6
ByLayer
 62
  256
370
   -1
100
AcDbLine
 10
61.6831710080625
 20
32.4203029385625
 11
61.6831710080625
 21
55.2968121785625
  0
LINE
  5
F8
100
AcDbEntity
  8
Actual_Walls
  6
ByLayer
 62
  256
370
   -1
100
AcDbLine
 10
61.6831710080625
 20
55.2968121785625
 11
0.953187885
 21
55.2968121785625
  0
LINE
  5
F9
100
AcDbEntity
  8
Actual_Walls
  6
ByLayer
 62
  256
370
   -1
100
AcDbLine
 10
0
 20
56.2500000635625
 11
62.7793370758125
 21
56.2500000635625
  0
LINE
  5
FA
100
AcDbEntity
  8
Actual_Walls
  6
ByLayer
 62
  256
370
   -1
100
AcDbLine
 10
55.3921309670625
 20
31.4194556593125
 11
62.7793370758125
 21
31.4194556593125
  0
LINE
  5
FB
100
AcDbEntity
  8
Actual_Walls
  6
ByLayer
 62
  256
370
   -1
100
AcDbLine
 10
62.7793370758125
 20
31.4194556593125
 11
62.7793370758125
 21
56.2500000635625
  0
LINE
  5
FC
100
AcDbEntity
  8
Actual_Walls
  6
ByLayer
 62
  256
370
   -1
100
AcDbLine
 10
25.140330466875
 20
1.2391442505
 11
24.473098947375
 21
1.2391442505
  0
LINE
  5
FD
100
AcDbEntity
  8
Actual_Walls
  6
ByLayer
 62
  256
370
   -1
100
AcDbLine
 10
25.140330466875
 20
37.2696463035
 11
24.616077130125
 21
37.2696463035
  0
LINE
  5
FE
100
AcDbEntity
  8
Actual_Walls
  6
ByLayer
 62
  256
370
   -1
100
AcDbLine
 10
25.140330466875
 20
25.283308649625
 11
25.140330466875
 21
1.2391442505
  0
LINE
  5
FF
100
AcDbEntity
  8
Actual_Walls
  6
ByLayer
 62
  256
370
   -1
100
AcDbLine
 10
24.473098947375
 20
1.2391442505
 11
24.473098947375
 21
25.283308649625
  0
LINE
  5
100
100
AcDbEntity
  8
Actual_Walls
  6
ByLayer
 62
  256
370
   -1
100
AcDbLine
 10
24.473098947375
 20
25.283308649625
 11
25.140330466875
 21
25.283308649625
  0
LINE
  5
101
100
AcDbEntity
  8
Actual_Walls
  6
ByLayer
 62
  256
370
   -1
100
AcDbLine
 10
18.515674666125
 20
30.47222519859375
 11
7.39316353303125
 21
30.47222519859375
  0
LINE
  5
102
100
AcDbEntity
  8
Actual_Walls
  6
ByLayer
 62
  256
370
   -1
100
AcDbLine
 10
7.39316353303125
 20
30.47222519859375
 11
7.39316353303125
 21
24.8901186470625
  0
LWPOLYLINE
  5
103
100
AcDbEntity
  8
Actual_Walls
  6
ByLayer
 62
  256
370
   -1
100
AcDbPolyline
 90
    4
 70
    1
 43
0
 10
6.64252807359375
 20
31.07392505099998
 10
18.610993454625
 20
31.07392505099998
 10
18.610993454625
 20
30.47222519859375
 10
6.64252807359375
 20
30.47222519859375
  0
LWPOLYLINE
  5
104
100
AcDbEntity
  8
Actual_Walls
  6
ByLayer
 62
  256
370
   -1
100
AcDbPolyline
 90
    4
 70
    1
 43
0
 10
6.64252807359375
 20
25.76586001640623
 10
0.953187885
 20
25.76586001640623
 10
0.953187885
 20
24.8901186470625
 10
6.64252807359375
 20
24.8901186470625
  0
LWPOLYLINE
  5
105
100
AcDbEntity
  8
Actual_Walls
  6
ByLayer
 62
  256
370
   -1
100
AcDbPolyline
 90
    4
 70
    1
 43
0
 10
7.39316353303125
 20
24.8901186470625
 10
6.64252807359375
 20
24.8901186470625
 10
6.64252807359375
 20
30.47222519859375
 10
7.39316353303125
 20
30.47222519859375
  0
LINE
  5
106
100
AcDbEntity
  8
Actual_Walls
  6
ByLayer
 62
  256
370
   -1
100
AcDbLine
 10
54.3912836878125
 20
37.43049675909375
 11
55.3921309670625
 21
37.43049675909375
  0
LINE
  5
107
100
AcDbEntity
  8
Actual_Walls
  6
ByLayer
 62
  256
370
   -1
100
AcDbLine
 10
0.953187885
 20
1.2391442505
 11
54.3912836878125
 21
1.2391442505
  0
LINE
  5
108
100
AcDbEntity
  8
Actual_Walls
  6
ByLayer
 62
  256
370
   -1
100
AcDbLine
 10
54.3912836878125
 20
1.2391442505
 11
54.2483055050625
 21
1.2391442505
  0
LINE
  5
109
100
AcDbEntity
  8
Actual_Walls
  6
ByLayer
 62
  256
370
   -1
100
AcDbLine
 10
54.2483055050625
 20
35.39305765490625
 11
54.3912836878125
 21
35.39305765490625
  0
LINE
  5
10A
100
AcDbEntity
  8
Actual_Walls
  6
ByLayer
 62
  256
370
   -1
100
AcDbLine
 10
18.610993454625
 20
55.2968121785625
 11
19.254395277
 21
55.2968121785625
  0
LINE
  5
10B
100
AcDbEntity
  8
Actual_Walls
  6
ByLayer
 62
  256
370
   -1
100
AcDbLine
 10
18.610993454625
 20
36.36411781275
 11
18.610993454625
 21
55.2968121785625
  0
LINE
  5
10C
100
AcDbEntity
  8
Actual_Walls
  6
ByLayer
 62
  256
370
   -1
100
AcDbLine
 10
18.610993454625
 20
24.8901186470625
 11
18.610993454625
 21
31.1692438395
  0
LINE
  5
10D
100
AcDbEntity
  8
Actual_Walls
  6
ByLayer
 62
  256
370
   -1
100
AcDbLine
 10
19.254395277
 20
55.2968121785625
 11
19.254395277
 21
36.36411781275
  0
LINE
  5
10E
100
AcDbEntity
  8
Actual_Walls
  6
ByLayer
 62
  256
370
   -1
100
AcDbLine
 10
19.254395277
 20
31.1692438395
 11
19.254395277
 21
24.8901186470625
  0
LINE
  5
10F
100
AcDbEntity
  8
Actual_Walls
  6
ByLayer
 62
  256
370
   -1
100
AcDbLine
 10
19.254395277
 20
24.8901186470625
 11
18.515674666125
 21
24.8901186470625
  0
LINE
  5
110
100
AcDbEntity
  8
Actual_Walls
  6
ByLayer
 62
  256
370
   -1
100
AcDbLine
 10
18.515674666125
 20
24.8901186470625
 11
18.515674666125
 21
30.47222519859375
  0
LINE
  5
111
100
AcDbEntity
  8
Actual_Walls
  6
ByLayer
 62
  256
370
   -1
100
AcDbLine
 10
18.610993454625
 20
31.1692438395
 11
19.254395277
 21
31.1692438395
  0
LINE
  5
112
100
AcDbEntity
  8
Actual_Walls
  6
ByLayer
 62
  256
370
   -1
100
AcDbLine
 10
18.610993454625
 20
36.36411781275
 11
19.254395277
 21
36.36411781275
  0
LINE
  5
113
100
AcDbEntity
  8
Actual_Walls
  6
ByLayer
 62
  256
370
   -1
100
AcDbLine
 10
24.616077130125
 20
37.2696463035
 11
24.616077130125
 21
30.96073398965625
  0
LINE
  5
114
100
AcDbEntity
  8
Actual_Walls
  6
ByLayer
 62
  256
370
   -1
100
AcDbLine
 10
24.616077130125
 20
25.426286832375
 11
24.616077130125
 21
25.283308649625
  0
LINE
  5
115
100
AcDbEntity
  8
Actual_Walls
  6
ByLayer
 62
  256
370
   -1
100
AcDbLine
 10
25.140330466875
 20
30.96073398965625
 11
25.140330466875
 21
37.2696463035
  0
LINE
  5
116
100
AcDbEntity
  8
Actual_Walls
  6
ByLayer
 62
  256
370
   -1
100
AcDbLine
 10
25.140330466875
 20
25.283308649625
 11
25.140330466875
 21
25.426286832375
  0
LINE
  5
117
100
AcDbEntity
  8
Actual_Walls
  6
ByLayer
 62
  256
370
   -1
100
AcDbLine
 10
25.140330466875
 20
30.96073398965625
 11
24.616077130125
 21
30.96073398965625
  0
LINE
  5
118
100
AcDbEntity
  8
Actual_Walls
  6
ByLayer
 62
  256
370
   -1
100
AcDbLine
 10
24.616077130125
 20
25.426286832375
 11
25.140330466875
 21
25.426286832375
  0
LINE
  5
119
100
AcDbEntity
  8
Actual_Walls
  6
ByLayer
 62
  256
370
   -1
100
AcDbLine
 10
24.473098947375
 20
25.283308649625
 11
24.473098947375
 21
24.8901186470625
  0
LINE
  5
11A
100
AcDbEntity
  8
Actual_Walls
  6
ByLayer
 62
  256
370
   -1
100
AcDbLine
 10
19.254395277
 20
24.8901186470625
 11
19.254395277
 21
25.283308649625
  0
LINE
  5
11B
100
AcDbEntity
  8
Actual_Walls
  6
ByLayer
 62
  256
370
   -1
100
AcDbLine
 10
19.254395277
 20
25.283308649625
 11
19.3497140655
 21
25.283308649625
  0
LINE
  5
11C
100
AcDbEntity
  8
Actual_Walls
  6
ByLayer
 62
  256
370
   -1
100
AcDbLine
 10
19.3497140655
 20
24.8901186470625
 11
19.254395277
 21
24.8901186470625
  0
LINE
  5
11D
100
AcDbEntity
  8
Actual_Walls
  6
ByLayer
 62
  256
370
   -1
100
AcDbLine
 10
19.3497140655
 20
24.8901186470625
 11
19.3497140655
 21
25.283308649625
  0
LINE
  5
11E
100
AcDbEntity
  8
Actual_Walls
  6
ByLayer
 62
  256
370
   -1
100
AcDbLine
 10
30.621160805625
 20
37.746240246
 11
30.621160805625
 21
37.2696463035
  0
LINE
  5
11F
100
AcDbEntity
  8
Actual_Walls
  6
ByLayer
 62
  256
370
   -1
100
AcDbLine
 10
19.254395277
 20
37.2696463035
 11
19.254395277
 21
37.746240246
  0
LINE
  5
120
100
AcDbEntity
  8
Actual_Walls
  6
ByLayer
 62
  256
370
   -1
100
AcDbLine
 10
24.355284924789
 20
37.746240246
 11
30.621160805625
 21
37.746240246
  0
LINE
  5
121
100
AcDbEntity
  8
Actual_Walls
  6
ByLayer
 62
  256
370
   -1
100
AcDbLine
 10
19.254395277
 20
37.746240246
 11
19.3229294859315
 21
37.746240246
  0
LINE
  5
122
100
AcDbEntity
  8
Actual_Walls
  6
ByLayer
 62
  256
370
   -1
100
AcDbLine
 10
19.3229294859315
 20
37.2696463035
 11
19.254395277
 21
37.2696463035
  0
LINE
  5
123
100
AcDbEntity
  8
Actual_Walls
  6
ByLayer
 62
  256
370
   -1
100
AcDbLine
 10
30.621160805625
 20
37.2696463035
 11
24.355284924789
 21
37.2696463035
  0
LINE
  5
124
100
AcDbEntity
  8
Actual_Walls
  6
ByLayer
 62
  256
370
   -1
100
AcDbLine
 10
19.3229294859315
 20
37.2696463035
 11
19.3229294859315
 21
37.746240246
  0
LINE
  5
125
100
AcDbEntity
  8
Actual_Walls
  6
ByLayer
 62
  256
370
   -1
100
AcDbLine
 10
24.355284924789
 20
37.746240246
 11
24.355284924789
 21
37.2696463035
  0
LINE
  5
126
100
AcDbEntity
  8
Actual_Walls
  6
ByLayer
 62
  256
370
   -1
100
AcDbLine
 10
54.2483055050625
 20
30.805888617738
 11
54.2483055050625
 21
35.39305765490625
  0
LINE
  5
127
100
AcDbEntity
  8
Actual_Walls
  6
ByLayer
 62
  256
370
   -1
100
AcDbLine
 10
54.3912836878125
 20
35.39305765490625
 11
54.3912836878125
 21
30.805888617738
  0
LINE
  5
128
100
AcDbEntity
  8
Actual_Walls
  6
ByLayer
 62
  256
370
   -1
100
AcDbLine
 10
55.3921309670625
 20
37.43049675909375
 11
55.3921309670625
 21
30.805888617738
  0
LINE
  5
129
100
AcDbEntity
  8
Actual_Walls
  6
ByLayer
 62
  256
370
   -1
100
AcDbLine
 10
55.3921309670625
 20
23.96676554286296
 11
55.3921309670625
 21
0
  0
LINE
  5
12A
100
AcDbEntity
  8
Actual_Walls
  6
ByLayer
 62
  256
370
   -1
100
AcDbLine
 10
54.3912836878125
 20
23.96676554286296
 11
54.3912836878125
 21
1.2391442505
  0
LINE
  5
12B
100
AcDbEntity
  8
Actual_Walls
  6
ByLayer
 62
  256
370
   -1
100
AcDbLine
 10
54.2483055050625
 20
1.2391442505
 11
54.2483055050625
 21
23.95799260798695
  0
LINE
  5
12C
100
AcDbEntity
  8
Actual_Walls
  6
ByLayer
 62
  256
370
   -1
100
AcDbLine
 10
54.3912836878125
 20
30.805888617738
 11
54.3912836878125
 21
37.43049675909375
  0
LINE
  5
12D
100
AcDbEntity
  8
Actual_Walls
  6
ByLayer
 62
  256
370
   -1
100
AcDbLine
 10
54.3912836878125
 20
1.2391442505
 11
54.3912836878125
 21
23.96676554286296
  0
LINE
  5
12E
100
AcDbEntity
  8
Actual_Walls
  6
ByLayer
 62
  256
370
   -1
100
AcDbLine
 10
54.2483055050625
 20
30.805888617738
 11
54.3912836878125
 21
30.805888617738
  0
LINE
  5
12F
100
AcDbEntity
  8
Actual_Walls
  6
ByLayer
 62
  256
370
   -1
100
AcDbLine
 10
54.3912836878125
 20
30.805888617738
 11
55.3921309670625
 21
30.805888617738
  0
LINE
  5
130
100
AcDbEntity
  8
Actual_Walls
  6
ByLayer
 62
  256
370
   -1
100
AcDbLine
 10
55.3921309670625
 20
23.96676554286296
 11
54.3912836878125
 21
23.96676554286296
  0
LINE
  5
131
100
AcDbEntity
  8
Actual_Walls
  6
ByLayer
 62
  256
370
   -1
100
AcDbLine
 10
54.3912836878125
 20
23.96676554286296
 11
54.2483055050625
 21
23.95799260798695
  0
LINE
  5
132
100
AcDbEntity
  8
Actual_Walls
  6
ByLayer
 62
  256
370
   -1
100
AcDbLine
 10
24.473098947375
 20
24.8901186470625
 11
24.384643111647
 21
24.8901186470625
  0
LINE
  5
133
100
AcDbEntity
  8
Actual_Walls
  6
ByLayer
 62
  256
370
   -1
100
AcDbLine
 10
24.384643111647
 20
25.283308649625
 11
24.473098947375
 21
25.283308649625
  0
LINE
  5
134
100
AcDbEntity
  8
Actual_Walls
  6
ByLayer
 62
  256
370
   -1
100
AcDbLine
 10
24.384643111647
 20
25.283308649625
 11
24.384643111647
 21
24.8901186470625
  0
LINE
  5
135
100
AcDbEntity
  8
Actual_Walls
  6
ByLayer
 62
  256
370
   -1
100
AcDbLine
 10
0
 20
0
 11
0
 21
31.95562384462498
  0
LINE
  5
136
100
AcDbEntity
  8
Actual_Walls
  6
ByLayer
 62
  256
370
   -1
100
AcDbLine
 10
0.953187885
 20
1.2391442505
 11
0.953187885
 21
31.95562384462498
  0
LINE
  5
137
100
AcDbEntity
  8
Actual_Walls
  6
ByLayer
 62
  256
370
   -1
100
AcDbLine
 10
0.953187885
 20
31.95562384462498
 11
0
 21
31.95562384462498
  0
LINE
  5
138
100
AcDbEntity
  8
Actual_Walls
  6
ByLayer
 62
  256
370
   -1
100
AcDbLine
 10
0
 20
38.79474691949998
 11
0
 21
56.2500000635625
  0
LINE
  5
139
100
AcDbEntity
  8
Actual_Walls
  6
ByLayer
 62
  256
370
   -1
100
AcDbLine
 10
0.953187885
 20
38.79474691949998
 11
0.953187885
 21
55.2968121785625
  0
LINE
  5
13A
100
AcDbEntity
  8
Actual_Walls
  6
ByLayer
 62
  256
370
   -1
100
AcDbLine
 10
0
 20
38.79474691949998
 11
0.953187885
 21
38.79474691949998
  0
ENDBLK
  5
8D
330
8B
100
AcDbEntity
  8
0
100
AcDbBlockEnd
  0
ENDSEC
  0
SECTION
  2
ENTITIES
  0
LINE
  5
13B
100
AcDbEntity
  8
ticks
  6
ByLayer
 62
  256
370
   -1
100
AcDbLine
 10
475
 20
-110.5000000000001
 11
450
 21
-110.5000000000001
  0
LINE
  5
13C
100
AcDbEntity
  8
ticks
  6
ByLayer
 62
  256
370
   -1
100
AcDbLine
 10
475
 20
-110.5000000000001
 11
475
 21
-85.50000000000009
  0
LINE
  5
13D
100
AcDbEntity
  8
ticks
  6
ByLayer
 62
  256
370
   -1
100
AcDbLine
 10
-75
 20
-110.5
 11
-75
 21
-85.50000000000009
  0
LINE
  5
13E
100
AcDbEntity
  8
ticks
  6
ByLayer
 62
  256
370
   -1
100
AcDbLine
 10
-50
 20
-110.5
 11
-75
 21
-110.5
  0
LINE
  5
13F
100
AcDbEntity
  8
ticks
  6
ByLayer
 62
  256
370
   -1
100
AcDbLine
 10
475
 20
314.4999999999999
 11
450
 21
314.4999999999999
  0
LINE
  5
140
100
AcDbEntity
  8
ticks
  6
ByLayer
 62
  256
370
   -1
100
AcDbLine
 10
-75
 20
289.5000000000001
 11
-75
 21
314.4999999999999
  0
LINE
  5
141
100
AcDbEntity
  8
ticks
  6
ByLayer
 62
  256
370
   -1
100
AcDbLine
 10
-50
 20
314.4999999999999
 11
-75
 21
314.4999999999999
  0
LINE
  5
142
100
AcDbEntity
  8
ticks
  6
ByLayer
 62
  256
370
   -1
100
AcDbLine
 10
475
 20
289.4999999999999
 11
475
 21
314.4999999999999
  0
LINE
  5
143
100
AcDbEntity
  8
frame
  6
ByLayer
 62
  256
370
   25
100
AcDbLine
 10
437.5
 20
-91.75000000000009
 11
-37.5
 21
-91.75
  0
LINE
  5
144
100
AcDbEntity
  8
frame
  6
ByLayer
 62
  256
370
   25
100
AcDbLine
 10
-37.5
 20
-91.75
 11
-37.50000000000009
 21
295.7499999999997
  0
LINE
  5
145
100
AcDbEntity
  8
frame
  6
ByLayer
 62
  256
370
   25
100
AcDbLine
 10
437.5
 20
-91.75000000000009
 11
437.4999999999999
 21
295.7499999999999
  0
LINE
  5
146
100
AcDbEntity
  8
frame
  6
ByLayer
 62
  256
370
   25
100
AcDbLine
 10
437.4999999999999
 20
295.7499999999999
 11
-37.50000000000009
 21
295.7499999999997
  0
LWPOLYLINE
  5
147
100
AcDbEntity
  8
Actual_Closets
  6
ByLayer
 62
  256
370
   -1
100
AcDbPolyline
 90
    4
 70
    1
 43
0
 10
0
 20
156.4999999999999
 10
29.84375
 20
156.4999999999999
 10
29.84375
 20
128.6562499999999
 10
0
 20
128.6562499999999
  0
LWPOLYLINE
  5
148
100
AcDbEntity
  8
Actual_Closets
  6
ByLayer
 62
  256
370
   -1
100
AcDbPolyline
 90
    4
 70
    1
 43
0
 10
318.5625
 20
283.5625
 10
285.5625
 20
283.5625
 10
285.5625
 20
163.5625
 10
318.5625
 20
163.5625
  0
LWPOLYLINE
  5
149
100
AcDbEntity
  8
Actual_Rooms
  6
ByLayer
 62
  256
370
   -1
100
AcDbPolyline
 90
    4
 70
    1
 43
0
 10
0
 20
124.0625
 10
123.375
 20
124.0625
 10
123.375
 20
0
 10
0
 20
0
  0
LWPOLYLINE
  5
14A
100
AcDbEntity
  8
Actual_Rooms
  6
ByLayer
 62
  256
370
   -1
100
AcDbPolyline
 90
    4
 70
    1
 43
0
 10
126.875
 20
189
 10
279.5625
 20
189
 10
279.5625
 20
0
 10
126.875
 20
0
  0
LWPOLYLINE
  5
14B
100
AcDbEntity
  8
Actual_Rooms
  6
ByLayer
 62
  256
370
   -1
100
AcDbPolyline
 90
    4
 70
    1
 43
0
 10
160.875
 20
283.5625
 10
283.21875
 20
283.5625
 10
283.21875
 20
189
 10
160.875
 20
189
  0
LWPOLYLINE
  5
14C
100
AcDbEntity
  8
Actual_Rooms
  6
ByLayer
 62
  256
370
   -1
100
AcDbPolyline
 90
    4
 70
    1
 43
0
 10
-1.4210854715202e-014
 20
156.4999999999999
 10
92.625
 20
156.4999999999999
 10
92.625
 20
283.5625
 10
-1.4210854715202e-014
 20
283.5625
  0
LWPOLYLINE
  5
14D
100
AcDbEntity
  8
Actual_Rooms
  6
ByLayer
 62
  256
370
   -1
100
AcDbPolyline
 90
    4
 70
    1
 43
0
 10
96
 20
191.5
 10
155.625
 20
191.5
 10
155.625
 20
283.5625
 10
96
 20
283.5625
  0
LINE
  5
14E
100
AcDbEntity
  8
Actual_Closets
  6
ByLayer
 62
  256
370
   -1
100
AcDbLine
 10
285.5625
 20
163.5625
 11
318.5625
 21
163.5625
  0
LWPOLYLINE
  5
14F
100
AcDbEntity
  8
Actual_Closets
  6
ByLayer
 62
  256
370
   -1
100
AcDbPolyline
 90
    4
 70
    1
 43
0
 10
92.125
 20
124.0625
 10
33.78125
 20
124.0625
 10
33.78125
 20
153.34375
 10
92.125
 20
153.34375
  0
INSERT
  5
150
100
AcDbEntity
  8
Door
  6
ByLayer
 62
  256
370
   -1
100
AcDbBlockReference
  2
Door
 10
122.911
 20
124.0625
 30
0
 41
0.735252359
 42
0.735252359
 43
0
 50
0
 70
    1
 71
    1
 44
0.735252359
 45
0.735252359
  0
INSERT
  5
151
100
AcDbEntity
  8
Door
  6
ByLayer
 62
  256
370
   -1
100
AcDbBlockReference
  2
Door
 10
92.625
 20
157
 30
0
 41
0.7586091700000001
 42
0.7586091700000001
 43
0
 50
270
 70
    1
 71
    1
 44
0.7586091700000001
 45
0.7586091700000001
  0
INSERT
  5
152
100
AcDbEntity
  8
Door
  6
ByLayer
 62
  256
370
   -1
100
AcDbBlockReference
  2
Door
 10
96.3595
 20
191.5
 30
0
 41
0.7348765350000001
 42
0.7348765350000001
 43
0
 50
180
 70
    1
 71
    1
 44
0.7348765350000001
 45
0.7348765350000001
  0
INSERT
  5
153
100
AcDbEntity
  8
Door
  6
ByLayer
 62
  256
370
   -1
100
AcDbBlockReference
  2
Door
 10
279.5625
 20
155.094
 30
0
 41
-1
 42
1
 43
0
 50
270
 70
    1
 71
    1
 44
1
 45
1
  0
LEADER
  5
154
100
AcDbEntity
  8
dim
  6
ByLayer
 62
  256
370
   -1
100
AcDbLeader
  3
Standard
 71
    1
 72
    0
 73
    3
 74
    0
 75
    0
 40
1
 41
10
 76
2
 76
2
 10
285.5625
 20
173.1011987520772
 30
0
 10
300
 20
173
 30
0
  0
MTEXT
  5
155
100
AcDbEntity
  8
dim
  6
ByLayer
 62
  256
370
   -1
100
AcDbMText
 10
300
 20
173
 30
0
 40
9.375
 41
5.208333333333334
 71
    7
 72
    1
  1
B
  7
iso
210
0
220
0
230
1
 50
0
 73
    2
 44
1
  0
LEADER
  5
156
100
AcDbEntity
  8
dim
  6
ByLayer
 62
  256
370
   -1
100
AcDbLeader
  3
Standard
 71
    1
 72
    0
 73
    3
 74
    0
 75
    0
 40
1
 41
10
 76
2
 76
2
 10
285.46875
 20
266.9760800637525
 30
0
 10
299.90625
 20
266.8748813116754
 30
0
  0
MTEXT
  5
157
100
AcDbEntity
  8
dim
  6
ByLayer
 62
  256
370
   -1
100
AcDbMText
 10
299.90625
 20
266.8748813116754
 30
0
 40
9.375
 41
5.208333333333334
 71
    7
 72
    1
  1
B
  7
iso
210
0
220
0
230
1
 50
0
 73
    2
 44
1
  0
LEADER
  5
158
100
AcDbEntity
  8
dim
  6
ByLayer
 62
  256
370
   -1
100
AcDbLeader
  3
Standard
 71
    1
 72
    0
 73
    3
 74
    0
 75
    0
 40
1
 41
10
 76
2
 76
2
 10
228.2272361647362
 20
283.5625
 30
0
 10
230
 20
270
 30
0
  0
LEADER
  5
159
100
AcDbEntity
  8
dim
  6
ByLayer
 62
  256
370
   -1
100
AcDbLeader
  3
Standard
 71
    1
 72
    0
 73
    3
 74
    0
 75
    0
 40
1
 41
10
 76
2
 76
2
 10
160.875
 20
239.9993564993565
 30
0
 10
170
 20
240
 30
0
  0
LEADER
  5
15A
100
AcDbEntity
  8
dim
  6
ByLayer
 62
  256
370
   -1
100
AcDbLeader
  3
Standard
 71
    1
 72
    0
 73
    3
 74
    0
 75
    0
 40
1
 41
10
 76
2
 76
2
 10
241.8980855855856
 20
189.84375
 30
0
 10
240
 20
200
 30
0
  0
MTEXT
  5
15B
100
AcDbEntity
  8
dim
  6
ByLayer
 62
  256
370
   -1
100
AcDbMText
 10
240
 20
200
 30
0
 40
9.375
 41
4.166666666667249
 71
    7
 72
    1
  1
C
  7
iso
210
0
220
0
230
1
 50
0
 73
    2
 44
1
  0
MTEXT
  5
15C
100
AcDbEntity
  8
dim
  6
ByLayer
 62
  256
370
   -1
100
AcDbMText
 10
230
 20
260
 30
0
 40
9.375
 41
5.208333333333915
 71
    7
 72
    1
  1
D
  7
iso
210
0
220
0
230
1
 50
0
 73
    2
 44
1
  0
LEADER
  5
15D
100
AcDbEntity
  8
dim
  6
ByLayer
 62
  256
370
   -1
100
AcDbLeader
  3
Standard
 71
    1
 72
    0
 73
    3
 74
    0
 75
    0
 40
1
 41
10
 76
2
 76
2
 10
310.3857966341948
 20
163.5625
 30
0
 10
310
 20
180
 30
0
  0
LEADER
  5
15E
100
AcDbEntity
  8
dim
  6
ByLayer
 62
  256
370
   -1
100
AcDbLeader
  3
Standard
 71
    1
 72
    0
 73
    3
 74
    0
 75
    0
 40
1
 41
10
 76
2
 76
2
 10
309.9313518367802
 20
283.5625
 30
0
 10
310
 20
270
 30
0
  0
MTEXT
  5
15F
100
AcDbEntity
  8
dim
  6
ByLayer
 62
  256
370
   -1
100
AcDbMText
 10
310
 20
260
 30
0
 40
9.375
 41
6.25
 71
    7
 72
    1
  1
A
  7
iso
210
0
220
0
230
1
 50
0
 73
    2
 44
1
  0
MTEXT
  5
160
100
AcDbEntity
  8
dim
  6
ByLayer
 62
  256
370
   -1
100
AcDbMText
 10
310
 20
180
 30
0
 40
9.375
 41
6.25
 71
    7
 72
    1
  1
A
  7
iso
210
0
220
0
230
1
 50
0
 73
    2
 44
1
  0
LEADER
  5
161
100
AcDbEntity
  8
dim
  6
ByLayer
 62
  256
370
   -1
100
AcDbLeader
  3
Standard
 71
    1
 72
    0
 73
    3
 74
    0
 75
    0
 40
1
 41
10
 76
2
 76
2
 10
318.5625
 20
239.9468530349266
 30
0
 10
295
 20
240
 30
0
  0
MTEXT
  5
162
100
AcDbEntity
  8
dim
  6
ByLayer
 62
  256
370
   -1
100
AcDbMText
 10
288
 20
240
 30
0
 40
9.375
 41
6.25
 71
    7
 72
    1
  1
A
  7
iso
210
0
220
0
230
1
 50
0
 73
    2
 44
1
  0
MTEXT
  5
163
100
AcDbEntity
  8
dim
  6
ByLayer
 62
  256
370
   -1
100
AcDbMText
 10
180
 20
240
 30
0
 40
9.375
 41
4.166666666666667
 71
    7
 72
    1
  1
E
  7
iso
210
0
220
0
230
1
 50
0
 73
    2
 44
1
  0
LEADER
  5
164
100
AcDbEntity
  8
dim
  6
ByLayer
 62
  256
370
   -1
100
AcDbLeader
  3
Standard
 71
    1
 72
    0
 73
    3
 74
    0
 75
    0
 40
1
 41
10
 76
3
 76
3
 10
126.875
 20
164.4594594594595
 30
0
 10
140
 20
164.4594594594595
 30
0
 10
150
 20
150
 30
0
  0
LEADER
  5
165
100
AcDbEntity
  8
dim
  6
ByLayer
 62
  256
370
   -1
100
AcDbLeader
  3
Standard
 71
    1
 72
    0
 73
    3
 74
    0
 75
    0
 40
1
 41
10
 76
3
 76
3
 10
145.8598777348778
 20
189
 30
0
 10
145.8598777348778
 20
180
 30
0
 10
160
 20
170
 30
0
  0
LEADER
  5
166
100
AcDbEntity
  8
dim
  6
ByLayer
 62
  256
370
   -1
100
AcDbLeader
  3
Standard
 71
    1
 72
    0
 73
    3
 74
    0
 75
    0
 40
1
 41
10
 76
3
 76
3
 10
279.5625
 20
160.0542953667954
 30
0
 10
270
 20
160.0542953667954
 30
0
 10
260
 20
170
 30
0
  0
LEADER
  5
167
100
AcDbEntity
  8
dim
  6
ByLayer
 62
  256
370
   -1
100
AcDbLeader
  3
Standard
 71
    1
 72
    0
 73
    3
 74
    0
 75
    0
 40
1
 41
10
 76
3
 76
3
 10
201.658622908623
 20
0
 30
0
 10
201.658622908623
 20
10
 30
0
 10
210
 20
20
 30
0
  0
MTEXT
  5
168
100
AcDbEntity
  8
dim
  6
ByLayer
 62
  256
370
   -1
100
AcDbMText
 10
250
 20
160
 30
0
 40
9.375
 41
4.166666666666667
 71
    7
 72
    1
  1
F
  7
iso
210
0
220
0
230
1
 50
0
 73
    2
 44
1
  0
MTEXT
  5
169
100
AcDbEntity
  8
dim
  6
ByLayer
 62
  256
370
   -1
100
AcDbMText
 10
220
 20
20
 30
0
 40
9.375
 41
5.208333333333916
 71
    7
 72
    1
  1
G
  7
iso
210
0
220
0
230
1
 50
0
 73
    2
 44
1
  0
MTEXT
  5
16A
100
AcDbEntity
  8
dim
  6
ByLayer
 62
  256
370
   -1
100
AcDbMText
 10
160
 20
140
 30
0
 40
9.375
 41
5.208333333333334
 71
    7
 72
    1
  1
H
  7
iso
210
0
220
0
230
1
 50
0
 73
    2
 44
1
  0
MTEXT
  5
16B
100
AcDbEntity
  8
dim
  6
ByLayer
 62
  256
370
   -1
100
AcDbMText
 10
170
 20
170
 30
0
 40
9.375
 41
0
 71
    7
 72
    1
  1
I
  7
iso
210
0
220
0
230
1
 50
0
 73
    2
 44
1
  0
LINE
  5
16C
100
AcDbEntity
  8
Actual_Walls
  6
ByLayer
 62
  256
370
   -1
100
AcDbLine
 10
285.5625
 20
-6.5
 11
-5
 21
-6.5
  0
LWPOLYLINE
  5
16D
100
AcDbEntity
  8
Actual_Walls
  6
ByLayer
 62
  256
370
   -1
100
AcDbPolyline
 90
    4
 70
    1
 43
0
 10
155.625
 20
283.5625
 10
160.875
 20
283.5625
 10
160.875
 20
189
 10
155.625
 20
189
  0
LINE
  5
16E
100
AcDbEntity
  8
Actual_Walls
  6
ByLayer
 62
  256
370
   -1
100
AcDbLine
 10
285.5625
 20
163.5625
 11
318.5625
 21
163.5625
  0
LINE
  5
16F
100
AcDbEntity
  8
Actual_Walls
  6
ByLayer
 62
  256
370
   -1
100
AcDbLine
 10
318.5625
 20
163.5625
 11
318.5625
 21
283.5625
  0
LINE
  5
170
100
AcDbEntity
  8
Actual_Walls
  6
ByLayer
 62
  256
370
   -1
100
AcDbLine
 10
318.5625
 20
283.5625
 11
0
 21
283.5625
  0
LINE
  5
171
100
AcDbEntity
  8
Actual_Walls
  6
ByLayer
 62
  256
370
   -1
100
AcDbLine
 10
-5
 20
288.5625
 11
324.3125
 21
288.5625
  0
LINE
  5
172
100
AcDbEntity
  8
Actual_Walls
  6
ByLayer
 62
  256
370
   -1
100
AcDbLine
 10
285.5625
 20
158.3125
 11
324.3125
 21
158.3125
  0
LINE
  5
173
100
AcDbEntity
  8
Actual_Walls
  6
ByLayer
 62
  256
370
   -1
100
AcDbLine
 10
324.3125
 20
158.3125
 11
324.3125
 21
288.5625
  0
LINE
  5
174
100
AcDbEntity
  8
Actual_Walls
  6
ByLayer
 62
  256
370
   -1
100
AcDbLine
 10
126.875
 20
0
 11
123.375
 21
0
  0
LINE
  5
175
100
AcDbEntity
  8
Actual_Walls
  6
ByLayer
 62
  256
370
   -1
100
AcDbLine
 10
126.875
 20
189
 11
124.125
 21
189
  0
LINE
  5
176
100
AcDbEntity
  8
Actual_Walls
  6
ByLayer
 62
  256
370
   -1
100
AcDbLine
 10
126.875
 20
126.125
 11
126.875
 21
0
  0
LINE
  5
177
100
AcDbEntity
  8
Actual_Walls
  6
ByLayer
 62
  256
370
   -1
100
AcDbLine
 10
123.375
 20
0
 11
123.375
 21
126.125
  0
LINE
  5
178
100
AcDbEntity
  8
Actual_Walls
  6
ByLayer
 62
  256
370
   -1
100
AcDbLine
 10
123.375
 20
126.125
 11
126.875
 21
126.125
  0
LINE
  5
179
100
AcDbEntity
  8
Actual_Walls
  6
ByLayer
 62
  256
370
   -1
100
AcDbLine
 10
92.125
 20
153.34375
 11
33.78125
 21
153.34375
  0
LINE
  5
17A
100
AcDbEntity
  8
Actual_Walls
  6
ByLayer
 62
  256
370
   -1
100
AcDbLine
 10
33.78125
 20
153.34375
 11
33.78125
 21
124.0625
  0
LWPOLYLINE
  5
17B
100
AcDbEntity
  8
Actual_Walls
  6
ByLayer
 62
  256
370
   -1
100
AcDbPolyline
 90
    4
 70
    1
 43
0
 10
29.84375
 20
156.4999999999999
 10
92.625
 20
156.4999999999999
 10
92.625
 20
153.34375
 10
29.84375
 20
153.34375
  0
LWPOLYLINE
  5
17C
100
AcDbEntity
  8
Actual_Walls
  6
ByLayer
 62
  256
370
   -1
100
AcDbPolyline
 90
    4
 70
    1
 43
0
 10
29.84375
 20
128.6562499999999
 10
0
 20
128.6562499999999
 10
0
 20
124.0625
 10
29.84375
 20
124.0625
  0
LWPOLYLINE
  5
17D
100
AcDbEntity
  8
Actual_Walls
  6
ByLayer
 62
  256
370
   -1
100
AcDbPolyline
 90
    4
 70
    1
 43
0
 10
33.78125
 20
124.0625
 10
29.84375
 20
124.0625
 10
29.84375
 20
153.34375
 10
33.78125
 20
153.34375
  0
LINE
  5
17E
100
AcDbEntity
  8
Actual_Walls
  6
ByLayer
 62
  256
370
   -1
100
AcDbLine
 10
280.3125
 20
189.84375
 11
285.5625
 21
189.84375
  0
LINE
  5
17F
100
AcDbEntity
  8
Actual_Walls
  6
ByLayer
 62
  256
370
   -1
100
AcDbLine
 10
0
 20
0
 11
280.3125
 21
0
  0
LINE
  5
180
100
AcDbEntity
  8
Actual_Walls
  6
ByLayer
 62
  256
370
   -1
100
AcDbLine
 10
280.3125
 20
0
 11
279.5625
 21
0
  0
LINE
  5
181
100
AcDbEntity
  8
Actual_Walls
  6
ByLayer
 62
  256
370
   -1
100
AcDbLine
 10
279.5625
 20
179.15625
 11
280.3125
 21
179.15625
  0
LINE
  5
182
100
AcDbEntity
  8
Actual_Walls
  6
ByLayer
 62
  256
370
   -1
100
AcDbLine
 10
92.625
 20
283.5625
 11
96
 21
283.5625
  0
LINE
  5
183
100
AcDbEntity
  8
Actual_Walls
  6
ByLayer
 62
  256
370
   -1
100
AcDbLine
 10
92.625
 20
184.25
 11
92.625
 21
283.5625
  0
LINE
  5
184
100
AcDbEntity
  8
Actual_Walls
  6
ByLayer
 62
  256
370
   -1
100
AcDbLine
 10
92.625
 20
124.0625
 11
92.625
 21
157
  0
LINE
  5
185
100
AcDbEntity
  8
Actual_Walls
  6
ByLayer
 62
  256
370
   -1
100
AcDbLine
 10
96
 20
283.5625
 11
96
 21
184.25
  0
LINE
  5
186
100
AcDbEntity
  8
Actual_Walls
  6
ByLayer
 62
  256
370
   -1
100
AcDbLine
 10
96
 20
157
 11
96
 21
124.0625
  0
LINE
  5
187
100
AcDbEntity
  8
Actual_Walls
  6
ByLayer
 62
  256
370
   -1
100
AcDbLine
 10
96
 20
124.0625
 11
92.125
 21
124.0625
  0
LINE
  5
188
100
AcDbEntity
  8
Actual_Walls
  6
ByLayer
 62
  256
370
   -1
100
AcDbLine
 10
92.125
 20
124.0625
 11
92.125
 21
153.34375
  0
LINE
  5
189
100
AcDbEntity
  8
Actual_Walls
  6
ByLayer
 62
  256
370
   -1
100
AcDbLine
 10
92.625
 20
157
 11
96
 21
157
  0
LINE
  5
18A
100
AcDbEntity
  8
Actual_Walls
  6
ByLayer
 62
  256
370
   -1
100
AcDbLine
 10
92.625
 20
184.25
 11
96
 21
184.25
  0
LINE
  5
18B
100
AcDbEntity
  8
Actual_Walls
  6
ByLayer
 62
  256
370
   -1
100
AcDbLine
 10
124.125
 20
189
 11
124.125
 21
155.90625
  0
LINE
  5
18C
100
AcDbEntity
  8
Actual_Walls
  6
ByLayer
 62
  256
370
   -1
100
AcDbLine
 10
124.125
 20
126.875
 11
124.125
 21
126.125
  0
LINE
  5
18D
100
AcDbEntity
  8
Actual_Walls
  6
ByLayer
 62
  256
370
   -1
100
AcDbLine
 10
126.875
 20
155.90625
 11
126.875
 21
189
  0
LINE
  5
18E
100
AcDbEntity
  8
Actual_Walls
  6
ByLayer
 62
  256
370
   -1
100
AcDbLine
 10
126.875
 20
126.125
 11
126.875
 21
126.875
  0
LINE
  5
18F
100
AcDbEntity
  8
Actual_Walls
  6
ByLayer
 62
  256
370
   -1
100
AcDbLine
 10
126.875
 20
155.90625
 11
124.125
 21
155.90625
  0
LINE
  5
190
100
AcDbEntity
  8
Actual_Walls
  6
ByLayer
 62
  256
370
   -1
100
AcDbLine
 10
124.125
 20
126.875
 11
126.875
 21
126.875
  0
LINE
  5
191
100
AcDbEntity
  8
Actual_Walls
  6
ByLayer
 62
  256
370
   -1
100
AcDbLine
 10
123.375
 20
126.125
 11
123.375
 21
124.0625
  0
LINE
  5
192
100
AcDbEntity
  8
Actual_Walls
  6
ByLayer
 62
  256
370
   -1
100
AcDbLine
 10
96
 20
124.0625
 11
96
 21
126.125
  0
LINE
  5
193
100
AcDbEntity
  8
Actual_Walls
  6
ByLayer
 62
  256
370
   -1
100
AcDbLine
 10
96
 20
126.125
 11
96.50000000000001
 21
126.125
  0
LINE
  5
194
100
AcDbEntity
  8
Actual_Walls
  6
ByLayer
 62
  256
370
   -1
100
AcDbLine
 10
96.50000000000001
 20
124.0625
 11
96
 21
124.0625
  0
LINE
  5
195
100
AcDbEntity
  8
Actual_Walls
  6
ByLayer
 62
  256
370
   -1
100
AcDbLine
 10
96.50000000000001
 20
124.0625
 11
96.50000000000001
 21
126.125
  0
LINE
  5
196
100
AcDbEntity
  8
Actual_Walls
  6
ByLayer
 62
  256
370
   -1
100
AcDbLine
 10
155.625
 20
191.5
 11
155.625
 21
189
  0
LINE
  5
197
100
AcDbEntity
  8
Actual_Walls
  6
ByLayer
 62
  256
370
   -1
100
AcDbLine
 10
96
 20
189
 11
96
 21
191.5
  0
LINE
  5
198
100
AcDbEntity
  8
Actual_Walls
  6
ByLayer
 62
  256
370
   -1
100
AcDbLine
 10
122.757
 20
191.5
 11
155.625
 21
191.5
  0
LINE
  5
199
100
AcDbEntity
  8
Actual_Walls
  6
ByLayer
 62
  256
370
   -1
100
AcDbLine
 10
96
 20
191.5
 11
96.3595
 21
191.5
  0
LINE
  5
19A
100
AcDbEntity
  8
Actual_Walls
  6
ByLayer
 62
  256
370
   -1
100
AcDbLine
 10
96.3595
 20
189
 11
96
 21
189
  0
LINE
  5
19B
100
AcDbEntity
  8
Actual_Walls
  6
ByLayer
 62
  256
370
   -1
100
AcDbLine
 10
155.625
 20
189
 11
122.757
 21
189
  0
LINE
  5
19C
100
AcDbEntity
  8
Actual_Walls
  6
ByLayer
 62
  256
370
   -1
100
AcDbLine
 10
96.3595
 20
189
 11
96.3595
 21
191.5
  0
LINE
  5
19D
100
AcDbEntity
  8
Actual_Walls
  6
ByLayer
 62
  256
370
   -1
100
AcDbLine
 10
122.757
 20
191.5
 11
122.757
 21
189
  0
LINE
  5
19E
100
AcDbEntity
  8
Actual_Walls
  6
ByLayer
 62
  256
370
   -1
100
AcDbLine
 10
279.5625
 20
155.094
 11
279.5625
 21
179.15625
  0
LINE
  5
19F
100
AcDbEntity
  8
Actual_Walls
  6
ByLayer
 62
  256
370
   -1
100
AcDbLine
 10
280.3125
 20
179.15625
 11
280.3125
 21
155.094
  0
LINE
  5
1A0
100
AcDbEntity
  8
Actual_Walls
  6
ByLayer
 62
  256
370
   -1
100
AcDbLine
 10
285.5625
 20
189.84375
 11
285.5625
 21
155.094
  0
LINE
  5
1A1
100
AcDbEntity
  8
Actual_Walls
  6
ByLayer
 62
  256
370
   -1
100
AcDbLine
 10
285.5625
 20
119.2189999999998
 11
285.5625
 21
-6.5
  0
LINE
  5
1A2
100
AcDbEntity
  8
Actual_Walls
  6
ByLayer
 62
  256
370
   -1
100
AcDbLine
 10
280.3125
 20
119.2189999999998
 11
280.3125
 21
0
  0
LINE
  5
1A3
100
AcDbEntity
  8
Actual_Walls
  6
ByLayer
 62
  256
370
   -1
100
AcDbLine
 10
279.5625
 20
0
 11
279.5625
 21
119.1729810827744
  0
LINE
  5
1A4
100
AcDbEntity
  8
Actual_Walls
  6
ByLayer
 62
  256
370
   -1
100
AcDbLine
 10
280.3125
 20
155.094
 11
280.3125
 21
189.84375
  0
LINE
  5
1A5
100
AcDbEntity
  8
Actual_Walls
  6
ByLayer
 62
  256
370
   -1
100
AcDbLine
 10
280.3125
 20
0
 11
280.3125
 21
119.2189999999998
  0
LINE
  5
1A6
100
AcDbEntity
  8
Actual_Walls
  6
ByLayer
 62
  256
370
   -1
100
AcDbLine
 10
279.5625
 20
155.094
 11
280.3125
 21
155.094
  0
LINE
  5
1A7
100
AcDbEntity
  8
Actual_Walls
  6
ByLayer
 62
  256
370
   -1
100
AcDbLine
 10
280.3125
 20
155.094
 11
285.5625
 21
155.094
  0
LINE
  5
1A8
100
AcDbEntity
  8
Actual_Walls
  6
ByLayer
 62
  256
370
   -1
100
AcDbLine
 10
285.5625
 20
119.2189999999998
 11
280.3125
 21
119.2189999999998
  0
LINE
  5
1A9
100
AcDbEntity
  8
Actual_Walls
  6
ByLayer
 62
  256
370
   -1
100
AcDbLine
 10
280.3125
 20
119.2189999999998
 11
279.5625
 21
119.1729810827744
  0
LINE
  5
1AA
100
AcDbEntity
  8
Actual_Walls
  6
ByLayer
 62
  256
370
   -1
100
AcDbLine
 10
123.375
 20
124.0625
 11
122.911
 21
124.0625
  0
LINE
  5
1AB
100
AcDbEntity
  8
Actual_Walls
  6
ByLayer
 62
  256
370
   -1
100
AcDbLine
 10
122.911
 20
126.125
 11
123.375
 21
126.125
  0
LINE
  5
1AC
100
AcDbEntity
  8
Actual_Walls
  6
ByLayer
 62
  256
370
   -1
100
AcDbLine
 10
122.911
 20
126.125
 11
122.911
 21
124.0625
  0
LINE
  5
1AD
100
AcDbEntity
  8
Actual_Walls
  6
ByLayer
 62
  256
370
   -1
100
AcDbLine
 10
-5
 20
-6.5
 11
-5
 21
161.1249999999999
  0
LINE
  5
1AE
100
AcDbEntity
  8
Actual_Walls
  6
ByLayer
 62
  256
370
   -1
100
AcDbLine
 10
0
 20
0
 11
0
 21
161.1249999999999
  0
LINE
  5
1AF
100
AcDbEntity
  8
Actual_Walls
  6
ByLayer
 62
  256
370
   -1
100
AcDbLine
 10
0
 20
161.1249999999999
 11
-5
 21
161.1249999999999
  0
INSERT
  5
1B0
100
AcDbEntity
  8
Door
  6
ByLayer
 62
  256
370
   -1
100
AcDbBlockReference
  2
Door
 10
0
 20
161.1249999999999
 30
0
 41
-1
 42
1
 43
0
 50
89.99999999999999
 70
    1
 71
    1
 44
1
 45
1
  0
LINE
  5
1B1
100
AcDbEntity
  8
Actual_Walls
  6
ByLayer
 62
  256
370
   -1
100
AcDbLine
 10
-5
 20
196.9999999999999
 11
-5
 21
288.5625
  0
LINE
  5
1B2
100
AcDbEntity
  8
Actual_Walls
  6
ByLayer
 62
  256
370
   -1
100
AcDbLine
 10
0
 20
196.9999999999999
 11
0
 21
283.5625
  0
LINE
  5
1B3
100
AcDbEntity
  8
Actual_Walls
  6
ByLayer
 62
  256
370
   -1
100
AcDbLine
 10
-5
 20
196.9999999999999
 11
0
 21
196.9999999999999
  0
INSERT
  5
1B4
100
AcDbEntity
  8
labels
  6
ByLayer
 62
  256
370
   -1
100
AcDbBlockReference
  2
Room_Labels
 10
0
 20
0
 30
0
 41
1
 42
1
 43
0
 50
0
 70
    1
 71
    1
 44
1
 45
1
  0
INSERT
  5
1B5
100
AcDbEntity
  8
0
  6
ByLayer
 62
  256
370
   -1
100
AcDbBlockReference
  2
Title_Block-0
 10
437.5
 20
-91.75000000000009
 30
0
 41
1
 42
1
 43
0
 50
0
 70
    1
 71
    1
 44
1
 45
1
  0
INSERT
  5
1B6
100
AcDbEntity
  8
0
  6
ByLayer
 62
  256
370
   -1
100
AcDbBlockReference
  2
Floor_Plan
 10
250
 20
-73.00000000000009
 30
0
 41
1
 42
1
 43
0
 50
0
 70
    1
 71
    1
 44
1
 45
1
  0
ENDSEC
  0
SECTION
  2
OBJECTS
  0
DICTIONARY
  5
C
330
0
100
AcDbDictionary
281
    1
  3
ACAD_GROUP
350
D
  0
DICTIONARY
  5
D
330
C
100
AcDbDictionary
281
    1
  0
ENDSEC
  0
EOF
