999
dxfrw 0.6.3
  0
SECTION
  2
HEADER
  9
$ACADVER
  1
AC1021
  9
$DWGCODEPAGE
  3
ANSI_1252
  9
$INSBASE
 10
0
 20
0
 30
0
  9
$EXTMIN
 10
7.499999999999982
 20
3.749999999999979
 30
0
  9
$EXTMAX
 10
102.5
 20
81.24999999999999
 30
0
  9
$LIMMIN
 10
0
 20
0
  9
$LIMMAX
 10
420
 20
297
  9
$ORTHOMODE
 70
    0
  9
$REGENMODE
 70
    1
  9
$FILLMODE
 70
    1
  9
$QTEXTMODE
 70
    0
  9
$MIRRTEXT
 70
    0
  9
$LTSCALE
 40
1
  9
$ATTMODE
 70
    0
  9
$TEXTSIZE
 40
2.5
  9
$TRACEWID
 40
15.68
  9
$TEXTSTYLE
  7
STANDARD
  9
$CLAYER
  8
dim
  9
$CELTYPE
  6
BYLAYER
  9
$CECOLOR
 62
  256
  9
$CELTSCALE
 40
1
  9
$DISPSILH
 70
    0
  9
$DIMSCALE
 40
0.0393701
  9
$DIMASZ
 40
1.25
  9
$DIMEXO
 40
0.625
  9
$DIMDLI
 40
3.75
  9
$DIMRND
 40
0
  9
$DIMDLE
 40
0
  9
$DIMEXE
 40
0.625
  9
$DIMTP
 40
0
  9
$DIMTM
 40
0
  9
$DIMTXT
 40
30
  9
$DIMCEN
 40
2.5
  9
$DIMTSZ
 40
0
  9
$DIMTOL
 70
    0
  9
$DIMLIM
 70
    0
  9
$DIMTIH
 70
    0
  9
$DIMTOH
 70
    0
  9
$DIMSE1
 70
    0
  9
$DIMSE2
 70
    0
  9
$DIMTAD
 70
    1
  9
$DIMZIN
 70
    1
  9
$DIMBLK
  1

  9
$DIMASO
 70
    1
  9
$DIMSHO
 70
    1
  9
$DIMPOST
  1

  9
$DIMAPOST
  1

  9
$DIMALT
 70
    0
  9
$DIMALTD
 70
    3
  9
$DIMALTF
 40
0.03937
  9
$DIMLFAC
 40
1
  9
$DIMTOFL
 70
    1
  9
$DIMTVP
 40
0
  9
$DIMTIX
 70
    0
  9
$DIMSOXD
 70
    0
  9
$DIMSAH
 70
    0
  9
$DIMBLK1
  1

  9
$DIMBLK2
  1

  9
$DIMSTYLE
  2
Standard
  9
$DIMCLRD
 70
    0
  9
$DIMCLRE
 70
    0
  9
$DIMCLRT
 70
    0
  9
$DIMTFAC
 40
1
  9
$DIMGAP
 40
10
  9
$DIMJUST
 70
    0
  9
$DIMSD1
 70
    0
  9
$DIMSD2
 70
    0
  9
$DIMTOLJ
 70
    0
  9
$DIMTZIN
 70
    8
  9
$DIMALTZ
 70
    0
  9
$DIMALTTZ
 70
    0
  9
$DIMUPT
 70
    0
  9
$DIMDEC
 70
    2
  9
$DIMTDEC
 70
    2
  9
$DIMALTU
 70
    2
  9
$DIMALTTD
 70
    3
  9
$DIMTXSTY
  7
standard
  9
$DIMAUNIT
 70
    0
  9
$DIMADEC
 70
    0
  9
$DIMALTRND
 40
0
  9
$DIMAZIN
 70
    0
  9
$DIMDSEP
 70
    0
  9
$DIMATFIT
 70
    3
  9
$DIMFRAC
 70
    0
  9
$DIMLDRBLK
  1
STANDARD
  9
$DIMLUNIT
 70
    4
  9
$DIMLWD
 70
   -2
  9
$DIMLWE
 70
   -2
  9
$DIMTMOVE
 70
    0
  9
$DIMFXL
 40
0.04
  9
$DIMFXLON
 70
    0
  9
$DIMJOGANG
 40
0.7854
  9
$DIMTFILL
 70
    0
  9
$DIMTFILLCLR
 70
    0
  9
$DIMARCSYM
 70
    0
  9
$DIMLTYPE
  6

  9
$DIMLTEX1
  6

  9
$DIMLTEX2
  6

  9
$LUNITS
 70
    2
  9
$LUPREC
 70
    4
  9
$SKETCHINC
 40
1
  9
$FILLETRAD
 40
0
  9
$AUNITS
 70
    0
  9
$AUPREC
 70
    2
  9
$MENU
  1
.
  9
$ELEVATION
 40
0
  9
$PELEVATION
 40
0
  9
$THICKNESS
 40
0
  9
$LIMCHECK
 70
    0
  9
$CHAMFERA
 40
0
  9
$CHAMFERB
 40
0
  9
$CHAMFERC
 40
0
  9
$CHAMFERD
 40
0
  9
$SKPOLY
 70
    0
  9
$USRTIMER
 70
    1
  9
$ANGBASE
 50
0
  9
$ANGDIR
 70
    0
  9
$PDMODE
 70
   34
  9
$PDSIZE
 40
0
  9
$PLINEWID
 40
0
  9
$SPLFRAME
 70
    0
  9
$SPLINETYPE
 70
    2
  9
$SPLINESEGS
 70
    8
  9
$HANDSEED
  5
20000
  9
$SURFTAB1
 70
    6
  9
$SURFTAB2
 70
    6
  9
$SURFTYPE
 70
    6
  9
$SURFU
 70
    6
  9
$SURFV
 70
    6
  9
$UCSBASE
  2

  9
$UCSNAME
  2

  9
$UCSORG
 10
0
 20
0
 30
0
  9
$UCSXDIR
 10
1
 20
0
 30
0
  9
$UCSYDIR
 10
0
 20
1
 30
0
  9
$UCSORTHOREF
  2

  9
$UCSORTHOVIEW
 70
    0
  9
$UCSORGTOP
 10
0
 20
0
 30
0
  9
$UCSORGBOTTOM
 10
0
 20
0
 30
0
  9
$UCSORGLEFT
 10
0
 20
0
 30
0
  9
$UCSORGRIGHT
 10
0
 20
0
 30
0
  9
$UCSORGFRONT
 10
0
 20
0
 30
0
  9
$UCSORGBACK
 10
0
 20
0
 30
0
  9
$PUCSBASE
  2

  9
$PUCSNAME
  2

  9
$PUCSORG
 10
0
 20
0
 30
0
  9
$PUCSXDIR
 10
1
 20
0
 30
0
  9
$PUCSYDIR
 10
0
 20
1
 30
0
  9
$PUCSORTHOREF
  2

  9
$PUCSORTHOVIEW
 70
    0
  9
$PUCSORGTOP
 10
0
 20
0
 30
0
  9
$PUCSORGBOTTOM
 10
0
 20
0
 30
0
  9
$PUCSORGLEFT
 10
0
 20
0
 30
0
  9
$PUCSORGRIGHT
 10
0
 20
0
 30
0
  9
$PUCSORGFRONT
 10
0
 20
0
 30
0
  9
$PUCSORGBACK
 10
0
 20
0
 30
0
  9
$USERI1
 70
    0
  9
$USERI2
 70
    0
  9
$USERI3
 70
    0
  9
$USERI4
 70
    0
  9
$USERI5
 70
    0
  9
$USERR1
 40
0
  9
$USERR2
 40
0
  9
$USERR3
 40
0
  9
$USERR4
 40
0
  9
$USERR5
 40
0
  9
$WORLDVIEW
 70
    1
  9
$SHADEDGE
 70
    3
  9
$SHADEDIF
 70
   70
  9
$TILEMODE
 70
    1
  9
$MAXACTVP
 70
   64
  9
$PINSBASE
 10
8.881784197001252e-016
 20
2.05391259555654e-015
 30
0
  9
$PLIMCHECK
 70
    0
  9
$PEXTMIN
 10
0
 20
0
 30
0
  9
$PEXTMAX
 10
0
 20
0
 30
0
  9
$GRIDMODE
 70
    1
  9
$SNAPSTYLE
 70
    0
  9
$GRIDUNIT
 10
0
 20
0
  9
$PLIMMIN
 10
0
 20
0
  9
$PLIMMAX
 10
11
 20
8.5
  9
$UNITMODE
 70
    0
  9
$VISRETAIN
 70
    1
  9
$PLINEGEN
 70
    0
  9
$PSLTSCALE
 70
    1
  9
$TREEDEPTH
 70
 3020
  9
$CMLSTYLE
  2
Standard
  9
$CMLJUST
 70
    0
  9
$CMLSCALE
 40
20
  9
$PROXYGRAPHICS
 70
    1
  9
$MEASUREMENT
 70
    1
  9
$CELWEIGHT
370
   -1
  9
$ENDCAPS
280
    0
  9
$JOINSTYLE
280
    0
  9
$LWDISPLAY
290
    0
  9
$INSUNITS
 70
    1
  9
$HYPERLINKBASE
  1

  9
$STYLESHEET
  1

  9
$XEDIT
290
    1
  9
$CEPSNTYPE
380
    0
  9
$PSTYLEMODE
290
    1
  9
$EXTNAMES
290
    1
  9
$PSVPSCALE
 40
0.1
  9
$OLESTARTUP
290
    0
  9
$SORTENTS
280
  127
  9
$INDEXCTL
280
    0
  9
$HIDETEXT
280
    1
  9
$XCLIPFRAME
290
    0
  9
$HALOGAP
280
    0
  9
$OBSCOLOR
 70
  257
  9
$OBSLTYPE
280
    0
  9
$INTERSECTIONDISPLAY
280
    0
  9
$INTERSECTIONCOLOR
 70
  257
  9
$DIMASSOC
280
    1
  9
$PROJECTNAME
  1

  9
$CAMERADISPLAY
290
    0
  9
$LENSLENGTH
 40
50
  9
$CAMERAHEIGHT
 40
0
  9
$STEPSPERSEC
 40
2
  9
$STEPSIZE
 40
50
  9
$3DDWFPREC
 40
2
  9
$PSOLWIDTH
 40
5
  9
$PSOLHEIGHT
 40
80
  9
$LOFTANG1
 40
1.570796326794897
  9
$LOFTANG2
 40
1.570796326794897
  9
$LOFTMAG1
 40
0
  9
$LOFTMAG2
 40
0
  9
$LOFTPARAM
 70
    7
  9
$LOFTNORMALS
280
    1
  9
$LATITUDE
 40
1
  9
$LONGITUDE
 40
1
  9
$NORTHDIRECTION
 40
0
  9
$TIMEZONE
 70
-8000
  9
$LIGHTGLYPHDISPLAY
280
    1
  9
$TILEMODELIGHTSYNCH
280
    1
  9
$SOLIDHIST
280
    1
  9
$SHOWHIST
280
    1
  9
$DWFFRAME
280
    2
  9
$DGNFRAME
280
    0
  9
$REALWORLDSCALE
290
    1
  9
$INTERFERECOLOR
 62
    1
  9
$CSHADOW
280
    0
  9
$SHADOWPLANELOCATION
 40
0
  0
ENDSEC
  0
SECTION
  2
CLASSES
  0
ENDSEC
  0
SECTION
  2
TABLES
  0
TABLE
  2
VPORT
  5
8
330
0
100
AcDbSymbolTable
 70
    1
  0
VPORT
  5
31
330
2
100
AcDbSymbolTableRecord
100
AcDbViewportTableRecord
  2
*ACTIVE
 70
    0
 10
0
 20
0
 11
1
 21
1
 12
64.43371943371943
 22
43.04697554697555
 13
0
 23
0
 14
10
 24
10
 15
10
 25
10
 16
0
 26
0
 36
1
 17
0
 27
0
 37
0
 40
87.1879021879022
 41
1.693851944792974
 42
50
 43
0
 44
0
 50
0
 51
0
 71
    0
 72
  100
 73
    1
 74
    3
 75
    0
 76
    1
 77
    0
 78
    0
281
    0
 65
    1
110
0
120
0
130
0
111
1
121
0
131
0
112
0
122
1
132
0
 79
    0
146
0
348
10020
 60
    7
 61
    5
292
1
282
    1
141
0
142
0
 63
  250
421
3358443
  0
ENDTAB
  0
TABLE
  2
LTYPE
  5
5
330
0
100
AcDbSymbolTable
 70
    4
  0
LTYPE
  5
14
330
5
100
AcDbSymbolTableRecord
100
AcDbLinetypeTableRecord
  2
ByBlock
 70
    0
  3

 72
   65
 73
    0
 40
0
  0
LTYPE
  5
15
330
5
100
AcDbSymbolTableRecord
100
AcDbLinetypeTableRecord
  2
ByLayer
 70
    0
  3

 72
   65
 73
    0
 40
0
  0
LTYPE
  5
16
330
5
100
AcDbSymbolTableRecord
100
AcDbLinetypeTableRecord
  2
Continuous
 70
    0
  3
Solid line
 72
   65
 73
    0
 40
0
  0
LTYPE
  5
32
330
5
100
AcDbSymbolTableRecord
100
AcDbLinetypeTableRecord
  2
DOT
 70
    0
  3
Dot . . . . . . . . . . . . . . . . . . . . . .
 72
   65
 73
    2
 40
6.35
 49
0
 74
    0
 49
-6.35
 74
    0
  0
LTYPE
  5
33
330
5
100
AcDbSymbolTableRecord
100
AcDbLinetypeTableRecord
  2
DOTTINY
 70
    0
  3
Dot (.15x) .....................................
 72
   65
 73
    2
 40
0.9525
 49
0
 74
    0
 49
-0.9525
 74
    0
  0
LTYPE
  5
34
330
5
100
AcDbSymbolTableRecord
100
AcDbLinetypeTableRecord
  2
DOT2
 70
    0
  3
Dot (.5x) .....................................
 72
   65
 73
    2
 40
3.175
 49
0
 74
    0
 49
-3.175
 74
    0
  0
LTYPE
  5
35
330
5
100
AcDbSymbolTableRecord
100
AcDbLinetypeTableRecord
  2
DOTX2
 70
    0
  3
Dot (2x) .  .  .  .  .  .  .  .  .  .  .  .  .
 72
   65
 73
    2
 40
12.7
 49
0
 74
    0
 49
-12.7
 74
    0
  0
LTYPE
  5
36
330
5
100
AcDbSymbolTableRecord
100
AcDbLinetypeTableRecord
  2
DASHED
 70
    0
  3
Dashed _ _ _ _ _ _ _ _ _ _ _ _ _ _ _ _ _
 72
   65
 73
    2
 40
19.05
 49
12.7
 74
    0
 49
-6.35
 74
    0
  0
LTYPE
  5
37
330
5
100
AcDbSymbolTableRecord
100
AcDbLinetypeTableRecord
  2
DASHEDTINY
 70
    0
  3
Dashed (.15x) _ _ _ _ _ _ _ _ _ _ _ _ _ _ _ _ _
 72
   65
 73
    2
 40
2.8575
 49
1.905
 74
    0
 49
-0.9525
 74
    0
  0
LTYPE
  5
38
330
5
100
AcDbSymbolTableRecord
100
AcDbLinetypeTableRecord
  2
DASHED2
 70
    0
  3
Dashed (.5x) _ _ _ _ _ _ _ _ _ _ _ _ _ _ _ _ _
 72
   65
 73
    2
 40
9.524999999999999
 49
6.35
 74
    0
 49
-3.175
 74
    0
  0
LTYPE
  5
39
330
5
100
AcDbSymbolTableRecord
100
AcDbLinetypeTableRecord
  2
DASHEDX2
 70
    0
  3
Dashed (2x) ____  ____  ____  ____  ____  ___
 72
   65
 73
    2
 40
38.09999999999999
 49
25.4
 74
    0
 49
-12.7
 74
    0
  0
LTYPE
  5
3A
330
5
100
AcDbSymbolTableRecord
100
AcDbLinetypeTableRecord
  2
DASHDOT
 70
    0
  3
Dash dot __ . __ . __ . __ . __ . __ . __ . __
 72
   65
 73
    4
 40
25.4
 49
12.7
 74
    0
 49
-6.35
 74
    0
 49
0
 74
    0
 49
-6.35
 74
    0
  0
LTYPE
  5
3B
330
5
100
AcDbSymbolTableRecord
100
AcDbLinetypeTableRecord
  2
DASHDOTTINY
 70
    0
  3
Dash dot (.15x) _._._._._._._._._._._._._._._.
 72
   65
 73
    4
 40
3.81
 49
1.905
 74
    0
 49
-0.9525
 74
    0
 49
0
 74
    0
 49
-0.9525
 74
    0
  0
LTYPE
  5
3C
330
5
100
AcDbSymbolTableRecord
100
AcDbLinetypeTableRecord
  2
DASHDOT2
 70
    0
  3
Dash dot (.5x) _._._._._._._._._._._._._._._.
 72
   65
 73
    4
 40
12.7
 49
6.35
 74
    0
 49
-3.175
 74
    0
 49
0
 74
    0
 49
-3.175
 74
    0
  0
LTYPE
  5
3D
330
5
100
AcDbSymbolTableRecord
100
AcDbLinetypeTableRecord
  2
DASHDOTX2
 70
    0
  3
Dash dot (2x) ____  .  ____  .  ____  .  ___
 72
   65
 73
    4
 40
50.8
 49
25.4
 74
    0
 49
-12.7
 74
    0
 49
0
 74
    0
 49
-12.7
 74
    0
  0
LTYPE
  5
3E
330
5
100
AcDbSymbolTableRecord
100
AcDbLinetypeTableRecord
  2
DIVIDE
 70
    0
  3
Divide ____ . . ____ . . ____ . . ____ . . ____
 72
   65
 73
    6
 40
31.75
 49
12.7
 74
    0
 49
-6.35
 74
    0
 49
0
 74
    0
 49
-6.35
 74
    0
 49
0
 74
    0
 49
-6.35
 74
    0
  0
LTYPE
  5
3F
330
5
100
AcDbSymbolTableRecord
100
AcDbLinetypeTableRecord
  2
DIVIDETINY
 70
    0
  3
Divide (.15x) __..__..__..__..__..__..__..__.._
 72
   65
 73
    6
 40
4.7625
 49
1.905
 74
    0
 49
-0.9525
 74
    0
 49
0
 74
    0
 49
-0.9525
 74
    0
 49
0
 74
    0
 49
-0.9525
 74
    0
  0
LTYPE
  5
40
330
5
100
AcDbSymbolTableRecord
100
AcDbLinetypeTableRecord
  2
DIVIDE2
 70
    0
  3
Divide (.5x) __..__..__..__..__..__..__..__.._
 72
   65
 73
    6
 40
15.875
 49
6.35
 74
    0
 49
-3.175
 74
    0
 49
0
 74
    0
 49
-3.175
 74
    0
 49
0
 74
    0
 49
-3.175
 74
    0
  0
LTYPE
  5
41
330
5
100
AcDbSymbolTableRecord
100
AcDbLinetypeTableRecord
  2
DIVIDEX2
 70
    0
  3
Divide (2x) ________  .  .  ________  .  .  _
 72
   65
 73
    6
 40
63.5
 49
25.4
 74
    0
 49
-12.7
 74
    0
 49
0
 74
    0
 49
-12.7
 74
    0
 49
0
 74
    0
 49
-12.7
 74
    0
  0
LTYPE
  5
42
330
5
100
AcDbSymbolTableRecord
100
AcDbLinetypeTableRecord
  2
BORDER
 70
    0
  3
Border __ __ . __ __ . __ __ . __ __ . __ __ .
 72
   65
 73
    6
 40
44.45
 49
12.7
 74
    0
 49
-6.35
 74
    0
 49
12.7
 74
    0
 49
-6.35
 74
    0
 49
0
 74
    0
 49
-6.35
 74
    0
  0
LTYPE
  5
43
330
5
100
AcDbSymbolTableRecord
100
AcDbLinetypeTableRecord
  2
BORDERTINY
 70
    0
  3
Border (.15x) __.__.__.__.__.__.__.__.__.__.__.
 72
   65
 73
    6
 40
6.6675
 49
1.905
 74
    0
 49
-0.9525
 74
    0
 49
1.905
 74
    0
 49
-0.9525
 74
    0
 49
0
 74
    0
 49
-0.9525
 74
    0
  0
LTYPE
  5
44
330
5
100
AcDbSymbolTableRecord
100
AcDbLinetypeTableRecord
  2
BORDER2
 70
    0
  3
Border (.5x) __.__.__.__.__.__.__.__.__.__.__.
 72
   65
 73
    6
 40
22.225
 49
6.35
 74
    0
 49
-3.175
 74
    0
 49
6.35
 74
    0
 49
-3.175
 74
    0
 49
0
 74
    0
 49
-3.175
 74
    0
  0
LTYPE
  5
45
330
5
100
AcDbSymbolTableRecord
100
AcDbLinetypeTableRecord
  2
BORDERX2
 70
    0
  3
Border (2x) ____  ____  .  ____  ____  .  ___
 72
   65
 73
    6
 40
88.89999999999999
 49
25.4
 74
    0
 49
-12.7
 74
    0
 49
25.4
 74
    0
 49
-12.7
 74
    0
 49
0
 74
    0
 49
-12.7
 74
    0
  0
LTYPE
  5
46
330
5
100
AcDbSymbolTableRecord
100
AcDbLinetypeTableRecord
  2
CENTER
 70
    0
  3
Center ____ _ ____ _ ____ _ ____ _ ____ _ ____
 72
   65
 73
    4
 40
50.8
 49
31.75
 74
    0
 49
-6.35
 74
    0
 49
6.35
 74
    0
 49
-6.35
 74
    0
  0
LTYPE
  5
47
330
5
100
AcDbSymbolTableRecord
100
AcDbLinetypeTableRecord
  2
CENTERTINY
 70
    0
  3
Center (.15x) ___ _ ___ _ ___ _ ___ _ ___ _ ___
 72
   65
 73
    4
 40
7.62
 49
4.7625
 74
    0
 49
-0.9525
 74
    0
 49
0.9525
 74
    0
 49
-0.9525
 74
    0
  0
LTYPE
  5
48
330
5
100
AcDbSymbolTableRecord
100
AcDbLinetypeTableRecord
  2
CENTER2
 70
    0
  3
Center (.5x) ___ _ ___ _ ___ _ ___ _ ___ _ ___
 72
   65
 73
    4
 40
28.575
 49
19.05
 74
    0
 49
-3.175
 74
    0
 49
3.175
 74
    0
 49
-3.175
 74
    0
  0
LTYPE
  5
49
330
5
100
AcDbSymbolTableRecord
100
AcDbLinetypeTableRecord
  2
CENTERX2
 70
    0
  3
Center (2x) ________  __  ________  __  _____
 72
   65
 73
    4
 40
101.6
 49
63.5
 74
    0
 49
-12.7
 74
    0
 49
12.7
 74
    0
 49
-12.7
 74
    0
  0
ENDTAB
  0
TABLE
  2
LAYER
  5
2
330
0
100
AcDbSymbolTable
 70
    1
  0
LAYER
  5
10
330
2
100
AcDbSymbolTableRecord
100
AcDbLayerTableRecord
  2
0
 70
    0
 62
    7
  6
CONTINUOUS
370
    0
390
F
  0
LAYER
  5
4A
330
2
100
AcDbSymbolTableRecord
100
AcDbLayerTableRecord
  2
Baskets-KALEX
 70
    0
 62
  136
420
32896
  6
DASHEDTINY
370
    0
390
F
  0
LAYER
  5
4B
330
2
100
AcDbSymbolTableRecord
100
AcDbLayerTableRecord
  2
Shelves
 70
    0
 62
    5
  6
CONTINUOUS
370
   -3
390
F
  0
LAYER
  5
4C
330
2
100
AcDbSymbolTableRecord
100
AcDbLayerTableRecord
  2
Shelves-Brackets
 70
    0
 62
    5
  6
CONTINUOUS
370
    0
390
F
  0
LAYER
  5
4D
330
2
100
AcDbSymbolTableRecord
100
AcDbLayerTableRecord
  2
Shelves_EKET
 70
    0
 62
    6
  6
CONTINUOUS
370
    0
390
F
  0
LAYER
  5
4E
330
2
100
AcDbSymbolTableRecord
100
AcDbLayerTableRecord
  2
Walls
 70
    0
 62
    7
  6
CONTINUOUS
370
    0
390
F
  0
LAYER
  5
4F
330
2
100
AcDbSymbolTableRecord
100
AcDbLayerTableRecord
  2
block
 70
    0
 62
    7
  6
CONTINUOUS
370
   13
390
F
  0
LAYER
  5
50
330
2
100
AcDbSymbolTableRecord
100
AcDbLayerTableRecord
  2
construction
 70
    1
 62
    3
  6
CONTINUOUS
370
    0
390
F
1001
LibreCad
1070
    1
  0
LAYER
  5
51
330
2
100
AcDbSymbolTableRecord
100
AcDbLayerTableRecord
  2
dim
 70
    0
 62
    1
  6
CONTINUOUS
370
    5
390
F
  0
LAYER
  5
52
330
2
100
AcDbSymbolTableRecord
100
AcDbLayerTableRecord
  2
frame
 70
    4
 62
    3
  6
CONTINUOUS
370
   18
390
F
  0
LAYER
  5
53
330
2
100
AcDbSymbolTableRecord
100
AcDbLayerTableRecord
  2
notes
 70
    5
 62
    4
  6
CONTINUOUS
290
0
370
    0
390
F
  0
LAYER
  5
54
330
2
100
AcDbSymbolTableRecord
100
AcDbLayerTableRecord
  2
ticks
 70
    5
 62
    6
  6
CONTINUOUS
290
0
370
    0
390
F
  0
ENDTAB
  0
TABLE
  2
STYLE
  5
3
330
0
100
AcDbSymbolTable
 70
    3
  0
STYLE
  5
55
330
2
100
AcDbSymbolTableRecord
100
AcDbTextStyleTableRecord
  2
iso
 70
    0
 40
0
 41
1
 50
0
 71
    0
 42
1
  3
iso
  4

  0
STYLE
  5
56
330
2
100
AcDbSymbolTableRecord
100
AcDbTextStyleTableRecord
  2
standard
 70
    0
 40
0
 41
1
 50
0
 71
    0
 42
1
  3
standard
  4

  0
ENDTAB
  0
TABLE
  2
VIEW
  5
6
330
0
100
AcDbSymbolTable
 70
    0
  0
ENDTAB
  0
TABLE
  2
UCS
  5
7
330
0
100
AcDbSymbolTable
 70
    0
  0
ENDTAB
  0
TABLE
  2
APPID
  5
9
330
0
100
AcDbSymbolTable
 70
    1
  0
APPID
  5
12
330
9
100
AcDbSymbolTableRecord
100
AcDbRegAppTableRecord
  2
ACAD
 70
    0
  0
APPID
  5
57
330
9
100
AcDbSymbolTableRecord
100
AcDbRegAppTableRecord
  2
LibreCad
 70
    0
  0
ENDTAB
  0
TABLE
  2
DIMSTYLE
  5
A
330
0
100
AcDbSymbolTable
 70
    1
100
AcDbDimStyleTable
 71
    1
  0
DIMSTYLE
105
58
330
A
100
AcDbSymbolTableRecord
100
AcDbDimStyleTableRecord
  2
Standard
 70
    0
 40
0.0393701
 41
1.25
 42
0.625
 43
0.38
 44
0.625
 45
0
 46
0
 47
0
 48
0
 49
0.04
140
30
141
0.09
142
0
143
25.4
144
1
145
0
146
1
147
10
148
0
 71
    0
 72
    0
 73
    0
 74
    1
 75
    0
 76
    0
 77
    0
 78
    1
 79
    0
170
    0
171
    2
172
    0
173
    0
174
    0
175
    0
176
    0
177
    0
178
    0
179
    0
271
    2
272
    4
273
    2
274
    2
275
    0
276
    0
277
    4
278
    0
279
    0
280
    0
281
    0
282
    0
283
    1
284
    0
285
    0
286
    0
288
    0
289
    3
340
standard
341

371
   -2
372
   -2
  0
ENDTAB
  0
TABLE
  2
BLOCK_RECORD
  5
1
330
0
100
AcDbSymbolTable
 70
    2
  0
BLOCK_RECORD
  5
1F
330
1
100
AcDbSymbolTableRecord
100
AcDbBlockTableRecord
  2
*Model_Space
 70
    0
280
    1
281
    0
  0
BLOCK_RECORD
  5
1E
330
1
100
AcDbSymbolTableRecord
100
AcDbBlockTableRecord
  2
*Paper_Space
 70
    0
280
    1
281
    0
  0
BLOCK_RECORD
  5
59
330
1
100
AcDbSymbolTableRecord
100
AcDbBlockTableRecord
  2
*D3
 70
    0
280
    1
281
    0
  0
BLOCK_RECORD
  5
5C
330
1
100
AcDbSymbolTableRecord
100
AcDbBlockTableRecord
  2
*D5
 70
    0
280
    1
281
    0
  0
BLOCK_RECORD
  5
5F
330
1
100
AcDbSymbolTableRecord
100
AcDbBlockTableRecord
  2
*D10
 70
    0
280
    1
281
    0
  0
BLOCK_RECORD
  5
62
330
1
100
AcDbSymbolTableRecord
100
AcDbBlockTableRecord
  2
*D6
 70
    0
280
    1
281
    0
  0
BLOCK_RECORD
  5
65
330
1
100
AcDbSymbolTableRecord
100
AcDbBlockTableRecord
  2
*D1
 70
    0
280
    1
281
    0
  0
BLOCK_RECORD
  5
68
330
1
100
AcDbSymbolTableRecord
100
AcDbBlockTableRecord
  2
*D7
 70
    0
280
    1
281
    0
  0
BLOCK_RECORD
  5
6B
330
1
100
AcDbSymbolTableRecord
100
AcDbBlockTableRecord
  2
*D12
 70
    0
280
    1
281
    0
  0
BLOCK_RECORD
  5
6E
330
1
100
AcDbSymbolTableRecord
100
AcDbBlockTableRecord
  2
*D8
 70
    0
280
    1
281
    0
  0
BLOCK_RECORD
  5
71
330
1
100
AcDbSymbolTableRecord
100
AcDbBlockTableRecord
  2
*D11
 70
    0
280
    1
281
    0
  0
BLOCK_RECORD
  5
74
330
1
100
AcDbSymbolTableRecord
100
AcDbBlockTableRecord
  2
*D2
 70
    0
280
    1
281
    0
  0
BLOCK_RECORD
  5
77
330
1
100
AcDbSymbolTableRecord
100
AcDbBlockTableRecord
  2
*D4
 70
    0
280
    1
281
    0
  0
BLOCK_RECORD
  5
7A
330
1
100
AcDbSymbolTableRecord
100
AcDbBlockTableRecord
  2
*D9
 70
    0
280
    1
281
    0
  0
BLOCK_RECORD
  5
7D
330
1
100
AcDbSymbolTableRecord
100
AcDbBlockTableRecord
  2
*D13
 70
    0
280
    1
281
    0
  0
BLOCK_RECORD
  5
80
330
1
100
AcDbSymbolTableRecord
100
AcDbBlockTableRecord
  2
*D14
 70
    0
280
    1
281
    0
  0
BLOCK_RECORD
  5
83
330
1
100
AcDbSymbolTableRecord
100
AcDbBlockTableRecord
  2
*D15
 70
    0
280
    1
281
    0
  0
ENDTAB
  0
ENDSEC
  0
SECTION
  2
BLOCKS
  0
BLOCK
  5
20
330
1F
100
AcDbEntity
  8
0
100
AcDbBlockBegin
  2
*Model_Space
 70
    0
 10
0
 20
0
 30
0
  3
*Model_Space
  1

  0
ENDBLK
  5
21
330
1F
100
AcDbEntity
  8
0
100
AcDbBlockEnd
  0
BLOCK
  5
1C
330
1B
100
AcDbEntity
  8
0
100
AcDbBlockBegin
  2
*Paper_Space
 70
    0
 10
0
 20
0
 30
0
  3
*Paper_Space
  1

  0
ENDBLK
  5
1D
330
1F
100
AcDbEntity
  8
0
100
AcDbBlockEnd
  0
BLOCK
  5
5A
330
59
100
AcDbEntity
  8
0
100
AcDbBlockBegin
  2
*D3
 70
    1
 10
0
 20
0
  3
*D3
  1

  0
LINE
  5
86
100
AcDbEntity
  8
dim
  6
ByBlock
 62
    0
370
   -2
100
AcDbLine
 10
95.8125
 20
47.99999999999999
 11
95.8125
 21
74.875
  0
SOLID
  5
87
100
AcDbEntity
  8
dim
  6
ByBlock
 62
    0
370
   -2
100
AcDbTrace
 10
95.8125
 20
47.99999999999999
 30
0
 11
95.80430541569751
 21
48.04921262499999
 31
0
 12
95.82069458430249
 22
48.04921262499999
 32
0
 13
95.82069458430249
 23
48.04921262499999
 33
0
  0
SOLID
  5
88
100
AcDbEntity
  8
dim
  6
ByBlock
 62
    0
370
   -2
100
AcDbTrace
 10
95.8125
 20
74.875
 30
0
 11
95.82069458430249
 21
74.825787375
 31
0
 12
95.80430541569751
 22
74.825787375
 32
0
 13
95.80430541569751
 23
74.825787375
 33
0
  0
MTEXT
  5
89
100
AcDbEntity
  8
dim
  6
CONTINUOUS
 62
    0
370
   -2
100
AcDbMText
 10
94.8282475
 20
61.43749999999999
 30
0
 40
1.181103
 41
7.38189375
 71
    5
 72
    1
  1
2'-2 7/8"
  7
standard
210
0
220
0
230
1
 50
90
 73
    2
 44
1
  0
LINE
  5
8A
100
AcDbEntity
  8
dim
  6
ByBlock
 62
    0
370
   -2
100
AcDbLine
 10
92.0246063125
 20
47.99999999999999
 11
95.8371063125
 21
47.99999999999999
  0
LINE
  5
8B
100
AcDbEntity
  8
dim
  6
ByBlock
 62
    0
370
   -2
100
AcDbLine
 10
92.0246063125
 20
74.875
 11
95.8371063125
 21
74.875
  0
ENDBLK
  5
5B
330
59
100
AcDbEntity
  8
0
100
AcDbBlockEnd
  0
BLOCK
  5
5D
330
5C
100
AcDbEntity
  8
0
100
AcDbBlockBegin
  2
*D5
 70
    1
 10
0
 20
0
  3
*D5
  1

  0
LINE
  5
8C
100
AcDbEntity
  8
dim
  6
ByBlock
 62
    0
370
   -2
100
AcDbLine
 10
75.40625
 20
61.74999999999999
 11
75.40625
 21
74.875
  0
SOLID
  5
8D
100
AcDbEntity
  8
dim
  6
ByBlock
 62
    0
370
   -2
100
AcDbTrace
 10
75.40625
 20
61.74999999999999
 30
0
 11
75.39805541569751
 21
61.799212625
 31
0
 12
75.41444458430249
 22
61.799212625
 32
0
 13
75.41444458430249
 23
61.799212625
 33
0
  0
SOLID
  5
8E
100
AcDbEntity
  8
dim
  6
ByBlock
 62
    0
370
   -2
100
AcDbTrace
 10
75.40625
 20
74.875
 30
0
 11
75.41444458430249
 21
74.825787375
 31
0
 12
75.39805541569751
 22
74.825787375
 32
0
 13
75.39805541569751
 23
74.825787375
 33
0
  0
MTEXT
  5
8F
100
AcDbEntity
  8
dim
  6
CONTINUOUS
 62
    0
370
   -2
100
AcDbMText
 10
74.4219975
 20
68.3125
 30
0
 40
1.181103
 41
6.59449175
 71
    5
 72
    1
  1
1'-1 1/8"
  7
standard
210
0
220
0
230
1
 50
90
 73
    2
 44
1
  0
LINE
  5
90
100
AcDbEntity
  8
dim
  6
ByBlock
 62
    0
370
   -2
100
AcDbLine
 10
78.23159368750001
 20
61.74999999999999
 11
75.3816436875
 21
61.74999999999999
  0
LINE
  5
91
100
AcDbEntity
  8
dim
  6
ByBlock
 62
    0
370
   -2
100
AcDbLine
 10
78.23159368750001
 20
74.875
 11
75.3816436875
 21
74.875
  0
ENDBLK
  5
5E
330
5C
100
AcDbEntity
  8
0
100
AcDbBlockEnd
  0
BLOCK
  5
60
330
5F
100
AcDbEntity
  8
0
100
AcDbBlockBegin
  2
*D10
 70
    1
 10
0
 20
0
  3
*D10
  1

  0
LINE
  5
92
100
AcDbEntity
  8
dim
  6
ByBlock
 62
    0
370
   -2
100
AcDbLine
 10
12.225
 20
20
 11
38.65
 21
20
  0
SOLID
  5
93
100
AcDbEntity
  8
dim
  6
ByBlock
 62
    0
370
   -2
100
AcDbTrace
 10
12.225
 20
20
 30
0
 11
12.274212625
 21
20.00819458430249
 31
0
 12
12.274212625
 22
19.99180541569751
 32
0
 13
12.274212625
 23
19.99180541569751
 33
0
  0
SOLID
  5
94
100
AcDbEntity
  8
dim
  6
ByBlock
 62
    0
370
   -2
100
AcDbTrace
 10
38.65
 20
20
 30
0
 11
38.600787375
 21
19.99180541569751
 31
0
 12
38.600787375
 22
20.00819458430249
 32
0
 13
38.600787375
 23
20.00819458430249
 33
0
  0
MTEXT
  5
95
100
AcDbEntity
  8
dim
  6
CONTINUOUS
 62
    0
370
   -2
100
AcDbMText
 10
25.4375
 20
20.9842525
 30
0
 40
1.181103
 41
7.381893750000073
 71
    5
 72
    1
  1
2'-2 3/8"
  7
standard
210
0
220
0
230
1
 50
0
 73
    2
 44
1
  0
LINE
  5
96
100
AcDbEntity
  8
dim
  6
ByBlock
 62
    0
370
   -2
100
AcDbLine
 10
12.225
 20
22.2253936875
 11
12.225
 21
19.9753936875
  0
LINE
  5
97
100
AcDbEntity
  8
dim
  6
ByBlock
 62
    0
370
   -2
100
AcDbLine
 10
38.65
 20
22.2253936875
 11
38.65
 21
19.9753936875
  0
ENDBLK
  5
61
330
5F
100
AcDbEntity
  8
0
100
AcDbBlockEnd
  0
BLOCK
  5
63
330
62
100
AcDbEntity
  8
0
100
AcDbBlockBegin
  2
*D6
 70
    1
 10
0
 20
0
  3
*D6
  1

  0
LINE
  5
98
100
AcDbEntity
  8
dim
  6
CONTINUOUS
 62
    7
370
    0
100
AcDbLine
 10
78.25620000000001
 20
47.99999999999999
 11
78.25620000000001
 21
44
  0
LINE
  5
99
100
AcDbEntity
  8
dim
  6
CONTINUOUS
 62
    7
370
    0
100
AcDbLine
 10
78.25620000000001
 20
44
 11
81.40625
 21
44
  0
SOLID
  5
9A
100
AcDbEntity
  8
dim
  6
CONTINUOUS
 62
    7
370
    0
100
AcDbTrace
 10
78.25620000000001
 20
47.99999999999999
 30
0
 11
78.26439458430249
 21
47.95078737499999
 31
0
 12
78.24800541569752
 22
47.95078737499999
 32
0
 13
78.24800541569752
 23
47.95078737499999
 33
0
  0
ENDBLK
  5
64
330
62
100
AcDbEntity
  8
0
100
AcDbBlockEnd
  0
BLOCK
  5
66
330
65
100
AcDbEntity
  8
0
100
AcDbBlockBegin
  2
*D1
 70
    1
 10
0
 20
0
  3
*D1
  1

  0
LINE
  5
9B
100
AcDbEntity
  8
notes
  6
ByBlock
 62
    0
370
   -2
100
AcDbLine
 10
7.5
 20
6.401050788091066
 11
102.5
 21
6.401050788091066
  0
SOLID
  5
9C
100
AcDbEntity
  8
notes
  6
ByBlock
 62
    0
370
   -2
100
AcDbTrace
 10
7.5
 20
6.401050788091066
 30
0
 11
7.549212625
 21
6.409245372393557
 31
0
 12
7.549212625
 22
6.392856203788575
 32
0
 13
7.549212625
 23
6.392856203788575
 33
0
  0
SOLID
  5
9D
100
AcDbEntity
  8
notes
  6
ByBlock
 62
    0
370
   -2
100
AcDbTrace
 10
102.5
 20
6.401050788091066
 30
0
 11
102.450787375
 21
6.392856203788575
 31
0
 12
102.450787375
 22
6.409245372393557
 32
0
 13
102.450787375
 23
6.409245372393557
 33
0
  0
MTEXT
  5
9E
100
AcDbEntity
  8
notes
  6
CONTINUOUS
 62
    0
370
   -2
100
AcDbMText
 10
55
 20
7.385303288091066
 30
0
 40
1.181103
 41
4.1338605
 71
    5
 72
    1
  1
7'-11"
  7
standard
210
0
220
0
230
1
 50
0
 73
    2
 44
1
  0
LINE
  5
9F
100
AcDbEntity
  8
notes
  6
ByBlock
 62
    0
370
   -2
100
AcDbLine
 10
7.5
 20
3.7746063125
 11
7.5
 21
6.425657100591065
  0
LINE
  5
A0
100
AcDbEntity
  8
notes
  6
ByBlock
 62
    0
370
   -2
100
AcDbLine
 10
102.5
 20
3.774606312499982
 11
102.5
 21
6.425657100591065
  0
ENDBLK
  5
67
330
65
100
AcDbEntity
  8
0
100
AcDbBlockEnd
  0
BLOCK
  5
69
330
68
100
AcDbEntity
  8
0
100
AcDbBlockBegin
  2
*D7
 70
    1
 10
0
 20
0
  3
*D7
  1

  0
LINE
  5
A1
100
AcDbEntity
  8
dim
  6
CONTINUOUS
 62
    7
370
    0
100
AcDbLine
 10
78.25620000000001
 20
74.875
 11
78.25620000000001
 21
78
  0
LINE
  5
A2
100
AcDbEntity
  8
dim
  6
CONTINUOUS
 62
    7
370
    0
100
AcDbLine
 10
78.25620000000001
 20
78
 11
81.40625
 21
78
  0
SOLID
  5
A3
100
AcDbEntity
  8
dim
  6
CONTINUOUS
 62
    7
370
    0
100
AcDbTrace
 10
78.25620000000001
 20
74.875
 30
0
 11
78.24800541569752
 21
74.924212625
 31
0
 12
78.26439458430249
 22
74.924212625
 32
0
 13
78.26439458430249
 23
74.924212625
 33
0
  0
ENDBLK
  5
6A
330
68
100
AcDbEntity
  8
0
100
AcDbBlockEnd
  0
BLOCK
  5
6C
330
6B
100
AcDbEntity
  8
0
100
AcDbBlockBegin
  2
*D12
 70
    1
 10
0
 20
0
  3
*D12
  1

  0
LINE
  5
A4
100
AcDbEntity
  8
dim
  6
ByBlock
 62
    0
370
   -2
100
AcDbLine
 10
12
 20
40
 11
38.875
 21
40
  0
SOLID
  5
A5
100
AcDbEntity
  8
dim
  6
ByBlock
 62
    0
370
   -2
100
AcDbTrace
 10
12
 20
40
 30
0
 11
12.049212625
 21
40.00819458430249
 31
0
 12
12.049212625
 22
39.99180541569751
 32
0
 13
12.049212625
 23
39.99180541569751
 33
0
  0
SOLID
  5
A6
100
AcDbEntity
  8
dim
  6
ByBlock
 62
    0
370
   -2
100
AcDbTrace
 10
38.875
 20
40
 30
0
 11
38.825787375
 21
39.99180541569751
 31
0
 12
38.825787375
 22
40.00819458430249
 32
0
 13
38.825787375
 23
40.00819458430249
 33
0
  0
MTEXT
  5
A7
100
AcDbEntity
  8
dim
  6
CONTINUOUS
 62
    0
370
   -2
100
AcDbMText
 10
25.4375
 20
40.9842525
 30
0
 40
1.181103
 41
7.38189375
 71
    5
 72
    1
  1
2'-2 7/8"
  7
standard
210
0
220
0
230
1
 50
0
 73
    2
 44
1
  0
LINE
  5
A8
100
AcDbEntity
  8
dim
  6
ByBlock
 62
    0
370
   -2
100
AcDbLine
 10
12
 20
38.0246063125
 11
12
 21
40.0246063125
  0
LINE
  5
A9
100
AcDbEntity
  8
dim
  6
ByBlock
 62
    0
370
   -2
100
AcDbLine
 10
38.875
 20
38.0246063125
 11
38.875
 21
40.0246063125
  0
ENDBLK
  5
6D
330
6B
100
AcDbEntity
  8
0
100
AcDbBlockEnd
  0
BLOCK
  5
6F
330
6E
100
AcDbEntity
  8
0
100
AcDbBlockBegin
  2
*D8
 70
    1
 10
0
 20
0
  3
*D8
  1

  0
LINE
  5
AA
100
AcDbEntity
  8
dim
  6
ByBlock
 62
    0
370
   -2
100
AcDbLine
 10
11
 20
38
 11
11
 21
35
  0
SOLID
  5
AB
100
AcDbEntity
  8
dim
  6
ByBlock
 62
    0
370
   -2
100
AcDbTrace
 10
11
 20
38
 30
0
 11
11.00819458430249
 21
37.950787375
 31
0
 12
10.99180541569751
 22
37.950787375
 32
0
 13
10.99180541569751
 23
37.950787375
 33
0
  0
SOLID
  5
AC
100
AcDbEntity
  8
dim
  6
ByBlock
 62
    0
370
   -2
100
AcDbTrace
 10
11
 20
35
 30
0
 11
10.99180541569751
 21
35.049212625
 31
0
 12
11.00819458430249
 22
35.049212625
 32
0
 13
11.00819458430249
 23
35.049212625
 33
0
  0
MTEXT
  5
AD
100
AcDbEntity
  8
dim
  6
CONTINUOUS
 62
    0
370
   -2
100
AcDbMText
 10
10.0157475
 20
40.26378075000004
 30
0
 40
1.181103
 41
3.740159500000073
 71
    5
 72
    1
  1
0'-3"
  7
standard
210
0
220
0
230
1
 50
90
 73
    2
 44
1
  0
LINE
  5
AE
100
AcDbEntity
  8
dim
  6
ByBlock
 62
    0
370
   -2
100
AcDbLine
 10
11.9753936875
 20
38
 11
10.9753936875
 21
38
  0
LINE
  5
AF
100
AcDbEntity
  8
dim
  6
ByBlock
 62
    0
370
   -2
100
AcDbLine
 10
11.9753936875
 20
35
 11
10.9753936875
 21
35
  0
ENDBLK
  5
70
330
6E
100
AcDbEntity
  8
0
100
AcDbBlockEnd
  0
BLOCK
  5
72
330
71
100
AcDbEntity
  8
0
100
AcDbBlockBegin
  2
*D11
 70
    1
 10
0
 20
0
  3
*D11
  1

  0
LINE
  5
B0
100
AcDbEntity
  8
dim
  6
ByBlock
 62
    0
370
   -2
100
AcDbLine
 10
42
 20
38
 11
42
 21
22.25
  0
SOLID
  5
B1
100
AcDbEntity
  8
dim
  6
ByBlock
 62
    0
370
   -2
100
AcDbTrace
 10
42
 20
38
 30
0
 11
42.00819458430249
 21
37.950787375
 31
0
 12
41.99180541569751
 22
37.950787375
 32
0
 13
41.99180541569751
 23
37.950787375
 33
0
  0
SOLID
  5
B2
100
AcDbEntity
  8
dim
  6
ByBlock
 62
    0
370
   -2
100
AcDbTrace
 10
42
 20
22.25
 30
0
 11
41.99180541569751
 21
22.299212625
 31
0
 12
42.00819458430249
 22
22.299212625
 32
0
 13
42.00819458430249
 23
22.299212625
 33
0
  0
MTEXT
  5
B3
100
AcDbEntity
  8
dim
  6
CONTINUOUS
 62
    0
370
   -2
100
AcDbMText
 10
41.0157475
 20
30.125
 30
0
 40
1.181103
 41
7.25066008333348
 71
    5
 72
    1
  1
1'-3 3/4"
  7
standard
210
0
220
0
230
1
 50
90
 73
    2
 44
1
  0
LINE
  5
B4
100
AcDbEntity
  8
dim
  6
ByBlock
 62
    0
370
   -2
100
AcDbLine
 10
38.6746063125
 20
38
 11
42.0246063125
 21
38
  0
LINE
  5
B5
100
AcDbEntity
  8
dim
  6
ByBlock
 62
    0
370
   -2
100
AcDbLine
 10
38.6746063125
 20
22.25
 11
42.0246063125
 21
22.25
  0
ENDBLK
  5
73
330
71
100
AcDbEntity
  8
0
100
AcDbBlockEnd
  0
BLOCK
  5
75
330
74
100
AcDbEntity
  8
0
100
AcDbBlockBegin
  2
*D2
 70
    1
 10
0
 20
0
  3
*D2
  1

  0
LINE
  5
B6
100
AcDbEntity
  8
notes
  6
ByBlock
 62
    0
370
   -2
100
AcDbLine
 10
11.61120840630473
 20
3.75
 11
11.61120840630473
 21
81.24999999999994
  0
SOLID
  5
B7
100
AcDbEntity
  8
notes
  6
ByBlock
 62
    0
370
   -2
100
AcDbTrace
 10
11.61120840630473
 20
3.75
 30
0
 11
11.60301382200224
 21
3.799212625
 31
0
 12
11.61940299060722
 22
3.799212625
 32
0
 13
11.61940299060722
 23
3.799212625
 33
0
  0
SOLID
  5
B8
100
AcDbEntity
  8
notes
  6
ByBlock
 62
    0
370
   -2
100
AcDbTrace
 10
11.61120840630473
 20
81.24999999999994
 30
0
 11
11.61940299060722
 21
81.20078737499995
 31
0
 12
11.60301382200224
 22
81.20078737499995
 32
0
 13
11.60301382200224
 23
81.20078737499995
 33
0
  0
MTEXT
  5
B9
100
AcDbEntity
  8
notes
  6
CONTINUOUS
 62
    0
370
   -2
100
AcDbMText
 10
10.62695590630473
 20
42.49999999999997
 30
0
 40
1.181103
 41
7.119426416666813
 71
    5
 72
    1
  1
6'-5 1/2"
  7
standard
210
0
220
0
230
1
 50
90
 73
    2
 44
1
  0
LINE
  5
BA
100
AcDbEntity
  8
notes
  6
ByBlock
 62
    0
370
   -2
100
AcDbLine
 10
7.5246063125
 20
3.75
 11
11.63581471880473
 21
3.75
  0
LINE
  5
BB
100
AcDbEntity
  8
notes
  6
ByBlock
 62
    0
370
   -2
100
AcDbLine
 10
7.524606312499982
 20
81.24999999999994
 11
11.63581471880473
 21
81.24999999999994
  0
ENDBLK
  5
76
330
74
100
AcDbEntity
  8
0
100
AcDbBlockEnd
  0
BLOCK
  5
78
330
77
100
AcDbEntity
  8
0
100
AcDbBlockBegin
  2
*D4
 70
    1
 10
0
 20
0
  3
*D4
  1

  0
LINE
  5
BC
100
AcDbEntity
  8
dim
  6
ByBlock
 62
    0
370
   -2
100
AcDbLine
 10
13.81249999999999
 20
78.87500000000001
 11
76.84995000000001
 21
78.875
  0
SOLID
  5
BD
100
AcDbEntity
  8
dim
  6
ByBlock
 62
    0
370
   -2
100
AcDbTrace
 10
13.81249999999999
 20
78.87500000000001
 30
0
 11
13.86171262499999
 21
78.8831945843025
 31
0
 12
13.86171262499999
 22
78.86680541569753
 32
0
 13
13.86171262499999
 23
78.86680541569753
 33
0
  0
SOLID
  5
BE
100
AcDbEntity
  8
dim
  6
ByBlock
 62
    0
370
   -2
100
AcDbTrace
 10
76.84995000000001
 20
78.875
 30
0
 11
76.80073737500001
 21
78.86680541569751
 31
0
 12
76.80073737500001
 22
78.88319458430249
 32
0
 13
76.80073737500001
 23
78.88319458430249
 33
0
  0
MTEXT
  5
BF
100
AcDbEntity
  8
dim
  6
CONTINUOUS
 62
    0
370
   -2
100
AcDbMText
 10
45.331225
 20
79.8592525
 30
0
 40
1.181103
 41
3.740159500000146
 71
    5
 72
    1
  1
5'-3"
  7
standard
210
0
220
0
230
1
 50
360
 73
    2
 44
1
  0
LINE
  5
C0
100
AcDbEntity
  8
dim
  6
ByBlock
 62
    0
370
   -2
100
AcDbLine
 10
13.8125
 20
74.8996063125
 11
13.81249999999999
 21
78.89960631250001
  0
LINE
  5
C1
100
AcDbEntity
  8
dim
  6
ByBlock
 62
    0
370
   -2
100
AcDbLine
 10
76.84995000000001
 20
74.8996063125
 11
76.84995000000001
 21
78.8996063125
  0
ENDBLK
  5
79
330
77
100
AcDbEntity
  8
0
100
AcDbBlockEnd
  0
BLOCK
  5
7B
330
7A
100
AcDbEntity
  8
0
100
AcDbBlockBegin
  2
*D9
 70
    1
 10
0
 20
0
  3
*D9
  1

  0
LINE
  5
C2
100
AcDbEntity
  8
dim
  6
ByBlock
 62
    0
370
   -2
100
AcDbLine
 10
10
 20
38
 11
10
 21
25.85
  0
SOLID
  5
C3
100
AcDbEntity
  8
dim
  6
ByBlock
 62
    0
370
   -2
100
AcDbTrace
 10
10
 20
38
 30
0
 11
10.00819458430249
 21
37.950787375
 31
0
 12
9.99180541569751
 22
37.950787375
 32
0
 13
9.99180541569751
 23
37.950787375
 33
0
  0
SOLID
  5
C4
100
AcDbEntity
  8
dim
  6
ByBlock
 62
    0
370
   -2
100
AcDbTrace
 10
10
 20
25.85
 30
0
 11
9.99180541569751
 21
25.899212625
 31
0
 12
10.00819458430249
 22
25.899212625
 32
0
 13
10.00819458430249
 23
25.899212625
 33
0
  0
MTEXT
  5
C5
100
AcDbEntity
  8
dim
  6
CONTINUOUS
 62
    0
370
   -2
100
AcDbMText
 10
9.0157475
 20
31.925
 30
0
 40
1.181103
 41
5.052496166666667
 71
    5
 72
    1
  1
1'-1/8"
  7
standard
210
0
220
0
230
1
 50
90
 73
    2
 44
1
  0
LINE
  5
C6
100
AcDbEntity
  8
dim
  6
ByBlock
 62
    0
370
   -2
100
AcDbLine
 10
11.9753936875
 20
38
 11
9.9753936875
 21
38
  0
LINE
  5
C7
100
AcDbEntity
  8
dim
  6
ByBlock
 62
    0
370
   -2
100
AcDbLine
 10
11.9753936875
 20
25.85
 11
9.9753936875
 21
25.85
  0
ENDBLK
  5
7C
330
7A
100
AcDbEntity
  8
0
100
AcDbBlockEnd
  0
BLOCK
  5
7E
330
7D
100
AcDbEntity
  8
0
100
AcDbBlockBegin
  2
*D13
 70
    1
 10
0
 20
0
  3
*D13
  1

  0
LINE
  5
C8
100
AcDbEntity
  8
dim
  6
ByBlock
 62
    0
370
   -2
100
AcDbLine
 10
13.8125
 20
46
 11
50.75620000000001
 21
46
  0
SOLID
  5
C9
100
AcDbEntity
  8
dim
  6
ByBlock
 62
    0
370
   -2
100
AcDbTrace
 10
13.8125
 20
46
 30
0
 11
13.861712625
 21
46.00819458430249
 31
0
 12
13.861712625
 22
45.99180541569751
 32
0
 13
13.861712625
 23
45.99180541569751
 33
0
  0
SOLID
  5
CA
100
AcDbEntity
  8
dim
  6
ByBlock
 62
    0
370
   -2
100
AcDbTrace
 10
50.75620000000001
 20
46
 30
0
 11
50.706987375
 21
45.99180541569751
 31
0
 12
50.706987375
 22
46.00819458430249
 32
0
 13
50.706987375
 23
46.00819458430249
 33
0
  0
MTEXT
  5
CB
100
AcDbEntity
  8
dim
  6
CONTINUOUS
 62
    0
370
   -2
100
AcDbMText
 10
32.28435
 20
46.9842525
 30
0
 40
1.181103
 41
3.47769216666674
 71
    5
 72
    1
  1
3'-1"
  7
standard
210
0
220
0
230
1
 50
0
 73
    2
 44
1
  0
LINE
  5
CC
100
AcDbEntity
  8
dim
  6
ByBlock
 62
    0
370
   -2
100
AcDbLine
 10
13.8125
 20
47.9753936875
 11
13.8125
 21
45.9753936875
  0
LINE
  5
CD
100
AcDbEntity
  8
dim
  6
ByBlock
 62
    0
370
   -2
100
AcDbLine
 10
50.75620000000001
 20
47.9753936875
 11
50.75620000000001
 21
45.9753936875
  0
ENDBLK
  5
7F
330
7D
100
AcDbEntity
  8
0
100
AcDbBlockEnd
  0
BLOCK
  5
81
330
80
100
AcDbEntity
  8
0
100
AcDbBlockBegin
  2
*D14
 70
    1
 10
0
 20
0
  3
*D14
  1

  0
LINE
  5
CE
100
AcDbEntity
  8
dim
  6
ByBlock
 62
    0
370
   -2
100
AcDbLine
 10
11.8125
 20
43
 11
13.8125
 21
43
  0
SOLID
  5
CF
100
AcDbEntity
  8
dim
  6
ByBlock
 62
    0
370
   -2
100
AcDbTrace
 10
11.8125
 20
43
 30
0
 11
11.861712625
 21
43.00819458430249
 31
0
 12
11.861712625
 22
42.99180541569751
 32
0
 13
11.861712625
 23
42.99180541569751
 33
0
  0
SOLID
  5
D0
100
AcDbEntity
  8
dim
  6
ByBlock
 62
    0
370
   -2
100
AcDbTrace
 10
13.8125
 20
43
 30
0
 11
13.763287375
 21
42.99180541569751
 31
0
 12
13.763287375
 22
43.00819458430249
 32
0
 13
13.763287375
 23
43.00819458430249
 33
0
  0
MTEXT
  5
D1
100
AcDbEntity
  8
dim
  6
CONTINUOUS
 62
    0
370
   -2
100
AcDbMText
 10
16.07628075
 20
43.9842525
 30
0
 40
1.181103
 41
3.7401595
 71
    5
 72
    1
  1
0'-2"
  7
standard
210
0
220
0
230
1
 50
0
 73
    2
 44
1
  0
LINE
  5
D2
100
AcDbEntity
  8
dim
  6
ByBlock
 62
    0
370
   -2
100
AcDbLine
 10
11.8125
 20
47.9753936875
 11
11.8125
 21
42.9753936875
  0
LINE
  5
D3
100
AcDbEntity
  8
dim
  6
ByBlock
 62
    0
370
   -2
100
AcDbLine
 10
13.8125
 20
47.9753936875
 11
13.8125
 21
42.9753936875
  0
ENDBLK
  5
82
330
80
100
AcDbEntity
  8
0
100
AcDbBlockEnd
  0
BLOCK
  5
84
330
83
100
AcDbEntity
  8
0
100
AcDbBlockBegin
  2
*D15
 70
    1
 10
0
 20
0
  3
*D15
  1

  0
LINE
  5
D4
100
AcDbEntity
  8
dim
  6
ByBlock
 62
    0
370
   -2
100
AcDbLine
 10
79.00620000000001
 20
50
 11
91.99999999999999
 21
50
  0
SOLID
  5
D5
100
AcDbEntity
  8
dim
  6
ByBlock
 62
    0
370
   -2
100
AcDbTrace
 10
79.00620000000001
 20
50
 30
0
 11
79.055412625
 21
50.00819458430249
 31
0
 12
79.055412625
 22
49.99180541569751
 32
0
 13
79.055412625
 23
49.99180541569751
 33
0
  0
SOLID
  5
D6
100
AcDbEntity
  8
dim
  6
ByBlock
 62
    0
370
   -2
100
AcDbTrace
 10
91.99999999999999
 20
50
 30
0
 11
91.95078737499999
 21
49.99180541569751
 31
0
 12
91.95078737499999
 22
50.00819458430249
 32
0
 13
91.95078737499999
 23
50.00819458430249
 33
0
  0
MTEXT
  5
D7
100
AcDbEntity
  8
dim
  6
CONTINUOUS
 62
    0
370
   -2
100
AcDbMText
 10
85.50309999999999
 20
50.9842525
 30
0
 40
1.181103
 41
3.215224833333333
 71
    5
 72
    1
  1
1'-1"
  7
standard
210
0
220
0
230
1
 50
0
 73
    2
 44
1
  0
LINE
  5
D8
100
AcDbEntity
  8
dim
  6
ByBlock
 62
    0
370
   -2
100
AcDbLine
 10
79.00620000000001
 20
48.02460631249999
 11
79.00620000000001
 21
50.0246063125
  0
LINE
  5
D9
100
AcDbEntity
  8
dim
  6
ByBlock
 62
    0
370
   -2
100
AcDbLine
 10
91.99999999999999
 20
48.02460631249999
 11
91.99999999999999
 21
50.0246063125
  0
ENDBLK
  5
85
330
83
100
AcDbEntity
  8
0
100
AcDbBlockEnd
  0
ENDSEC
  0
SECTION
  2
ENTITIES
  0
LWPOLYLINE
  5
DA
100
AcDbEntity
  8
Baskets-KALEX
  6
ByLayer
 62
  256
370
   -1
100
AcDbPolyline
 90
    4
 70
    1
 43
0
 10
92
 20
47.99999999999999
 10
79.5
 20
47.99999999999999
 10
79.5
 20
60.99999999999999
 10
92
 20
60.99999999999999
  0
LWPOLYLINE
  5
DB
100
AcDbEntity
  8
Baskets-KALEX
  6
ByLayer
 62
  256
370
   -1
100
AcDbPolyline
 90
    4
 70
    1
 43
0
 10
92
 20
74.875
 10
79.5
 20
74.875
 10
79.5
 20
61.875
 10
92
 20
61.875
  0
LWPOLYLINE
  5
DC
100
AcDbEntity
  8
Shelves_EKET
  6
ByLayer
 62
  256
370
   -1
100
AcDbPolyline
 90
    4
 70
    1
 43
0
 10
12
 20
38
 10
25.75
 20
38
 10
25.75
 20
24.25
 10
12
 20
24.25
  0
LINE
  5
DD
100
AcDbEntity
  8
ticks
  6
ByLayer
 62
  256
370
   -1
100
AcDbLine
 10
110
 20
-1.8e-014
 11
105
 21
-1.8e-014
  0
LINE
  5
DE
100
AcDbEntity
  8
ticks
  6
ByLayer
 62
  256
370
   -1
100
AcDbLine
 10
110
 20
-1.8e-014
 11
110
 21
4.999999999999982
  0
LINE
  5
DF
100
AcDbEntity
  8
ticks
  6
ByLayer
 62
  256
370
   -1
100
AcDbLine
 10
0
 20
0
 11
0
 21
4.999999999999982
  0
LINE
  5
E0
100
AcDbEntity
  8
ticks
  6
ByLayer
 62
  256
370
   -1
100
AcDbLine
 10
5
 20
0
 11
0
 21
0
  0
LINE
  5
E1
100
AcDbEntity
  8
ticks
  6
ByLayer
 62
  256
370
   -1
100
AcDbLine
 10
110
 20
84.99999999999999
 11
105
 21
84.99999999999999
  0
LINE
  5
E2
100
AcDbEntity
  8
ticks
  6
ByLayer
 62
  256
370
   -1
100
AcDbLine
 10
0
 20
80.00000000000001
 11
0
 21
84.99999999999999
  0
LINE
  5
E3
100
AcDbEntity
  8
ticks
  6
ByLayer
 62
  256
370
   -1
100
AcDbLine
 10
5
 20
84.99999999999999
 11
0
 21
84.99999999999999
  0
LINE
  5
E4
100
AcDbEntity
  8
ticks
  6
ByLayer
 62
  256
370
   -1
100
AcDbLine
 10
110
 20
79.99999999999999
 11
110
 21
84.99999999999999
  0
LINE
  5
E5
100
AcDbEntity
  8
frame
  6
ByLayer
 62
  256
370
   25
100
AcDbLine
 10
102.5
 20
3.749999999999982
 11
7.5
 21
3.75
  0
LINE
  5
E6
100
AcDbEntity
  8
frame
  6
ByLayer
 62
  256
370
   25
100
AcDbLine
 10
7.5
 20
3.75
 11
7.499999999999982
 21
81.24999999999994
  0
LINE
  5
E7
100
AcDbEntity
  8
frame
  6
ByLayer
 62
  256
370
   25
100
AcDbLine
 10
102.5
 20
3.749999999999982
 11
102.5
 21
81.24999999999999
  0
LINE
  5
E8
100
AcDbEntity
  8
frame
  6
ByLayer
 62
  256
370
   25
100
AcDbLine
 10
102.5
 20
81.24999999999999
 11
7.499999999999982
 21
81.24999999999994
  0
DIMENSION
  5
E9
100
AcDbEntity
  8
notes
  6
ByLayer
 62
  256
370
   -1
100
AcDbDimension
  2
*D1
 10
102.5
 20
6.401050788091066
 30
0
 11
55
 21
7.385303288091066
 31
0
 70
   32
 71
    5
  3
Standard
 53
0
210
0
220
0
230
1
100
AcDbAlignedDimension
 13
7.5
 23
3.75
 33
0
 14
102.5
 24
3.749999999999982
 34
0
100
AcDbRotatedDimension
  0
DIMENSION
  5
EA
100
AcDbEntity
  8
notes
  6
ByLayer
 62
  256
370
   -1
100
AcDbDimension
  2
*D2
 10
11.61120840630473
 20
81.24999999999994
 30
0
 11
10.62695590630473
 21
42.49999999999997
 31
0
 70
   32
 71
    5
  3
Standard
 53
0
210
0
220
0
230
1
100
AcDbAlignedDimension
 13
7.5
 23
3.75
 33
0
 14
7.499999999999982
 24
81.24999999999994
 34
0
 50
90
100
AcDbRotatedDimension
  0
MTEXT
  5
EB
100
AcDbEntity
  8
notes
  6
ByLayer
 62
  256
370
   -1
100
AcDbMText
 10
18.16112084063047
 20
31.40980735551663
 30
0
 40
2.5
 41
68.19444573016303
 71
    4
 72
    5
  1
Turn off notes layer to remove border\Pdimensions and these notes.\P\P\P\P\P\P
  7
iso
210
0
220
0
230
1
 50
0
 73
    2
 44
0.96
  0
MTEXT
  5
EC
100
AcDbEntity
  8
notes
  6
ByLayer
 62
  256
370
   -1
100
AcDbMText
 10
19.64973730297724
 20
39.74605954465849
 30
0
 40
2.5
 41
81.11111239682994
 71
    4
 72
    5
  1
Print - 1:10 with paper centered on tick marks\P\P\P\P\P\P
  7
iso
210
0
220
0
230
1
 50
0
 73
    2
 44
0.96
  0
MTEXT
  5
ED
100
AcDbEntity
  8
notes
  6
ByLayer
 62
  256
370
   -1
100
AcDbMText
 10
75.91943957968476
 20
2.232924693520137
 30
0
 40
1.25
 41
23.85416640166422
 71
    4
 72
    5
  1
Scale 1" paper = 10" object\P\P\P\P\P\P
  7
iso
210
0
220
0
230
1
 50
0
 73
    2
 44
0.96
  0
LINE
  5
EE
100
AcDbEntity
  8
block
  6
ByLayer
 62
  256
370
   -1
100
AcDbLine
 10
72.5
 20
3.749999999999981
 11
102.5
 21
3.749999999999981
  0
LINE
  5
EF
100
AcDbEntity
  8
block
  6
ByLayer
 62
  256
370
   -1
100
AcDbLine
 10
102.5
 20
15.74999999999998
 11
72.5
 21
15.74999999999998
  0
LINE
  5
F0
100
AcDbEntity
  8
block
  6
ByLayer
 62
  256
370
   -1
100
AcDbLine
 10
72.5
 20
15.74999999999998
 11
72.5
 21
3.749999999999981
  0
LINE
  5
F1
100
AcDbEntity
  8
block
  6
ByLayer
 62
  256
370
   -1
100
AcDbLine
 10
84.5
 20
15.74999999999998
 11
84.5
 21
3.749999999999979
  0
LINE
  5
F2
100
AcDbEntity
  8
block
  6
ByLayer
 62
  256
370
   -1
100
AcDbLine
 10
72.5
 20
6.749999999999982
 11
84.5
 21
6.749999999999982
  0
LINE
  5
F3
100
AcDbEntity
  8
block
  6
ByLayer
 62
  256
370
   -1
100
AcDbLine
 10
84.5
 20
6.749999999999982
 11
102.5
 21
6.749999999999982
  0
LINE
  5
F4
100
AcDbEntity
  8
block
  6
ByLayer
 62
  256
370
   -1
100
AcDbLine
 10
84.5
 20
8.249999999999982
 11
102.5
 21
8.249999999999982
  0
LINE
  5
F5
100
AcDbEntity
  8
block
  6
ByLayer
 62
  256
370
   -1
100
AcDbLine
 10
84.5
 20
9.749999999999982
 11
102.5
 21
9.749999999999982
  0
LINE
  5
F6
100
AcDbEntity
  8
block
  6
ByLayer
 62
  256
370
   -1
100
AcDbLine
 10
84.5
 20
11.24999999999998
 11
102.5
 21
11.24999999999998
  0
LINE
  5
F7
100
AcDbEntity
  8
block
  6
ByLayer
 62
  256
370
   -1
100
AcDbLine
 10
84.5
 20
13.49999999999998
 11
102.5
 21
13.49999999999998
  0
LINE
  5
F8
100
AcDbEntity
  8
block
  6
ByLayer
 62
  256
370
   -1
100
AcDbLine
 10
102.5
 20
3.749999999999981
 11
102.5
 21
6.749999999999982
  0
LINE
  5
F9
100
AcDbEntity
  8
block
  6
ByLayer
 62
  256
370
   -1
100
AcDbLine
 10
102.5
 20
6.749999999999982
 11
102.5
 21
15.74999999999998
  0
LINE
  5
FA
100
AcDbEntity
  8
block
  6
ByLayer
 62
  256
370
   -1
100
AcDbLine
 10
99.5
 20
3.749999999999981
 11
99.5
 21
6.749999999999982
  0
LINE
  5
FB
100
AcDbEntity
  8
block
  6
ByLayer
 62
  256
370
   -1
100
AcDbLine
 10
96.5
 20
3.749999999999981
 11
96.5
 21
11.24999999999998
  0
LINE
  5
FC
100
AcDbEntity
  8
block
  6
ByLayer
 62
  256
370
   -1
100
AcDbLine
 10
78.5
 20
6.749999999999982
 11
78.5
 21
3.749999999999979
  0
TEXT
  5
FD
100
AcDbEntity
  8
block
  6
ByLayer
 62
  256
370
   -1
100
AcDbText
 10
96.6875
 20
10.68749999999998
 30
0
 40
0.3750000000000001
  1
Date Drawn:
 50
0
 41
1
 51
0
  7
standard
 71
    0
 11
96.6875
 21
10.68749999999998
 31
0
210
0
220
0
230
1
100
AcDbText
 73
    1
  0
TEXT
  5
FE
100
AcDbEntity
  8
block
  6
ByLayer
 62
  256
370
   -1
100
AcDbText
 10
96.6875
 20
9.187499999999982
 30
0
 40
0.3750000000000001
  1
Date Checked:
 50
0
 41
1
 51
0
  7
standard
 71
    0
 11
96.6875
 21
9.187499999999982
 31
0
210
0
220
0
230
1
100
AcDbText
 73
    1
  0
TEXT
  5
FF
100
AcDbEntity
  8
block
  6
ByLayer
 62
  256
370
   -1
100
AcDbText
 10
96.6875
 20
7.687499999999982
 30
0
 40
0.3750000000000001
  1
Date Approved:
 50
0
 41
1
 51
0
  7
standard
 71
    0
 11
96.6875
 21
7.687499999999982
 31
0
210
0
220
0
230
1
100
AcDbText
 73
    1
  0
TEXT
  5
100
100
AcDbEntity
  8
block
  6
ByLayer
 62
  256
370
   -1
100
AcDbText
 10
96.6875
 20
6.187499999999982
 30
0
 40
0.3750000000000001
  1
Sht:
 50
0
 41
1
 51
0
  7
standard
 71
    0
 11
96.6875
 21
6.187499999999982
 31
0
210
0
220
0
230
1
100
AcDbText
 73
    1
  0
TEXT
  5
101
100
AcDbEntity
  8
block
  6
ByLayer
 62
  256
370
   -1
100
AcDbText
 10
99.6875
 20
6.187499999999982
 30
0
 40
0.3750000000000001
  1
Rev:
 50
0
 41
1
 51
0
  7
standard
 71
    0
 11
99.6875
 21
6.187499999999982
 31
0
210
0
220
0
230
1
100
AcDbText
 73
    1
  0
TEXT
  5
102
100
AcDbEntity
  8
block
  6
ByLayer
 62
  256
370
   -1
100
AcDbText
 10
84.6875
 20
9.187499999999982
 30
0
 40
0.3750000000000001
  1
Checked By:
 50
0
 41
1
 51
0
  7
standard
 71
    0
 11
84.6875
 21
9.187499999999982
 31
0
210
0
220
0
230
1
100
AcDbText
 73
    1
  0
TEXT
  5
103
100
AcDbEntity
  8
block
  6
ByLayer
 62
  256
370
   -1
100
AcDbText
 10
84.6875
 20
7.687499999999982
 30
0
 40
0.3750000000000001
  1
Approved By:
 50
0
 41
1
 51
0
  7
standard
 71
    0
 11
84.6875
 21
7.687499999999982
 31
0
210
0
220
0
230
1
100
AcDbText
 73
    1
  0
TEXT
  5
104
100
AcDbEntity
  8
block
  6
ByLayer
 62
  256
370
   -1
100
AcDbText
 10
84.6875
 20
6.187499999999982
 30
0
 40
0.3750000000000001
  1
Drawing No:
 50
0
 41
1
 51
0
  7
standard
 71
    0
 11
84.6875
 21
6.187499999999982
 31
0
210
0
220
0
230
1
100
AcDbText
 73
    1
  0
TEXT
  5
105
100
AcDbEntity
  8
block
  6
ByLayer
 62
  256
370
   -1
100
AcDbText
 10
78.6875
 20
6.187499999999982
 30
0
 40
0.3750000000000001
  1
Scale:
 50
0
 41
1
 51
0
  7
standard
 71
    0
 11
78.6875
 21
6.187499999999982
 31
0
210
0
220
0
230
1
100
AcDbText
 73
    1
  0
TEXT
  5
106
100
AcDbEntity
  8
block
  6
ByLayer
 62
  256
370
   -1
100
AcDbText
 10
84.6875
 20
15.18749999999998
 30
0
 40
0.3750000000000001
  1
Drawing Name:
 50
0
 41
1
 51
0
  7
standard
 71
    0
 11
84.6875
 21
15.18749999999998
 31
0
210
0
220
0
230
1
100
AcDbText
 73
    1
  0
TEXT
  5
107
100
AcDbEntity
  8
block
  6
ByLayer
 62
  256
370
   -1
100
AcDbText
 10
84.6875
 20
12.93749999999998
 30
0
 40
0.3750000000000001
  1
Project:
 50
0
 41
1
 51
0
  7
standard
 71
    0
 11
84.6875
 21
12.93749999999998
 31
0
210
0
220
0
230
1
100
AcDbText
 73
    1
  0
TEXT
  5
108
100
AcDbEntity
  8
block
  6
ByLayer
 62
  256
370
   -1
100
AcDbText
 10
84.6875
 20
10.68749999999998
 30
0
 40
0.3750000000000001
  1
Drawn By:
 50
0
 41
1
 51
0
  7
standard
 71
    0
 11
84.6875
 21
10.68749999999998
 31
0
210
0
220
0
230
1
100
AcDbText
 73
    1
  0
LINE
  5
109
100
AcDbEntity
  8
block
  6
ByLayer
 62
  256
370
   -1
100
AcDbLine
 10
72.5
 20
6.749999999999982
 11
72.5
 21
3.749999999999981
  0
CIRCLE
  5
10A
100
AcDbEntity
  8
block
  6
ByLayer
 62
  256
370
   -1
100
AcDbCircle
 10
74.06981562842
 20
5.249999999999982
 40
1.046977899114
  0
CIRCLE
  5
10B
100
AcDbEntity
  8
block
  6
ByLayer
 62
  256
370
   -1
100
AcDbCircle
 10
74.06981562842
 20
5.249999999999982
 40
0.5228375152470001
  0
LINE
  5
10C
100
AcDbEntity
  8
block
  6
ByLayer
 62
  256
370
   -1
100
AcDbLine
 10
77.97719034229999
 20
6.296977899113982
 11
77.97719034229999
 21
4.203022100885982
  0
LINE
  5
10D
100
AcDbEntity
  8
block
  6
ByLayer
 62
  256
370
   -1
100
AcDbLine
 10
75.88323454406
 20
5.77283751524998
 11
75.88323454406
 21
4.72716248474998
  0
LINE
  5
10E
100
AcDbEntity
  8
block
  6
ByLayer
 62
  256
370
   -1
100
AcDbLine
 10
75.88323454406
 20
5.77283751524998
 11
77.97719034229999
 21
6.296977899113982
  0
LINE
  5
10F
100
AcDbEntity
  8
block
  6
ByLayer
 62
  256
370
   -1
100
AcDbLine
 10
75.88323454406
 20
4.72716248474998
 11
77.97719034229999
 21
4.203022100885982
  0
LINE
  5
110
100
AcDbEntity
  8
block
  6
CONTINUOUS
 62
  256
370
   -1
100
AcDbLine
 10
74.06981562842
 20
3.749999999999981
 11
74.06981562842
 21
6.749999999999982
  0
LINE
  5
111
100
AcDbEntity
  8
block
  6
CONTINUOUS
 62
  256
370
   -1
100
AcDbLine
 10
78.5
 20
5.249999999999982
 11
72.5
 21
5.249999999999982
  0
MTEXT
  5
112
100
AcDbEntity
  8
block
  6
ByLayer
 62
  256
370
   -1
100
AcDbMText
 10
85
 20
14
 30
0
 40
1
 41
12.50000051428729
 71
    7
 72
    1
  1
Media Room Closet
  7
standard
210
0
220
0
230
1
 50
0
 73
    2
 44
1
  0
MTEXT
  5
113
100
AcDbEntity
  8
block
  6
ByLayer
 62
  256
370
   -1
100
AcDbMText
 10
85
 20
11.75
 30
0
 40
0.8
 41
14.77777760817622
 71
    7
 72
    1
  1
1329 Sanford Ave. Remodel
  7
standard
210
0
220
0
230
1
 50
0
 73
    2
 44
1
  0
MTEXT
  5
114
100
AcDbEntity
  8
block
  6
ByLayer
 62
  256
370
   -1
100
AcDbMText
 10
85
 20
4.25
 30
0
 40
1
 41
6.222222222222269
 71
    7
 72
    1
  1
MedRm-01
  7
standard
210
0
220
0
230
1
 50
0
 73
    2
 44
1
  0
MTEXT
  5
115
100
AcDbEntity
  8
block
  6
ByLayer
 62
  256
370
   -1
100
AcDbMText
 10
85
 20
10
 30
0
 40
0.5
 41
4.750000257143731
 71
    7
 72
    1
  1
John D. Fisher
  7
standard
210
0
220
0
230
1
 50
0
 73
    2
 44
1
  0
MTEXT
  5
116
100
AcDbEntity
  8
block
  6
ByLayer
 62
  256
370
   -1
100
AcDbMText
 10
97
 20
10
 30
0
 40
0.5
 41
3.38888888888892
 71
    7
 72
    1
  1
2017-12-31
  7
standard
210
0
220
0
230
1
 50
0
 73
    2
 44
1
  0
MTEXT
  5
117
100
AcDbEntity
  8
block
  6
ByLayer
 62
  256
370
   -1
100
AcDbMText
 10
97
 20
4.25
 30
0
 40
1
 41
1.777777777777778
 71
    7
 72
    1
  1
1/F
  7
standard
210
0
220
0
230
1
 50
0
 73
    2
 44
1
  0
MTEXT
  5
118
100
AcDbEntity
  8
block
  6
ByLayer
 62
  256
370
   -1
100
AcDbMText
 10
100.75
 20
4.25
 30
0
 40
1
 41
0.4444444444444444
 71
    7
 72
    1
  1
0
  7
standard
210
0
220
0
230
1
 50
0
 73
    2
 44
1
  0
MTEXT
  5
119
100
AcDbEntity
  8
block
  6
ByLayer
 62
  256
370
   -1
100
AcDbMText
 10
80.25
 20
4.25
 30
0
 40
1
 41
2.611111111111111
 71
    7
 72
    1
  1
1:10"
  7
standard
210
0
220
0
230
1
 50
0
 73
    2
 44
1
  0
LWPOLYLINE
  5
11A
100
AcDbEntity
  8
Walls
  6
ByLayer
 62
  256
370
   -1
100
AcDbPolyline
 90
    4
 70
    1
 43
0
 10
11.8125
 20
48
 10
11.8125
 20
74.875
 10
92
 20
74.875
 10
92
 20
47.99999999999999
  0
DIMENSION
  5
11B
100
AcDbEntity
  8
dim
  6
ByLayer
 62
  256
370
   -1
100
AcDbDimension
  2
*D3
 10
95.8125
 20
74.875
 30
0
 11
94.8282475
 21
61.43749999999999
 31
0
 70
   32
 71
    5
 72
    0
  3
Standard
 53
0
210
0
220
0
230
1
100
AcDbAlignedDimension
 13
92
 23
47.99999999999999
 33
0
 14
92
 24
74.875
 34
0
 50
90
100
AcDbRotatedDimension
  0
LWPOLYLINE
  5
11C
100
AcDbEntity
  8
Shelves
  6
ByLayer
 62
  256
370
   -1
100
AcDbPolyline
 90
    4
 70
    1
 43
0
 10
13.8125
 20
48
 10
13.8125
 20
74.875
 10
15.11250000000001
 20
74.875
 10
15.11250000000001
 20
48
  0
DIMENSION
  5
11D
100
AcDbEntity
  8
dim
  6
ByLayer
 62
  256
370
   -1
100
AcDbDimension
  2
*D4
 10
76.84995000000001
 20
78.875
 30
0
 11
45.331225
 21
79.8592525
 31
0
 70
   32
 71
    5
 72
    0
  3
Standard
 53
0
210
0
220
0
230
1
100
AcDbAlignedDimension
 13
13.8125
 23
74.875
 33
0
 14
76.84995000000001
 24
74.875
 34
0
 50
180
100
AcDbRotatedDimension
  0
LINE
  5
11E
100
AcDbEntity
  8
Walls
  6
ByLayer
 62
  256
370
   -1
100
AcDbLine
 10
12
 20
38
 11
38.875
 21
38
  0
LINE
  5
11F
100
AcDbEntity
  8
Walls
  6
ByLayer
 62
  256
370
   -1
100
AcDbLine
 10
38.875
 20
38
 11
38.875
 21
10.25
  0
LINE
  5
120
100
AcDbEntity
  8
Walls
  6
ByLayer
 62
  256
370
   -1
100
AcDbLine
 10
12
 20
10.25
 11
12
 21
38
  0
LINE
  5
121
100
AcDbEntity
  8
Walls
  6
ByLayer
 62
  256
370
   -1
100
AcDbLine
 10
38.875
 20
10.25
 11
35.4375
 21
10.25
  0
MTEXT
  5
122
100
AcDbEntity
  8
dim
  6
ByLayer
 62
  256
370
   -1
100
AcDbMText
 10
24
 20
6
 30
0
 40
2
 41
4.888888888888888
 71
    7
 72
    1
  1
A-A
  7
standard
210
0
220
0
230
1
 50
0
 73
    2
 44
1
  0
LWPOLYLINE
  5
123
100
AcDbEntity
  8
Baskets-KALEX
  6
ByLayer
 62
  256
370
   -1
100
AcDbPolyline
 90
    4
 70
    1
 43
0
 10
25.875
 20
37.75
 10
38.875
 20
37.75
 10
38.875
 20
24
 10
25.875
 20
24
  0
LWPOLYLINE
  5
124
100
AcDbEntity
  8
Shelves_EKET
  6
ByLayer
 62
  256
370
   -1
100
AcDbPolyline
 90
    4
 70
    1
 43
0
 10
78.25620000000001
 20
47.99999999999999
 10
78.25620000000001
 20
61.74999999999999
 10
50.75620000000001
 20
61.75
 10
50.75620000000001
 20
48
  0
LWPOLYLINE
  5
125
100
AcDbEntity
  8
Shelves
  6
ByLayer
 62
  256
370
   -1
100
AcDbPolyline
 90
    4
 70
    1
 43
0
 10
79.00620000000001
 20
47.99999999999999
 10
79.00620000000001
 20
74.875
 10
78.25620000000001
 20
74.875
 10
78.25620000000001
 20
47.99999999999999
  0
DIMENSION
  5
126
100
AcDbEntity
  8
dim
  6
ByLayer
 62
  256
370
   -1
100
AcDbDimension
  2
*D5
 10
75.40625
 20
74.875
 30
0
 11
74.4219975
 21
68.3125
 31
0
 70
   32
 71
    5
 72
    0
  3
Standard
 53
0
210
0
220
0
230
1
100
AcDbAlignedDimension
 13
78.25620000000001
 23
61.74999999999999
 33
0
 14
78.25620000000001
 24
74.875
 34
0
 50
90
100
AcDbRotatedDimension
  0
LEADER
  5
127
100
AcDbEntity
  8
dim
  6
ByLayer
 62
  256
370
   -1
100
AcDbLeader
  3
Standard
 71
    1
 72
    0
 73
    3
 74
    0
 75
    0
 40
1
 41
10
 76
3
 76
3
 10
78.25620000000001
 20
47.99999999999999
 30
0
 10
78.25620000000001
 20
44
 30
0
 10
81.40625
 20
44
 30
0
  0
LEADER
  5
128
100
AcDbEntity
  8
dim
  6
ByLayer
 62
  256
370
   -1
100
AcDbLeader
  3
Standard
 71
    1
 72
    0
 73
    3
 74
    0
 75
    0
 40
1
 41
10
 76
3
 76
3
 10
78.25620000000001
 20
74.875
 30
0
 10
78.25620000000001
 20
78
 30
0
 10
81.40625
 20
78
 30
0
  0
MTEXT
  5
129
100
AcDbEntity
  8
dim
  6
ByLayer
 62
  256
370
   -1
100
AcDbMText
 10
83.40625
 20
44
 30
0
 40
2
 41
1.333333333333333
 71
    7
 72
    1
  1
A
  7
standard
210
0
220
0
230
1
 50
0
 73
    2
 44
1
  0
MTEXT
  5
12A
100
AcDbEntity
  8
dim
  6
ByLayer
 62
  256
370
   -1
100
AcDbMText
 10
83.40625
 20
78
 30
0
 40
2
 41
1.333333333333333
 71
    7
 72
    1
  1
A
  7
standard
210
0
220
0
230
1
 50
0
 73
    2
 44
1
  0
LINE
  5
12B
100
AcDbEntity
  8
Walls
  6
ByLayer
 62
  256
370
   -1
100
AcDbLine
 10
12
 20
10.25
 11
15
 21
10.25
  0
LINE
  5
12C
100
AcDbEntity
  8
construction
  6
ByLayer
 62
  256
370
   -1
100
AcDbLine
 10
12
 20
38
 11
8.5625
 21
38
  0
LINE
  5
12D
100
AcDbEntity
  8
construction
  6
ByLayer
 62
  256
370
   -1
100
AcDbLine
 10
38.875
 20
22.25
 11
35.4375
 21
22.25
  0
LWPOLYLINE
  5
12E
100
AcDbEntity
  8
Shelves-Brackets
  6
ByLayer
 62
  256
370
   -1
100
AcDbPolyline
 90
    4
 70
    1
 43
0
 10
12
 20
35
 10
12.1
 20
35
 10
12.1
 20
34.4
 10
12
 20
34.4
  0
LWPOLYLINE
  5
12F
100
AcDbEntity
  8
Shelves-Brackets
  6
ByLayer
 62
  256
370
   -1
100
AcDbPolyline
 90
    4
 70
    1
 43
0
 10
12
 20
25.25
 10
12.1
 20
25.25
 10
12.1
 20
25.85
 10
12
 20
25.85
  0
LWPOLYLINE
  5
130
100
AcDbEntity
  8
Shelves-Brackets
  6
ByLayer
 62
  256
370
   -1
100
AcDbPolyline
 90
    4
 70
    1
 43
0
 10
38.775
 20
35
 10
38.875
 20
35
 10
38.875
 20
34.4
 10
38.775
 20
34.4
  0
LWPOLYLINE
  5
131
100
AcDbEntity
  8
Shelves-Brackets
  6
ByLayer
 62
  256
370
   -1
100
AcDbPolyline
 90
    4
 70
    1
 43
0
 10
38.775
 20
25.25
 10
38.875
 20
25.25
 10
38.875
 20
25.85
 10
38.775
 20
25.85
  0
LINE
  5
132
100
AcDbEntity
  8
construction
  6
ByLayer
 62
  256
370
   -1
100
AcDbLine
 10
12.225
 20
35
 11
12.225
 21
31.5625
  0
LINE
  5
133
100
AcDbEntity
  8
construction
  6
ByLayer
 62
  256
370
   -1
100
AcDbLine
 10
38.65
 20
35
 11
38.65
 21
31.5625
  0
LWPOLYLINE
  5
134
100
AcDbEntity
  8
Shelves
  6
ByLayer
 62
  256
370
   -1
100
AcDbPolyline
 90
    4
 70
    1
 43
0
 10
12.225
 20
38
 10
38.65
 20
38
 10
38.65
 20
22.25
 10
12.225
 20
22.25
  0
DIMENSION
  5
135
100
AcDbEntity
  8
dim
  6
ByLayer
 62
  256
370
   -1
100
AcDbDimension
  2
*D8
 10
11
 20
35
 30
0
 11
10.0157475
 21
36.5
 31
0
 70
   32
 71
    5
 72
    0
  3
Standard
 53
0
210
0
220
0
230
1
100
AcDbAlignedDimension
 13
12
 23
38
 33
0
 14
12
 24
35
 34
0
 50
90
100
AcDbRotatedDimension
  0
DIMENSION
  5
136
100
AcDbEntity
  8
dim
  6
ByLayer
 62
  256
370
   -1
100
AcDbDimension
  2
*D9
 10
10
 20
25.85
 30
0
 11
9.0157475
 21
31.925
 31
0
 70
   32
 71
    5
 72
    0
  3
Standard
 53
0
210
0
220
0
230
1
100
AcDbAlignedDimension
 13
12
 23
38
 33
0
 14
12
 24
25.85
 34
0
 50
90
100
AcDbRotatedDimension
  0
DIMENSION
  5
137
100
AcDbEntity
  8
dim
  6
ByLayer
 62
  256
370
   -1
100
AcDbDimension
  2
*D10
 10
38.65
 20
20
 30
0
 11
25.4375
 21
20.9842525
 31
0
 70
   32
 71
    5
 72
    0
  3
Standard
 53
0
210
0
220
0
230
1
100
AcDbAlignedDimension
 13
12.225
 23
22.25
 33
0
 14
38.65
 24
22.25
 34
0
100
AcDbRotatedDimension
  0
DIMENSION
  5
138
100
AcDbEntity
  8
dim
  6
ByLayer
 62
  256
370
   -1
100
AcDbDimension
  2
*D11
 10
42
 20
22.25
 30
0
 11
41.0157475
 21
30.125
 31
0
 70
   32
 71
    5
 72
    0
  3
Standard
 53
0
210
0
220
0
230
1
100
AcDbAlignedDimension
 13
38.65
 23
38
 33
0
 14
38.65
 24
22.25
 34
0
 50
90
100
AcDbRotatedDimension
  0
LWPOLYLINE
  5
139
100
AcDbEntity
  8
Baskets-KALEX
  6
ByLayer
 62
  256
370
   -1
100
AcDbPolyline
 90
    4
 70
    1
 43
0
 10
12
 20
24
 10
25
 20
24
 10
25
 20
10.25
 10
12
 20
10.25
  0
DIMENSION
  5
13A
100
AcDbEntity
  8
dim
  6
ByLayer
 62
  256
370
   -1
100
AcDbDimension
  2
*D12
 10
38.875
 20
40
 30
0
 11
25.4375
 21
40.9842525
 31
0
 70
   32
 71
    5
  3
Standard
 53
0
210
0
220
0
230
1
100
AcDbAlignedDimension
 13
12
 23
38
 33
0
 14
38.875
 24
38
 34
0
100
AcDbRotatedDimension
  0
DIMENSION
  5
13B
100
AcDbEntity
  8
dim
  6
ByLayer
 62
  256
370
   -1
100
AcDbDimension
  2
*D13
 10
50.75620000000001
 20
46
 30
0
 11
32.28435
 21
46.9842525
 31
0
 70
   32
 71
    5
  3
Standard
 53
0
210
0
220
0
230
1
100
AcDbAlignedDimension
 13
13.8125
 23
48
 33
0
 14
50.75620000000001
 24
47.99999999999999
 34
0
100
AcDbRotatedDimension
  0
DIMENSION
  5
13C
100
AcDbEntity
  8
dim
  6
ByLayer
 62
  256
370
   -1
100
AcDbDimension
  2
*D14
 10
13.8125
 20
43
 30
0
 11
12.8125
 21
43.9842525
 31
0
 70
   32
 71
    5
  3
Standard
 53
0
210
0
220
0
230
1
100
AcDbAlignedDimension
 13
11.8125
 23
48
 33
0
 14
13.8125
 24
48
 34
0
100
AcDbRotatedDimension
  0
DIMENSION
  5
13D
100
AcDbEntity
  8
dim
  6
ByLayer
 62
  256
370
   -1
100
AcDbDimension
  2
*D15
 10
91.99999999999999
 20
50
 30
0
 11
85.50309999999999
 21
50.9842525
 31
0
 70
   32
 71
    5
  3
Standard
 53
0
210
0
220
0
230
1
100
AcDbAlignedDimension
 13
79.00620000000001
 23
47.99999999999999
 33
0
 14
91.99999999999999
 24
47.99999999999999
 34
0
100
AcDbRotatedDimension
  0
ENDSEC
  0
SECTION
  2
OBJECTS
  0
DICTIONARY
  5
C
330
0
100
AcDbDictionary
281
    1
  3
ACAD_GROUP
350
D
  0
DICTIONARY
  5
D
330
C
100
AcDbDictionary
281
    1
  0
ENDSEC
  0
EOF
